<svg width="129" height="25" viewBox="0 0 129 25" fill="none" xmlns="http://www.w3.org/2000/svg">
<g clip-path="url(#clip0_9_374)">
<path d="M22.4478 6.35724C22.4478 3.50547 24.5871 1.16849 27.6303 1.16849C29.4833 1.16849 30.6 1.81402 31.5653 2.73328L30.4323 4.0366C29.6265 3.28893 28.7675 2.79048 27.6181 2.79048C25.7078 2.79048 24.3007 4.36754 24.3007 6.33273V6.36133C24.3007 8.32652 25.6915 9.91583 27.6181 9.91583C28.8534 9.91583 29.6428 9.42964 30.5018 8.62477L31.6349 9.77283C30.5877 10.8637 29.4383 11.5501 27.5567 11.5501C24.628 11.5501 22.4478 9.2703 22.4478 6.38993V6.35724Z" fill="#261656"/>
<path d="M32.5266 9.19676V9.16816C32.5266 7.53391 33.8028 6.72904 35.6558 6.72904C36.5025 6.72904 37.1038 6.85978 37.6928 7.04363V6.85569C37.6928 5.78117 37.0342 5.20509 35.8112 5.20509C34.9645 5.20509 34.3346 5.39303 33.6433 5.67903L33.1851 4.31851C34.0196 3.94672 34.8377 3.70158 36.0403 3.70158C37.1733 3.70158 38.02 4.00392 38.5518 4.54731C39.1122 5.0907 39.3699 5.89557 39.3699 6.88429V11.3703H37.6764V10.4225C37.161 11.0394 36.3716 11.5256 35.2058 11.5256C33.7864 11.5256 32.5225 10.7084 32.5225 9.18859L32.5266 9.19676ZM37.7255 8.65337V8.13858C37.2797 7.96698 36.6906 7.83624 36.0035 7.83624C34.8827 7.83624 34.2241 8.31018 34.2241 9.0987V9.1273C34.2241 9.85863 34.8704 10.2754 35.7049 10.2754C36.8543 10.2754 37.7296 9.61758 37.7296 8.65337H37.7255Z" fill="#261656"/>
<path d="M42.9081 3.80372V4.96404C43.3949 4.26131 44.0984 3.64438 45.2765 3.64438C46.9863 3.64438 47.9761 4.79245 47.9761 6.5411V11.3744H46.2377V7.07223C46.2377 5.89557 45.6487 5.22144 44.6138 5.22144C43.5789 5.22144 42.904 5.92417 42.904 7.10083V11.3744H41.1656V3.80372H42.9081Z" fill="#261656"/>
<path d="M49.326 7.63196V7.60336C49.326 5.45432 50.9908 3.64438 53.2733 3.64438C54.6926 3.64438 55.5844 4.17551 56.3043 4.9477L55.2121 6.10802C54.6804 5.54829 54.12 5.16015 53.261 5.16015C51.997 5.16015 51.0644 6.25102 51.0644 7.57068V7.59928C51.0644 8.94754 51.997 10.0221 53.3346 10.0221C54.1527 10.0221 54.754 9.65027 55.3021 9.09053L56.3493 10.1242C55.6007 10.9577 54.7254 11.5419 53.2487 11.5419C50.9949 11.5419 49.3301 9.77692 49.3301 7.62788L49.326 7.63196Z" fill="#261656"/>
<path d="M57.1346 7.6197V7.5911C57.1346 5.42572 58.6685 3.64847 60.8365 3.64847C63.2498 3.64847 64.4688 5.54011 64.4688 7.72184C64.4688 7.88118 64.4524 8.03644 64.4401 8.20804H58.869C59.0571 9.4419 59.9325 10.1283 61.0492 10.1283C61.8959 10.1283 62.4972 9.81369 63.1026 9.22536L64.1211 10.1283C63.4053 10.9904 62.4113 11.546 61.0205 11.546C58.824 11.546 57.1305 9.9526 57.1305 7.61562L57.1346 7.6197ZM62.7467 7.05997C62.6322 5.94051 61.9695 5.06618 60.8242 5.06618C59.7607 5.06618 59.0162 5.88331 58.8567 7.05997H62.7467Z" fill="#261656"/>
<path d="M67.647 3.80372V5.51152C68.1215 4.3798 68.9969 3.60352 70.3304 3.66072V5.49517H70.2281C68.7065 5.49517 67.6429 6.4839 67.6429 8.48994V11.3703H65.9045V3.80372H67.647Z" fill="#261656"/>
<path d="M75.9465 2.97434H72.7601V1.34008H80.9123V2.97434H77.7259V11.3785H75.9465V2.97434Z" fill="#261656"/>
<path d="M84.017 0.907005V4.96404C84.5037 4.26131 85.2073 3.64438 86.3853 3.64438C88.0951 3.64438 89.085 4.79244 89.085 6.5411V11.3744H87.3466V7.07223C87.3466 5.89557 86.7576 5.22144 85.7227 5.22144C84.6878 5.22144 84.0129 5.92416 84.0129 7.10083V11.3744H82.2744V0.907005H84.017Z" fill="#261656"/>
<path d="M90.4349 7.6197V7.5911C90.4349 5.42572 91.9688 3.64847 94.1367 3.64847C96.546 3.64847 97.769 5.54011 97.769 7.72184C97.769 7.88118 97.7526 8.03644 97.7404 8.20804H92.1692C92.3574 9.4419 93.2327 10.1283 94.3494 10.1283C95.1961 10.1283 95.7974 9.81369 96.4028 9.22536L97.4213 10.1283C96.7014 10.9904 95.7115 11.546 94.3208 11.546C92.1242 11.546 90.4308 9.9526 90.4308 7.61562L90.4349 7.6197ZM96.0469 7.05997C95.9324 5.94051 95.2697 5.06618 94.1244 5.06618C93.0609 5.06618 92.3165 5.88331 92.1569 7.05997H96.0469Z" fill="#261656"/>
<path d="M100.943 3.80372V5.51152C101.418 4.3798 102.293 3.60352 103.626 3.66072V5.49517H103.524C102.003 5.49517 100.939 6.4839 100.939 8.48994V11.3703H99.2007V3.80372H100.943Z" fill="#261656"/>
<path d="M104.216 9.19676V9.16816C104.216 7.53391 105.492 6.72904 107.345 6.72904C108.191 6.72904 108.793 6.85978 109.382 7.04363V6.85569C109.382 5.78117 108.719 5.20509 107.5 5.20509C106.653 5.20509 106.019 5.39303 105.332 5.67903L104.874 4.31851C105.709 3.94672 106.527 3.70158 107.729 3.70158C108.862 3.70158 109.709 4.00392 110.241 4.54731C110.801 5.0907 111.059 5.89557 111.059 6.88429V11.3703H109.365V10.4225C108.85 11.0394 108.061 11.5256 106.895 11.5256C105.475 11.5256 104.211 10.7084 104.211 9.18859L104.216 9.19676ZM109.414 8.65337V8.13858C108.969 7.96698 108.38 7.83624 107.692 7.83624C106.572 7.83624 105.913 8.31018 105.913 9.0987V9.1273C105.913 9.85863 106.559 10.2754 107.394 10.2754C108.543 10.2754 109.419 9.61758 109.419 8.65337H109.414Z" fill="#261656"/>
<path d="M112.875 3.80372H114.613V5.06618C115.174 4.27765 115.963 3.64847 117.199 3.64847C118.978 3.64847 120.716 5.05392 120.716 7.57885V7.60745C120.716 10.116 118.994 11.5378 117.199 11.5378C115.935 11.5378 115.145 10.9086 114.613 10.2059V13.6746H112.875V3.80372ZM118.949 7.60336V7.57476C118.949 6.1121 117.959 5.15198 116.781 5.15198C115.603 5.15198 114.572 6.12845 114.572 7.57476V7.60336C114.572 9.04968 115.607 10.0261 116.781 10.0261C117.955 10.0261 118.949 9.09462 118.949 7.60336Z" fill="#261656"/>
<path d="M127.187 3.80372H128.995L125.981 11.5909C125.379 13.1394 124.705 13.7114 123.481 13.7114C122.762 13.7114 122.218 13.5398 121.686 13.2538L122.275 11.9627C122.59 12.1343 122.937 12.2487 123.293 12.2487C123.78 12.2487 124.083 12.0322 124.369 11.3867L121.211 3.79964H123.077L125.216 9.42147L127.183 3.79964L127.187 3.80372Z" fill="#261656"/>
<path d="M25.8189 16.2118H26.6902L30.4493 24.5097H29.4471L28.4818 22.3321H23.9905L23.0129 24.5097H22.0598L25.8189 16.2118ZM28.1177 21.4864L26.2443 17.2945L24.3586 21.4864H28.1177Z" fill="#9D0121"/>
<path d="M31.746 16.269H34.6093C37.2026 16.269 38.9942 18.0463 38.9942 20.3669V20.3914C38.9942 22.712 37.2026 24.5097 34.6093 24.5097H31.746V16.269ZM32.6786 17.127V23.6477H34.6093C36.6954 23.6477 38.0248 22.234 38.0248 20.4118V20.3873C38.0248 18.5651 36.6954 17.127 34.6093 17.127H32.6786Z" fill="#9D0121"/>
<path d="M39.5219 16.269H40.5608L43.4937 23.3658L46.4388 16.269H47.441L43.8945 24.5669H43.0683L39.5219 16.269Z" fill="#9D0121"/>
<path d="M48.8031 16.269H49.7357V24.5097H48.8031V16.269Z" fill="#9D0121"/>
<path d="M51.196 23.3086L51.7727 22.6263C52.6317 23.4025 53.458 23.7907 54.5992 23.7907C55.7404 23.7907 56.4358 23.2023 56.4358 22.3893V22.3648C56.4358 21.6008 56.0227 21.1636 54.2924 20.8C52.3945 20.3873 51.5232 19.7745 51.5232 18.4221V18.3976C51.5232 17.1025 52.6644 16.1505 54.2311 16.1505C55.4337 16.1505 56.2927 16.4937 57.1312 17.1638L56.5872 17.8828C55.8223 17.2577 55.0573 16.9881 54.2065 16.9881C53.1348 16.9881 52.4517 17.5764 52.4517 18.3159V18.3404C52.4517 19.1167 52.8771 19.5539 54.6892 19.942C56.5258 20.3424 57.3766 21.0124 57.3766 22.2708V22.2953C57.3766 23.7089 56.1986 24.6241 54.5583 24.6241C53.2494 24.6241 52.1777 24.187 51.1878 23.3045L51.196 23.3086Z" fill="#9D0121"/>
<path d="M58.3706 20.4118V20.3873C58.3706 18.1157 60.0804 16.126 62.5878 16.126C65.0953 16.126 66.7846 18.0912 66.7846 20.3628V20.3873C66.7846 22.6589 65.0748 24.6486 62.5674 24.6486C60.0599 24.6486 58.3706 22.6834 58.3706 20.4118ZM65.8193 20.4118V20.3873C65.8193 18.5161 64.4531 16.984 62.5674 16.984C60.6817 16.984 59.34 18.4916 59.34 20.3628V20.3873C59.34 22.2585 60.7062 23.7907 62.5919 23.7907C64.4776 23.7907 65.8193 22.2831 65.8193 20.4118Z" fill="#9D0121"/>
<path d="M68.3267 16.269H71.8731C72.8875 16.269 73.6974 16.5754 74.2169 17.0943C74.6178 17.4947 74.855 18.0708 74.855 18.7204V18.7449C74.855 20.1095 73.9142 20.9103 72.6176 21.1473L75.1495 24.5138H74.0083L71.6154 21.3107H69.2593V24.5138H68.3267V16.269ZM71.7913 20.4731C73.0266 20.4731 73.9142 19.8358 73.9142 18.7776V18.7531C73.9142 17.7398 73.1371 17.127 71.8036 17.127H69.2593V20.469H71.7954L71.7913 20.4731Z" fill="#9D0121"/>
<path d="M11.3096 3.24399C12.2054 3.24399 12.9335 2.51675 12.9335 1.622C12.9335 0.727243 12.2054 0 11.3096 0C10.4138 0 9.6857 0.727243 9.6857 1.622C9.6857 2.51675 10.4138 3.24399 11.3096 3.24399Z" fill="url(#paint0_linear_9_374)"/>
<path d="M15.7641 11.1497C15.535 9.80552 13.4571 8.66563 8.80217 6.47573C9.18258 6.08351 9.5589 5.69538 9.93931 5.31541C10.2911 4.96405 10.2911 4.39206 9.93931 4.04069C9.58753 3.68933 9.01487 3.68933 8.66309 4.04069C8.65082 4.05295 8.00862 4.69439 7.08827 5.66678C4.86717 4.61677 2.12658 3.25217 1.79934 2.60255C1.70936 2.18173 1.33713 1.88756 0.915811 1.88756C0.866726 1.88756 0.81355 1.89165 0.764465 1.89982C0.269523 1.9897 -0.0577119 2.45547 0.0240968 2.94574C0.232709 4.16735 1.97523 5.22553 5.7957 7.05589C5.30894 7.58702 4.79763 8.15493 4.29042 8.73917C0.265432 13.3519 -0.123159 14.8676 0.0240968 15.7379C0.249071 17.0534 2.24929 18.177 6.70377 20.2811C6.48698 20.4895 4.78127 22.2054 4.5563 22.4138C4.19634 22.757 4.17998 23.329 4.52357 23.6885C4.86717 24.048 5.43983 24.0644 5.79979 23.7212C6.1352 23.4025 8.02089 21.519 8.45039 21.0982C10.7083 22.1646 13.6493 23.6068 13.9888 24.2809C14.0788 24.7017 14.4511 24.9959 14.8724 24.9959C14.9215 24.9959 14.9746 24.9918 15.0237 24.9837C15.5146 24.9019 15.8459 24.4321 15.76 23.9418C15.5473 22.6998 13.7516 21.6293 9.80432 19.7418C12.6594 16.8287 16.0668 12.9188 15.76 11.1456L15.7641 11.1497ZM8.06998 18.9328C5.78752 17.8665 2.22066 16.1791 1.80344 15.4192C1.82798 14.4672 4.44995 11.1538 7.49732 7.86076C7.49732 7.86076 7.5055 7.86076 7.50959 7.86485C9.77569 8.92711 13.5512 10.6921 13.9807 11.4765C13.9561 12.2937 11.6696 15.2925 8.06998 18.9328Z" fill="url(#paint1_linear_9_374)"/>
</g>
<defs>
<linearGradient id="paint0_linear_9_374" x1="9.29897" y1="42.5593" x2="7.65347" y2="240.959" gradientUnits="userSpaceOnUse">
<stop stop-color="#E5214E"/>
<stop offset="1" stop-color="#9D0121"/>
</linearGradient>
<linearGradient id="paint1_linear_9_374" x1="8.37728" y1="5.50653" x2="8.24261" y2="31.2561" gradientUnits="userSpaceOnUse">
<stop stop-color="#E5214E"/>
<stop offset="1" stop-color="#9D0121"/>
</linearGradient>
<clipPath id="clip0_9_374">
<rect width="129" height="25" fill="white"/>
</clipPath>
</defs>
</svg>
