<svg width="110" height="23" viewBox="0 0 110 23" fill="none" xmlns="http://www.w3.org/2000/svg">
<g clip-path="url(#clip0_9_608)">
<path d="M19.1393 6.49864C19.1393 3.97443 20.9633 1.90588 23.558 1.90588C25.1379 1.90588 26.09 2.47727 26.913 3.29094L25.947 4.44456C25.2599 3.78276 24.5275 3.34157 23.5475 3.34157C21.9189 3.34157 20.7191 4.73748 20.7191 6.47694V6.50225C20.7191 8.24171 21.9049 9.64847 23.5475 9.64847C24.6008 9.64847 25.2739 9.21812 26.0063 8.5057L26.9723 9.5219C26.0795 10.4875 25.0995 11.095 23.4952 11.095C20.9981 11.095 19.1393 9.07709 19.1393 6.52757V6.49864Z" fill="#261656"/>
<path d="M27.7326 9.01199V8.98668C27.7326 7.54014 28.8207 6.82772 30.4006 6.82772C31.1225 6.82772 31.6352 6.94345 32.1374 7.10618V6.93983C32.1374 5.98873 31.5759 5.47883 30.5331 5.47883C29.8112 5.47883 29.2741 5.64518 28.6847 5.89832L28.2941 4.69408C29.0056 4.365 29.7031 4.14802 30.7284 4.14802C31.6945 4.14802 32.4164 4.41562 32.8698 4.8966C33.3475 5.37757 33.5673 6.08999 33.5673 6.96514V10.9359H32.1234V10.0969C31.684 10.643 31.0109 11.0733 30.0169 11.0733C28.8068 11.0733 27.7291 10.35 27.7291 9.00476L27.7326 9.01199ZM32.1653 8.53102V8.07536C31.7851 7.92347 31.2829 7.80775 30.697 7.80775C29.7414 7.80775 29.1799 8.22725 29.1799 8.9252V8.95052C29.1799 9.59784 29.731 9.96671 30.4424 9.96671C31.4224 9.96671 32.1688 9.38448 32.1688 8.53102H32.1653Z" fill="#261656"/>
<path d="M36.584 4.23842V5.26546C36.999 4.64345 37.5989 4.09739 38.6033 4.09739C40.0611 4.09739 40.9051 5.11358 40.9051 6.66137V10.9395H39.4229V7.1315C39.4229 6.08999 38.9206 5.49329 38.0383 5.49329C37.156 5.49329 36.5805 6.1153 36.5805 7.15681V10.9395H35.0983V4.23842H36.584Z" fill="#261656"/>
<path d="M42.056 7.62694V7.60162C42.056 5.69943 43.4754 4.09739 45.4214 4.09739C46.6316 4.09739 47.3919 4.56751 48.0057 5.251L47.0745 6.27804C46.6212 5.7826 46.1434 5.43905 45.411 5.43905C44.3333 5.43905 43.5382 6.40461 43.5382 7.57269V7.598C43.5382 8.7914 44.3333 9.74249 45.4737 9.74249C46.1713 9.74249 46.6839 9.41341 47.1513 8.91797L48.0441 9.8329C47.4058 10.5706 46.6595 11.0878 45.4005 11.0878C43.4789 11.0878 42.0594 9.52551 42.0594 7.62332L42.056 7.62694Z" fill="#261656"/>
<path d="M48.7137 7.61609V7.59077C48.7137 5.67411 50.0215 4.101 51.8699 4.101C53.9276 4.101 54.9669 5.77537 54.9669 7.70649C54.9669 7.84753 54.9529 7.98495 54.9424 8.13684H50.1924C50.3528 9.22897 51.0992 9.83652 52.0513 9.83652C52.7732 9.83652 53.2859 9.55806 53.802 9.03731L54.6704 9.83652C54.0601 10.5996 53.2126 11.0914 52.0268 11.0914C50.154 11.0914 48.7102 9.68102 48.7102 7.61247L48.7137 7.61609ZM53.4986 7.12065C53.4009 6.12977 52.836 5.35587 51.8594 5.35587C50.9527 5.35587 50.318 6.07914 50.1819 7.12065H53.4986Z" fill="#261656"/>
<path d="M57.6767 4.23842V5.75005C58.0812 4.74833 58.8276 4.06122 59.9645 4.11185V5.73559H59.8773C58.58 5.73559 57.6732 6.61074 57.6732 8.38637V10.9359H56.191V4.23842H57.6767Z" fill="#261656"/>
<path d="M64.7529 3.50431H62.0361V2.05777H68.9868V3.50431H66.27V10.9431H64.7529V3.50431Z" fill="#261656"/>
<path d="M71.6338 1.67444V5.26546C72.0489 4.64345 72.6487 4.09739 73.6531 4.09739C75.1109 4.09739 75.9549 5.11358 75.9549 6.66137V10.9395H74.4727V7.1315C74.4727 6.08999 73.9705 5.49329 73.0882 5.49329C72.2058 5.49329 71.6304 6.1153 71.6304 7.15681V10.9395H70.1481V1.67444H71.6338Z" fill="#261656"/>
<path d="M77.1058 7.61609V7.59077C77.1058 5.67411 78.4136 4.101 80.262 4.101C82.3162 4.101 83.359 5.77537 83.359 7.70649C83.359 7.84753 83.345 7.98495 83.3346 8.13684H78.5845C78.745 9.22897 79.4913 9.83652 80.4434 9.83652C81.1653 9.83652 81.678 9.55806 82.1941 9.03731L83.0625 9.83652C82.4487 10.5996 81.6047 11.0914 80.419 11.0914C78.5462 11.0914 77.1023 9.68102 77.1023 7.61247L77.1058 7.61609ZM81.8907 7.12065C81.7931 6.12977 81.2281 5.35587 80.2516 5.35587C79.3448 5.35587 78.7101 6.07914 78.5741 7.12065H81.8907Z" fill="#261656"/>
<path d="M86.0653 4.23842V5.75005C86.4699 4.74833 87.2162 4.06122 88.3531 4.11185V5.73559H88.266C86.9686 5.73559 86.0618 6.61074 86.0618 8.38637V10.9359H84.5796V4.23842H86.0653Z" fill="#261656"/>
<path d="M88.8553 9.01199V8.98668C88.8553 7.54014 89.9435 6.82772 91.5233 6.82772C92.2452 6.82772 92.7579 6.94345 93.2601 7.10618V6.93983C93.2601 5.98873 92.6951 5.47883 91.6558 5.47883C90.9339 5.47883 90.3934 5.64518 89.8074 5.89832L89.4168 4.69408C90.1283 4.365 90.8258 4.14802 91.8511 4.14802C92.8172 4.14802 93.5391 4.41562 93.9925 4.8966C94.4703 5.37757 94.69 6.08999 94.69 6.96514V10.9359H93.2462V10.0969C92.8067 10.643 92.1336 11.0733 91.1397 11.0733C89.9295 11.0733 88.8519 10.35 88.8519 9.00476L88.8553 9.01199ZM93.288 8.53102V8.07536C92.9079 7.92347 92.4057 7.80775 91.8198 7.80775C90.8642 7.80775 90.3027 8.22725 90.3027 8.9252V8.95052C90.3027 9.59784 90.8537 9.96671 91.5652 9.96671C92.5452 9.96671 93.2915 9.38448 93.2915 8.53102H93.288Z" fill="#261656"/>
<path d="M96.2385 4.23842H97.7207V5.35587C98.1985 4.65792 98.8716 4.101 99.9248 4.101C101.442 4.101 102.924 5.34502 102.924 7.57992V7.60524C102.924 9.82567 101.456 11.0842 99.9248 11.0842C98.8472 11.0842 98.1741 10.5272 97.7207 9.90523V12.9755H96.2385V4.23842ZM101.417 7.60162V7.57631C101.417 6.28166 100.574 5.43182 99.5691 5.43182C98.5647 5.43182 97.6858 6.29612 97.6858 7.57631V7.60162C97.6858 8.8818 98.5682 9.74611 99.5691 9.74611C100.57 9.74611 101.417 8.92158 101.417 7.60162Z" fill="#261656"/>
<path d="M108.441 4.23842H109.983L107.413 11.1312C106.9 12.5018 106.324 13.008 105.282 13.008C104.668 13.008 104.204 12.8562 103.751 12.603L104.253 11.4603C104.521 11.6121 104.818 11.7134 105.121 11.7134C105.536 11.7134 105.794 11.5217 106.038 10.9504L103.346 4.23481H104.936L106.76 9.21089L108.438 4.23481L108.441 4.23842Z" fill="#261656"/>
<path d="M22.0134 15.2213H22.7563L25.9613 22.5661H25.1069L24.2838 20.6385H20.4545L19.6209 22.5661H18.8083L22.0134 15.2213ZM23.9734 19.89L22.3761 16.1796L20.7684 19.89H23.9734Z" fill="#9D0121"/>
<path d="M27.0669 15.2719H29.5081C31.7192 15.2719 33.2468 16.845 33.2468 18.8991V18.9208C33.2468 20.9749 31.7192 22.5661 29.5081 22.5661H27.0669V15.2719ZM27.862 16.0313V21.803H29.5081C31.2868 21.803 32.4202 20.5518 32.4202 18.9389V18.9172C32.4202 17.3043 31.2868 16.0313 29.5081 16.0313H27.862Z" fill="#9D0121"/>
<path d="M33.6967 15.2719H34.5825L37.0831 21.5535L39.5941 15.2719H40.4486L37.4249 22.6167H36.7204L33.6967 15.2719Z" fill="#9D0121"/>
<path d="M41.6099 15.2719H42.4051V22.5661H41.6099V15.2719Z" fill="#9D0121"/>
<path d="M43.6501 21.5028L44.1419 20.8989C44.8743 21.586 45.5788 21.9296 46.5518 21.9296C47.5248 21.9296 48.1177 21.4088 48.1177 20.6892V20.6675C48.1177 19.9912 47.7655 19.6043 46.2902 19.2824C44.672 18.9172 43.9292 18.3747 43.9292 17.1777V17.156C43.9292 16.0096 44.9022 15.167 46.2379 15.167C47.2632 15.167 47.9956 15.4708 48.7106 16.0639L48.2467 16.7004C47.5946 16.1471 46.9424 15.9084 46.217 15.9084C45.3032 15.9084 44.7208 16.4291 44.7208 17.0837V17.1054C44.7208 17.7925 45.0835 18.1794 46.6285 18.523C48.1944 18.8774 48.9198 19.4705 48.9198 20.5843V20.606C48.9198 21.8573 47.9154 22.6673 46.5169 22.6673C45.4009 22.6673 44.4872 22.2804 43.6432 21.4992L43.6501 21.5028Z" fill="#9D0121"/>
<path d="M49.7673 18.9389V18.9172C49.7673 16.9065 51.2251 15.1453 53.363 15.1453C55.5008 15.1453 56.9412 16.8848 56.9412 18.8955V18.9172C56.9412 20.9279 55.4834 22.689 53.3455 22.689C51.2077 22.689 49.7673 20.9495 49.7673 18.9389ZM56.1181 18.9389V18.9172C56.1181 17.2609 54.9533 15.9048 53.3455 15.9048C51.7378 15.9048 50.5939 17.2392 50.5939 18.8955V18.9172C50.5939 20.5735 51.7587 21.9296 53.3665 21.9296C54.9742 21.9296 56.1181 20.5951 56.1181 18.9389Z" fill="#9D0121"/>
<path d="M58.256 15.2719H61.2797C62.1446 15.2719 62.8351 15.5431 63.2781 16.0024C63.6198 16.3568 63.8221 16.8667 63.8221 17.4417V17.4634C63.8221 18.6713 63.02 19.3801 61.9144 19.5898L64.0732 22.5697H63.1002L61.06 19.7345H59.0512V22.5697H58.256V15.2719ZM61.2099 18.9931C62.2632 18.9931 63.02 18.429 63.02 17.4923V17.4706C63.02 16.5738 62.3573 16.0313 61.2204 16.0313H59.0512V18.9895H61.2134L61.2099 18.9931Z" fill="#9D0121"/>
<path d="M9.64278 3.74302C10.4066 3.74302 11.0273 3.09931 11.0273 2.30733C11.0273 1.51535 10.4066 0.871643 9.64278 0.871643C8.87901 0.871643 8.25823 1.51535 8.25823 2.30733C8.25823 3.09931 8.87901 3.74302 9.64278 3.74302Z" fill="url(#paint0_linear_9_608)"/>
<path d="M13.4407 10.7406C13.2454 9.55086 11.4737 8.5419 7.50492 6.60354C7.82926 6.25637 8.15012 5.91282 8.47446 5.5765C8.77439 5.2655 8.77439 4.75921 8.47446 4.4482C8.17453 4.1372 7.68627 4.1372 7.38634 4.4482C7.37588 4.45905 6.82834 5.02682 6.04364 5.88751C4.1499 4.95811 1.81324 3.75025 1.53424 3.17525C1.45751 2.80277 1.14015 2.54239 0.780931 2.54239C0.73908 2.54239 0.693742 2.54601 0.651891 2.55324C0.229898 2.6328 -0.0491055 3.04506 0.0206454 3.47902C0.19851 4.56031 1.68421 5.49694 4.94157 7.11706C4.52656 7.58719 4.09061 8.08986 3.65816 8.60699C0.226411 12.6898 -0.104906 14.0315 0.0206454 14.8018C0.21246 15.9662 1.91787 16.9607 5.71581 18.8232C5.53097 19.0076 4.07666 20.5264 3.88485 20.7109C3.57794 21.0147 3.56399 21.5209 3.85695 21.8392C4.1499 22.1574 4.63816 22.1719 4.94506 21.8681C5.23104 21.586 6.8388 19.9189 7.20499 19.5464C9.13012 20.4903 11.6377 21.7669 11.9271 22.3635C12.0039 22.736 12.3212 22.9964 12.6804 22.9964C12.7223 22.9964 12.7676 22.9928 12.8095 22.9856C13.228 22.9132 13.5105 22.4974 13.4372 22.0634C13.2559 20.964 11.7249 20.0165 8.35937 18.3458C10.7937 15.7673 13.6988 12.3065 13.4372 10.737L13.4407 10.7406ZM6.88065 17.6298C4.9346 16.6859 1.89346 15.1923 1.53773 14.5197C1.55865 13.6771 3.79417 10.7442 6.39239 7.82948C6.39239 7.82948 6.39937 7.82948 6.40286 7.8331C8.33496 8.77334 11.554 10.3356 11.9202 11.0299C11.8992 11.7532 9.94969 14.4076 6.88065 17.6298Z" fill="url(#paint1_linear_9_608)"/>
</g>
<defs>
<linearGradient id="paint0_linear_9_608" x1="7.9285" y1="38.5424" x2="6.41646" y2="214.152" gradientUnits="userSpaceOnUse">
<stop stop-color="#E5214E"/>
<stop offset="1" stop-color="#9D0121"/>
</linearGradient>
<linearGradient id="paint1_linear_9_608" x1="7.14266" y1="5.74566" x2="7.01891" y2="28.5375" gradientUnits="userSpaceOnUse">
<stop stop-color="#E5214E"/>
<stop offset="1" stop-color="#9D0121"/>
</linearGradient>
<clipPath id="clip0_9_608">
<rect width="109.987" height="22.1284" fill="white" transform="translate(0 0.871643)"/>
</clipPath>
</defs>
</svg>
