<svg width="110" height="31" viewBox="0 0 110 31" fill="none" xmlns="http://www.w3.org/2000/svg">
<path d="M2.72204 28.045C2.71416 28.0368 2.70153 28.0313 2.68733 28.0313H2.61634C2.58952 28.0313 2.56428 28.0491 2.55954 28.0724L2.24874 29.6072C2.24559 29.6196 2.24874 29.6305 2.25821 29.6388C2.2661 29.647 2.27872 29.6525 2.29292 29.6525H2.36391C2.39073 29.6525 2.41598 29.6347 2.42071 29.6113L2.73151 28.0765C2.73466 28.0656 2.73151 28.0532 2.72204 28.045ZM3.9337 28.045C3.92581 28.0368 3.91319 28.0313 3.89899 28.0313H3.82799C3.80117 28.0313 3.77593 28.0491 3.7712 28.0724L3.5093 29.3645L3.18903 28.071C3.1843 28.0477 3.15906 28.0299 3.13066 28.0299H3.02338C2.99656 28.0299 2.97132 28.0477 2.96658 28.071L2.6542 29.6059C2.65263 29.6182 2.6542 29.6292 2.66367 29.6374C2.67156 29.6456 2.68418 29.6511 2.69838 29.6511H2.76937C2.79619 29.6511 2.82144 29.6333 2.82617 29.61L3.08806 28.3207L3.41464 29.61C3.41937 29.6333 3.4462 29.6511 3.47302 29.6511H3.57556C3.60238 29.6511 3.62763 29.6333 3.63236 29.61L3.94316 28.0752C3.94474 28.0642 3.94316 28.0518 3.9337 28.0436M5.51768 28.7294H5.03176C5.03176 28.7294 5.02071 28.728 5.01756 28.7253C5.0144 28.7212 5.01282 28.7171 5.0144 28.7116L5.11853 28.2C5.12011 28.1876 5.1343 28.178 5.1485 28.178H5.69122C5.71804 28.178 5.74329 28.1602 5.74802 28.1369L5.76064 28.0765C5.7638 28.0656 5.76064 28.0532 5.75117 28.045C5.74329 28.0368 5.73066 28.0313 5.71647 28.0313H5.0286C5.00178 28.0313 4.97654 28.0491 4.9718 28.0724L4.65942 29.6072C4.65785 29.6196 4.65943 29.6305 4.66889 29.6388C4.67678 29.647 4.6894 29.6525 4.7036 29.6525H5.40251C5.42933 29.6525 5.45457 29.6347 5.4593 29.6113L5.47193 29.551C5.47508 29.54 5.47193 29.5277 5.46246 29.5194C5.45457 29.5112 5.44195 29.5057 5.42775 29.5057H4.87399C4.87399 29.5057 4.86294 29.5044 4.85979 29.5016C4.85663 29.4975 4.85506 29.4934 4.85663 29.4893L4.97654 28.9009C4.97969 28.8885 4.99231 28.8789 5.00651 28.8789H5.49244C5.51926 28.8789 5.5445 28.8611 5.54923 28.8378L5.56185 28.7774C5.56343 28.7664 5.56185 28.7541 5.55239 28.7459C5.5445 28.7376 5.53188 28.7321 5.51768 28.7321M29.0345 28.7321H28.5485C28.5485 28.7321 28.5375 28.7308 28.5343 28.728C28.5312 28.7239 28.5296 28.7198 28.5312 28.7143L28.6353 28.2027C28.6369 28.1904 28.6511 28.1808 28.6653 28.1808H29.208C29.2348 28.1808 29.2601 28.1629 29.2648 28.1396L29.2774 28.0793C29.279 28.0683 29.2774 28.056 29.268 28.0477C29.2601 28.0395 29.2474 28.034 29.2333 28.034H28.5454C28.5186 28.034 28.4933 28.0518 28.4886 28.0752L28.1778 29.61C28.1762 29.6223 28.1778 29.6333 28.1873 29.6415C28.1951 29.6497 28.2078 29.6552 28.222 29.6552H28.9209C28.9477 29.6552 28.9729 29.6374 28.9777 29.6141L28.9903 29.5537C28.9919 29.5428 28.9903 29.5304 28.9808 29.5222C28.9714 29.514 28.9603 29.5085 28.9461 29.5085H28.3924C28.3924 29.5085 28.3813 29.5071 28.3782 29.5044C28.375 29.5002 28.3734 29.4961 28.3734 29.492L28.4933 28.9036C28.4965 28.8913 28.5091 28.8817 28.5233 28.8817H29.0092C29.036 28.8817 29.0613 28.8638 29.066 28.8405L29.0786 28.7802C29.0818 28.7692 29.0786 28.7568 29.0692 28.7486C29.0597 28.7404 29.0471 28.7349 29.0345 28.7349M6.38224 27.997C5.93261 27.997 5.78746 28.4551 5.71647 28.7994C5.66282 29.0613 5.59025 29.4207 5.75906 29.5963C5.82217 29.6621 5.91683 29.695 6.03673 29.695C6.38382 29.695 6.5905 29.3987 6.64256 29.1052L6.64571 29.0915H6.52108C6.49899 29.0915 6.47533 29.1052 6.46586 29.1231C6.41537 29.3219 6.30652 29.5482 6.07775 29.5482C6.00045 29.5482 5.94365 29.5277 5.90263 29.4852C5.77642 29.3535 5.83952 29.0449 5.87739 28.8597L5.88685 28.8117C5.93103 28.595 6.02096 28.1424 6.35227 28.1424C6.42326 28.1424 6.4769 28.1616 6.51635 28.1986C6.58734 28.2686 6.59207 28.3893 6.58103 28.4866C6.58734 28.5045 6.60627 28.5182 6.62994 28.5182H6.74984V28.5086C6.78613 28.3371 6.75457 28.1917 6.66622 28.0998C6.59996 28.0313 6.50372 27.9956 6.38224 27.9956M7.7911 28.1396L7.80373 28.0793C7.80688 28.0683 7.80373 28.056 7.79426 28.0477C7.78637 28.0395 7.77375 28.034 7.75955 28.034H6.92654C6.89972 28.034 6.87448 28.0518 6.86974 28.0752L6.85712 28.1355C6.85397 28.1479 6.85712 28.1588 6.86659 28.1671C6.87448 28.1753 6.8871 28.1808 6.9013 28.1808H7.20894C7.20894 28.1808 7.21999 28.1835 7.22314 28.1863C7.2263 28.189 7.22788 28.1945 7.2263 28.1986L6.93916 29.61C6.93758 29.6223 6.93916 29.6333 6.94863 29.6415C6.95652 29.6497 6.96914 29.6552 6.98334 29.6552H7.05591C7.08273 29.6552 7.10797 29.6374 7.11271 29.6141L7.39984 28.2027C7.40142 28.1904 7.41562 28.1808 7.42982 28.1808H7.73746C7.76428 28.1808 7.78953 28.1629 7.79426 28.1396M8.06089 28.034H7.98831C7.96149 28.034 7.93625 28.0518 7.93152 28.0752L7.62072 29.61C7.61756 29.6223 7.62072 29.6333 7.63018 29.6415C7.63807 29.6497 7.65069 29.6552 7.66489 29.6552H7.73589C7.76271 29.6552 7.78795 29.6374 7.79268 29.6141L8.10348 28.0793C8.10506 28.0683 8.10348 28.056 8.09402 28.0477C8.08613 28.0395 8.07351 28.034 8.05931 28.034M9.12266 28.0971C9.05798 28.0299 8.96016 27.9956 8.83552 27.9956C8.38431 27.9956 8.23916 28.4537 8.16817 28.798C8.11768 29.0449 8.04195 29.4179 8.21234 29.5949C8.27545 29.6607 8.37011 29.6936 8.49001 29.6936C9.00118 29.6936 9.10846 29.1642 9.16526 28.8803C9.21732 28.6224 9.28989 28.2699 9.12108 28.0971M8.9996 28.8405L8.99487 28.8693C8.94596 29.1066 8.85919 29.5482 8.52788 29.5482C8.45057 29.5482 8.39378 29.5277 8.35276 29.4852C8.22654 29.3535 8.28965 29.0449 8.32751 28.8597L8.33225 28.835C8.378 28.6114 8.47266 28.1437 8.80239 28.1437C8.87654 28.1437 8.93176 28.1643 8.97278 28.2068C9.10215 28.3412 9.03747 28.6677 9.00118 28.8419M10.4432 28.0354H10.3722C10.3454 28.0354 10.3201 28.0532 10.3154 28.0765L10.0535 29.3686L9.73322 28.0752C9.72849 28.0518 9.70167 28.034 9.67485 28.034H9.56756C9.54074 28.034 9.5155 28.0518 9.51077 28.0752L9.19997 29.61C9.19681 29.6223 9.19997 29.6333 9.20943 29.6415C9.21732 29.6497 9.22994 29.6552 9.24414 29.6552H9.31514C9.34196 29.6552 9.3672 29.6374 9.37193 29.6141L9.63383 28.3248L9.95883 29.6141C9.96514 29.6374 9.99038 29.6552 10.0172 29.6552H10.1213C10.1481 29.6552 10.1734 29.6374 10.1781 29.6141L10.4889 28.0793C10.4921 28.0683 10.4889 28.056 10.4795 28.0477C10.4716 28.0395 10.4589 28.034 10.4447 28.034M4.75251 28.0793C4.75566 28.0669 4.75251 28.056 4.74304 28.0477C4.73515 28.0395 4.72253 28.034 4.70833 28.034H4.63734C4.61052 28.034 4.58527 28.0518 4.58054 28.0752L4.45275 28.7075L4.33442 29.2931C4.3076 29.4275 4.26974 29.5482 4.1104 29.5482C4.05991 29.5482 4.02205 29.5359 3.99838 29.5112C3.95578 29.4673 3.95894 29.3864 3.97156 29.3055C3.97629 29.2739 3.9826 29.2438 3.98891 29.215L3.99207 29.1999C3.99207 29.1916 3.99207 29.1861 3.98576 29.1807C3.97787 29.1724 3.96209 29.1669 3.94474 29.1669H3.87374C3.84692 29.1669 3.82168 29.1848 3.81695 29.2081L3.80117 29.2876C3.80117 29.2931 3.80117 29.2986 3.79802 29.3055C3.77593 29.4481 3.79802 29.5565 3.86112 29.6223C3.91003 29.6717 3.97945 29.6964 4.07253 29.6964C4.31076 29.6964 4.45275 29.5688 4.50481 29.3068L4.69098 28.3893L4.75409 28.082L4.75251 28.0793ZM11.6801 28.7335H11.1941C11.1941 28.7335 11.1831 28.7321 11.1799 28.7294C11.1768 28.7253 11.1752 28.7212 11.1768 28.7157L11.2809 28.2041C11.2825 28.1917 11.2967 28.1821 11.3109 28.1821H11.8647C11.8915 28.1821 11.9167 28.1643 11.9215 28.141L11.9341 28.0806C11.9372 28.0697 11.9341 28.0573 11.9246 28.0491C11.9167 28.0409 11.9041 28.0354 11.8899 28.0354H11.191C11.1642 28.0354 11.1389 28.0532 11.1342 28.0765L10.8234 29.6113C10.8202 29.6237 10.8234 29.6347 10.8329 29.6429C10.8407 29.6511 10.8534 29.6566 10.8676 29.6566H10.9401C10.967 29.6566 10.9922 29.6388 10.9969 29.6155L11.1421 28.9022C11.1437 28.8899 11.1579 28.8803 11.1721 28.8803H11.658C11.6848 28.8803 11.71 28.8625 11.7148 28.8391L11.7274 28.7788C11.7306 28.7678 11.7274 28.7555 11.7179 28.7472C11.71 28.739 11.6974 28.7335 11.6832 28.7335M12.8223 28.0971C12.7576 28.0299 12.6598 27.9956 12.5336 27.9956C12.0824 27.9956 11.9356 28.4537 11.8662 28.798C11.8173 29.0449 11.74 29.4179 11.9104 29.5949C11.9735 29.6607 12.0682 29.6936 12.1881 29.6936C12.6992 29.6936 12.8065 29.1642 12.8633 28.8803C12.9154 28.6224 12.988 28.2699 12.8207 28.0971M12.6992 28.8405L12.6945 28.8679C12.6472 29.1052 12.5588 29.5469 12.2275 29.5469C12.1502 29.5469 12.0934 29.5263 12.0524 29.4838C11.9262 29.3521 11.9893 29.0435 12.0272 28.8597L12.0319 28.835C12.0776 28.6114 12.1723 28.1437 12.502 28.1437C12.5762 28.1437 12.6314 28.1643 12.6724 28.2068C12.8034 28.3426 12.7371 28.6677 12.7008 28.8419M13.548 28.0354H13.2609C13.2341 28.0354 13.2088 28.0532 13.2041 28.0765L13.1962 28.119L13.1883 28.1575L12.8933 29.6113C12.8917 29.6237 12.8933 29.6347 12.9028 29.6429C12.9107 29.6511 12.9233 29.6566 12.9375 29.6566H13.01C13.0369 29.6566 13.0621 29.6388 13.0668 29.6155L13.1426 29.241L13.2073 28.9255C13.2104 28.9132 13.223 28.9036 13.2372 28.9036H13.3508C13.4597 28.9036 13.5717 28.9077 13.6269 28.9626C13.6616 28.9969 13.6742 29.0476 13.6648 29.1189C13.6616 29.1436 13.6569 29.1765 13.6506 29.2122C13.6269 29.3507 13.5969 29.54 13.6253 29.647L13.6285 29.6566H13.761C13.7878 29.6566 13.8115 29.6443 13.8147 29.6278V29.6209L13.8083 29.6168C13.7531 29.5853 13.7926 29.3713 13.8099 29.2794C13.8131 29.2575 13.8162 29.2396 13.8194 29.2273C13.8525 29.0545 13.8667 28.8954 13.6979 28.8336C13.6979 28.8336 13.7011 28.8336 13.7026 28.8309C13.7216 28.8254 13.7405 28.8172 13.7563 28.809C13.7594 28.809 13.761 28.8062 13.7642 28.8048C13.7721 28.8007 13.7799 28.7939 13.7878 28.7898C13.7957 28.7843 13.8036 28.7802 13.8115 28.7747L13.8178 28.7692C13.832 28.7582 13.8462 28.7445 13.8588 28.7308C13.8604 28.728 13.862 28.7267 13.8636 28.7253C13.8762 28.7116 13.8888 28.6965 13.8999 28.6814C13.8999 28.68 13.903 28.6773 13.903 28.6759C13.9141 28.6595 13.9251 28.6444 13.933 28.6279C13.933 28.6265 13.9346 28.6238 13.9361 28.6224C13.9456 28.606 13.9535 28.5881 13.9614 28.5703C13.9614 28.5703 13.9614 28.5676 13.9614 28.5662C13.9693 28.5484 13.9756 28.5305 13.9803 28.5127C13.9803 28.5127 13.9803 28.5113 13.9803 28.51C13.985 28.4921 13.9898 28.4743 13.9945 28.4565C14.0229 28.3152 14.004 28.2123 13.9377 28.1424C13.8667 28.0683 13.7421 28.034 13.5465 28.034M13.821 28.4633C13.7831 28.6471 13.6616 28.7143 13.5812 28.7404C13.5764 28.7404 13.5717 28.7431 13.567 28.7445C13.567 28.7445 13.567 28.7445 13.5654 28.7445C13.5449 28.75 13.5259 28.7527 13.5102 28.7541C13.4897 28.7541 13.4581 28.7555 13.4392 28.7555H13.2577C13.2577 28.7555 13.2467 28.7541 13.2435 28.75C13.2404 28.7472 13.2388 28.7417 13.2404 28.7376L13.2909 28.4866L13.3492 28.2027C13.3524 28.1904 13.365 28.1808 13.3792 28.1808H13.5528C13.6774 28.1808 13.75 28.2 13.791 28.2425C13.832 28.285 13.8415 28.3563 13.821 28.4647M14.9222 28.0491C14.9143 28.0409 14.9017 28.0354 14.8875 28.0354H14.8149C14.7881 28.0354 14.7628 28.0532 14.7581 28.0765L14.4473 29.6113C14.4457 29.6237 14.4473 29.6347 14.4568 29.6429C14.4647 29.6511 14.4773 29.6566 14.4915 29.6566H14.5625C14.5893 29.6566 14.6145 29.6388 14.6193 29.6155L14.9301 28.0806C14.9332 28.0697 14.9301 28.0573 14.9206 28.0491M16.0912 28.0354H16.0202C15.9934 28.0354 15.9682 28.0532 15.9634 28.0765L15.7016 29.3699L15.3813 28.0765C15.375 28.0532 15.3497 28.0354 15.3229 28.0354H15.2156C15.1888 28.0354 15.1636 28.0532 15.1588 28.0765L14.848 29.6113C14.8449 29.6237 14.848 29.6347 14.8575 29.6429C14.8654 29.6511 14.878 29.6566 14.8922 29.6566H14.9648C14.9916 29.6566 15.0168 29.6388 15.0216 29.6155L15.2835 28.3262L15.6085 29.6155C15.6132 29.6388 15.6384 29.6566 15.6668 29.6566H15.7694C15.7962 29.6566 15.8215 29.6388 15.8262 29.6155L16.137 28.0806C16.1386 28.0697 16.137 28.0573 16.1275 28.0491C16.1196 28.0409 16.107 28.0354 16.0928 28.0354M17.1577 28.141L17.1704 28.0806C17.1719 28.0697 17.1704 28.0573 17.1609 28.0491C17.153 28.0409 17.1404 28.0354 17.1262 28.0354H16.2932C16.2664 28.0354 16.2411 28.0532 16.2364 28.0765L16.2238 28.1369C16.2206 28.1492 16.2238 28.1602 16.2332 28.1684C16.2411 28.1767 16.2537 28.1821 16.2679 28.1821H16.5756C16.5756 28.1821 16.5866 28.1849 16.5898 28.1876C16.5929 28.1904 16.5945 28.1959 16.5929 28.2L16.3058 29.6113C16.3026 29.6237 16.3058 29.6347 16.3153 29.6429C16.3232 29.6511 16.3358 29.6566 16.35 29.6566H16.421C16.4478 29.6566 16.473 29.6388 16.4778 29.6155L16.7649 28.2041C16.7681 28.1917 16.7807 28.1821 16.7949 28.1821H17.1025C17.1293 28.1821 17.1546 28.1643 17.1593 28.141M18.8269 28.0354H18.7323C18.707 28.0354 18.6786 28.0518 18.6692 28.0724L17.9229 29.6113C17.9182 29.6223 17.9182 29.6347 17.9245 29.6429C17.9308 29.6511 17.9434 29.6566 17.9576 29.6566H18.0255C18.0507 29.6566 18.0791 29.6401 18.0886 29.6196L18.2968 29.1861C18.3031 29.1738 18.3205 29.1628 18.3363 29.1628H18.7733C18.7875 29.1628 18.7985 29.1724 18.7985 29.1848L18.8269 29.6127C18.8269 29.636 18.8522 29.6552 18.879 29.6552H18.9531C18.9673 29.6552 18.98 29.6511 18.9878 29.6415C18.9973 29.6333 19.002 29.6223 19.0005 29.61L18.879 28.0752C18.8774 28.0518 18.8537 28.0326 18.8253 28.0326M18.7812 29.0092C18.7812 29.0092 18.7717 29.0147 18.7654 29.0147H18.3915C18.3915 29.0147 18.382 29.0133 18.3804 29.0106C18.3804 29.0078 18.3804 29.0051 18.3804 29.001L18.7338 28.2617L18.7859 28.9955C18.7859 28.9955 18.7859 29.0065 18.7812 29.0092ZM20.2058 28.0464C20.1995 28.0381 20.1869 28.0326 20.1727 28.0326H20.1048C20.0796 28.0326 20.0512 28.0491 20.0417 28.0697L19.4012 29.4179L19.316 28.0752C19.316 28.0518 19.2908 28.0326 19.2639 28.0326H19.1851C19.1709 28.0326 19.1582 28.0368 19.1488 28.0464C19.1409 28.0546 19.1361 28.0656 19.1361 28.0779L19.2576 29.6113C19.2592 29.6347 19.2829 29.6539 19.3113 29.6539H19.4012C19.4264 29.6539 19.4548 29.6374 19.4643 29.6168L20.2058 28.0779C20.2121 28.0669 20.2105 28.0546 20.2058 28.0464ZM20.8495 28.7321H20.3636C20.3636 28.7321 20.3525 28.7308 20.3494 28.728C20.3462 28.7239 20.3446 28.7198 20.3462 28.7143L20.4503 28.2027C20.4535 28.1904 20.4661 28.1808 20.4803 28.1808H21.023C21.0499 28.1808 21.0751 28.1629 21.0798 28.1396L21.0925 28.0793C21.094 28.0683 21.0925 28.056 21.083 28.0477C21.0751 28.0395 21.0625 28.034 21.0483 28.034H20.3604C20.3336 28.034 20.3084 28.0518 20.3036 28.0752L19.9928 29.61C19.9912 29.6223 19.9928 29.6333 20.0023 29.6415C20.0102 29.6497 20.0228 29.6552 20.037 29.6552H20.7359C20.7627 29.6552 20.788 29.6374 20.7927 29.6141L20.8053 29.5537C20.8085 29.5414 20.8053 29.5304 20.7959 29.5222C20.788 29.514 20.7753 29.5085 20.7611 29.5085H20.2074C20.2074 29.5085 20.1963 29.5071 20.1932 29.5044C20.19 29.5002 20.1885 29.4961 20.19 29.492L20.3099 28.9036C20.3131 28.8913 20.3273 28.8817 20.3399 28.8817H20.8274C20.8542 28.8817 20.8779 28.8638 20.8842 28.8405L20.8968 28.7802C20.9 28.7692 20.8968 28.7568 20.8874 28.7486C20.8795 28.7404 20.8669 28.7349 20.8527 28.7349M22.2426 28.0491C22.2347 28.0409 22.2221 28.0354 22.2079 28.0354H22.1369C22.1101 28.0354 22.0848 28.0532 22.0801 28.0765L21.8182 29.3699L21.4979 28.0765C21.4916 28.0532 21.4664 28.0354 21.4395 28.0354H21.3323C21.3054 28.0354 21.2802 28.0532 21.2755 28.0765L20.9631 29.6113C20.9615 29.6237 20.9631 29.6347 20.9726 29.6429C20.9804 29.6511 20.9931 29.6566 21.0073 29.6566H21.0798C21.1067 29.6566 21.1319 29.6388 21.1366 29.6155L21.3985 28.3262L21.7235 29.6155C21.7298 29.6388 21.7551 29.6566 21.7819 29.6566H21.8845C21.9113 29.6566 21.9365 29.6388 21.9412 29.6155L22.2536 28.0806C22.2552 28.0697 22.2536 28.0573 22.2442 28.0491M22.9573 27.997C22.5061 27.997 22.3609 28.4551 22.2899 28.7994C22.2394 29.0462 22.1637 29.4193 22.3341 29.5963C22.3972 29.6621 22.4919 29.695 22.6133 29.695C23.1245 29.695 23.2302 29.1656 23.2886 28.8817C23.3406 28.6238 23.4116 28.2713 23.2444 28.0985C23.1797 28.0313 23.0835 27.997 22.9557 27.997M23.1229 28.8419L23.1182 28.8707C23.0709 29.108 22.9825 29.5496 22.6512 29.5496C22.5755 29.5496 22.5171 29.529 22.4761 29.4865C22.3483 29.3549 22.413 29.0462 22.4493 28.8625L22.454 28.8378C22.4997 28.6142 22.5944 28.1465 22.9241 28.1465C22.9983 28.1465 23.0535 28.1671 23.0929 28.2096C23.2239 28.344 23.1576 28.6704 23.1213 28.8446M17.8141 28.8131C17.8141 28.8131 17.8188 28.8103 17.8219 28.809C17.8298 28.8048 17.8377 28.798 17.8456 28.7939C17.8535 28.7884 17.8614 28.7843 17.8693 28.7788C17.8709 28.7774 17.874 28.7747 17.8756 28.7733C17.8914 28.7623 17.904 28.7486 17.9182 28.7349C17.9198 28.7322 17.9213 28.7308 17.9229 28.7294C17.9355 28.7157 17.9482 28.7006 17.9592 28.6855C17.9592 28.6841 17.9624 28.6814 17.9624 28.68C17.9734 28.6636 17.9829 28.6485 17.9923 28.632C17.9923 28.6307 17.9939 28.6279 17.9955 28.6265C18.005 28.6101 18.0128 28.5922 18.0207 28.5744C18.0207 28.5744 18.0207 28.5717 18.0207 28.5703C18.0286 28.5525 18.0349 28.5346 18.0397 28.5168C18.0397 28.5168 18.0397 28.5154 18.0397 28.5141C18.0444 28.4962 18.0491 28.4784 18.0539 28.4606C18.0823 28.3193 18.0649 28.2164 17.9971 28.1465C17.9261 28.0724 17.8014 28.0381 17.6058 28.0381H17.3171C17.2903 28.0381 17.265 28.056 17.2603 28.0793L17.2508 28.1218L17.2429 28.1602L16.9479 29.6141C16.9463 29.6264 16.9479 29.6374 16.9574 29.6456C16.9653 29.6539 16.9779 29.6593 16.9921 29.6593H17.0631C17.0899 29.6593 17.1151 29.6415 17.1199 29.6182L17.1956 29.2438L17.2603 28.9283C17.2619 28.9159 17.2761 28.9063 17.2903 28.9063H17.4039C17.5127 28.9063 17.6247 28.9105 17.68 28.9653C17.7147 28.9996 17.7273 29.0504 17.7178 29.1217C17.7147 29.1464 17.7099 29.1793 17.7036 29.215C17.6815 29.3535 17.65 29.5428 17.6784 29.6497L17.6815 29.6593H17.8141C17.8409 29.6593 17.8645 29.647 17.8677 29.6305V29.6237L17.8614 29.6196C17.8062 29.588 17.8456 29.3741 17.863 29.2822C17.8677 29.2602 17.8709 29.2424 17.8724 29.23C17.9056 29.0572 17.9198 28.8981 17.751 28.8364C17.751 28.8364 17.7541 28.8364 17.7557 28.8336C17.7746 28.8282 17.7935 28.8199 17.8093 28.8117M17.6374 28.7431C17.6374 28.7431 17.6279 28.7459 17.6232 28.7472C17.6232 28.7472 17.6232 28.7472 17.6216 28.7472C17.6011 28.7527 17.5821 28.7555 17.5664 28.7568C17.5459 28.7568 17.5159 28.7582 17.4954 28.7582H17.3139C17.3139 28.7582 17.3029 28.7568 17.2997 28.7527C17.2966 28.75 17.295 28.7445 17.2966 28.7404L17.3471 28.4894L17.4054 28.2055C17.4086 28.1931 17.4212 28.1835 17.4354 28.1835H17.609C17.7336 28.1835 17.8062 28.2027 17.8472 28.2452C17.8882 28.2878 17.8977 28.3591 17.8756 28.4674C17.8377 28.6512 17.7162 28.7184 17.6374 28.7445M24.5507 28.0518C24.5428 28.0436 24.5302 28.0381 24.516 28.0381H24.445C24.4182 28.0381 24.393 28.056 24.3882 28.0793L24.1626 29.1944C24.1247 29.3795 24.0522 29.551 23.7808 29.551C23.6846 29.551 23.6215 29.5318 23.5836 29.4934C23.5363 29.444 23.5284 29.359 23.5584 29.2108L23.7871 28.0834C23.7903 28.0724 23.7871 28.0601 23.7777 28.0518C23.7698 28.0436 23.7571 28.0381 23.7429 28.0381H23.672C23.6451 28.0381 23.6199 28.056 23.6152 28.0793L23.3832 29.2246C23.3485 29.396 23.369 29.5181 23.4448 29.5976C23.5095 29.6648 23.6152 29.6977 23.7603 29.6977C24.0869 29.6977 24.2667 29.5332 24.3409 29.1642L24.5602 28.0834C24.5633 28.0724 24.5602 28.0601 24.5507 28.0518ZM25.1928 27.9997C24.9199 27.9997 24.7085 28.1767 24.6533 28.451C24.6028 28.702 24.7274 28.8048 24.9593 28.9009C24.9783 28.9077 24.9972 28.9159 25.0146 28.9228C25.1739 28.9845 25.3001 29.0325 25.2575 29.2396C25.2197 29.4303 25.0666 29.5524 24.8678 29.5524C24.7858 29.5524 24.7243 29.5304 24.6832 29.4893C24.628 29.4317 24.6122 29.337 24.6359 29.215C24.628 29.1985 24.6107 29.1861 24.5886 29.1861H24.4718L24.4687 29.1957C24.4308 29.3617 24.4576 29.5016 24.5413 29.5908C24.6091 29.6621 24.7132 29.7005 24.8442 29.7005C25.1439 29.7005 25.3743 29.5194 25.4311 29.241C25.491 28.9434 25.3127 28.8666 25.0855 28.7678L24.9988 28.7308L24.9656 28.7171C24.8268 28.6553 24.7953 28.595 24.8252 28.4482C24.8631 28.2631 24.9925 28.1479 25.1644 28.1479C25.2417 28.1479 25.3048 28.1698 25.3427 28.2123C25.3885 28.2617 25.4011 28.3358 25.3806 28.4235C25.39 28.4386 25.409 28.4482 25.4295 28.4482H25.5447V28.4386C25.5778 28.3028 25.5541 28.1849 25.4784 28.1053C25.4137 28.0368 25.3143 27.9997 25.1913 27.9997M27.1775 28.0518C27.1681 28.0436 27.1555 28.0381 27.1428 28.0381H27.0703C27.0434 28.0381 27.0182 28.056 27.0135 28.0793L26.7879 29.1944C26.75 29.3795 26.6774 29.551 26.4061 29.551C26.3114 29.551 26.2467 29.5318 26.2089 29.4934C26.1615 29.444 26.1536 29.359 26.1836 29.2108L26.4124 28.0834C26.4155 28.0724 26.4124 28.0601 26.4029 28.0518C26.395 28.0436 26.3824 28.0381 26.3682 28.0381H26.2956C26.2688 28.0381 26.2451 28.056 26.2388 28.0793L26.0069 29.2246C25.9722 29.396 25.9927 29.5181 26.0684 29.5976C26.1331 29.6648 26.2388 29.6977 26.384 29.6977C26.7106 29.6977 26.8904 29.5332 26.9646 29.1642L27.1839 28.0834C27.187 28.0724 27.1839 28.0601 27.176 28.0518M27.736 28.7664L27.6493 28.7294L27.6161 28.7157C27.4789 28.654 27.4473 28.5936 27.4757 28.4469C27.5136 28.2617 27.643 28.1465 27.8149 28.1465C27.8938 28.1465 27.9538 28.1684 27.9932 28.2109C28.0374 28.2603 28.0516 28.3344 28.0311 28.4222C28.0405 28.4373 28.0595 28.4469 28.08 28.4469H28.1951V28.4373C28.2283 28.3015 28.2046 28.1835 28.1289 28.104C28.0626 28.0354 27.9648 27.9983 27.8417 27.9983C27.5688 27.9983 27.3574 28.1753 27.3022 28.4496C27.2517 28.7006 27.3763 28.8035 27.6082 28.8995C27.6272 28.9063 27.6461 28.9146 27.6635 28.9214C27.8228 28.9832 27.9474 29.0312 27.9064 29.2383C27.8686 29.4289 27.7155 29.551 27.5152 29.551C27.4331 29.551 27.3716 29.529 27.3306 29.4879C27.2754 29.4303 27.2596 29.3356 27.2832 29.2136C27.2754 29.1971 27.2564 29.1848 27.2359 29.1848H27.1192L27.116 29.1944C27.0797 29.3603 27.105 29.5002 27.1886 29.5894C27.2564 29.6607 27.3606 29.6991 27.4915 29.6991C27.7913 29.6991 28.0216 29.5181 28.0784 29.2396C28.1383 28.942 27.9601 28.8652 27.7345 28.7664" fill="#064264"/>
<path d="M32.9655 28.4881C32.9261 28.447 32.8598 28.4251 32.773 28.4251C32.6484 28.4251 32.5379 28.4689 32.4559 28.5512C32.4022 28.4347 32.3202 28.4251 32.2176 28.4251C32.1151 28.4251 32.0141 28.4676 31.9415 28.5389C31.9431 28.5279 31.9462 28.5183 31.9462 28.5101L31.951 28.484C31.9541 28.4689 31.9415 28.4552 31.9226 28.4552H31.8358C31.8169 28.4552 31.7995 28.4689 31.7963 28.484L31.5644 29.6238C31.5612 29.6403 31.5739 29.6526 31.5928 29.6526H31.6796C31.6985 29.6526 31.7159 29.6389 31.719 29.6238L31.8674 28.8914L31.8973 28.7474C31.9178 28.6486 32.0662 28.5554 32.1656 28.5554C32.2161 28.5554 32.2524 28.5663 32.2744 28.5883C32.3155 28.6308 32.3028 28.7145 32.2886 28.7899L32.1198 29.6238C32.1167 29.6403 32.1293 29.6526 32.1466 29.6526H32.2334C32.2508 29.6526 32.2697 29.6389 32.2729 29.6238L32.4433 28.7858C32.4717 28.6445 32.5853 28.5526 32.7336 28.5526C32.7746 28.5526 32.8062 28.5636 32.8267 28.5855C32.8567 28.6171 32.8646 28.6706 32.8519 28.7391L32.6721 29.6238C32.6689 29.6403 32.6815 29.6526 32.7005 29.6526H32.7857C32.8046 29.6526 32.822 29.6389 32.8251 29.6238L32.8803 29.3536L33.0018 28.7583C33.0287 28.6308 33.0145 28.543 32.964 28.4895M33.9738 28.4854C33.977 28.4703 33.9643 28.4566 33.9454 28.4566H33.8586C33.8397 28.4566 33.8223 28.4689 33.8192 28.4854L33.8065 28.5471C33.7561 28.4635 33.6803 28.4278 33.562 28.4278C33.207 28.4278 33.1186 28.8598 33.0776 29.067C33.0334 29.2823 33.0081 29.499 33.117 29.6115C33.1644 29.6595 33.2322 29.6842 33.3206 29.6842C33.4279 29.6842 33.5194 29.6513 33.5951 29.584C33.592 29.5923 33.5904 29.6005 33.5888 29.6087C33.5525 29.7651 33.5162 29.9283 33.2843 29.9283C33.2227 29.9256 33.1722 29.9077 33.1423 29.8776C33.1281 29.8625 33.1186 29.8447 33.1154 29.8241C33.1154 29.8172 33.1154 29.8076 33.1154 29.7994C33.1186 29.7829 33.106 29.7706 33.087 29.7706H32.9971C32.9782 29.7706 32.9608 29.7829 32.9577 29.7994C32.9577 29.8076 32.9577 29.8158 32.9577 29.8241C32.9577 29.8858 32.975 29.9379 33.0145 29.9777C33.0665 30.0298 33.1549 30.0586 33.2606 30.0586C33.5288 30.0586 33.6819 29.9201 33.7434 29.6211L33.9722 28.4923V28.4868L33.9738 28.4854ZM33.7071 29.0409C33.704 29.056 33.7008 29.0697 33.6993 29.0834C33.6708 29.2233 33.6046 29.5525 33.3742 29.5552C33.3237 29.5552 33.2843 29.5415 33.2559 29.5114C33.1628 29.4153 33.2101 29.1822 33.2338 29.0711C33.3032 28.7295 33.4137 28.5567 33.5636 28.5567C33.6235 28.5567 33.6661 28.5718 33.6961 28.6034C33.7829 28.6939 33.7403 28.8941 33.7087 29.0409M34.8574 28.0328H34.7754C34.7564 28.0328 34.7359 28.0451 34.728 28.0602L33.8397 29.8117C33.8334 29.8268 33.8176 29.8529 33.8523 29.8529H33.9312C33.9501 29.8529 33.9706 29.8405 33.9785 29.8254L34.8684 28.0739C34.8763 28.0588 34.8905 28.0328 34.8558 28.0328M37.0001 29.5086H36.4447C36.4258 29.5086 36.4132 29.4949 36.4163 29.4798L36.7019 28.0739C36.7051 28.0575 36.6956 28.0328 36.6767 28.0328H36.5757C36.5568 28.0328 36.5394 28.0451 36.5362 28.0616L36.2223 29.6115C36.2191 29.6279 36.2286 29.6526 36.2475 29.6526H36.9717C36.9907 29.6526 37.008 29.6389 37.0112 29.6238L37.0285 29.5374C37.0317 29.521 37.0191 29.5086 37.0001 29.5086ZM35.9619 28.4278C35.8373 28.4278 35.7252 28.4717 35.6448 28.554C35.5911 28.4374 35.5091 28.4278 35.4065 28.4278C35.3039 28.4278 35.203 28.4703 35.1304 28.5416C35.1319 28.5307 35.1351 28.5211 35.1367 28.5128L35.1414 28.4868C35.1446 28.4717 35.1319 28.458 35.113 28.458H35.0262C35.0073 28.458 34.9899 28.4717 34.9868 28.4868L34.7548 29.6266C34.7517 29.643 34.7643 29.6554 34.7832 29.6554H34.87C34.889 29.6554 34.9063 29.6417 34.9095 29.6266L35.0578 28.8941L35.0862 28.7501C35.1067 28.6514 35.255 28.5581 35.3544 28.5581C35.4049 28.5581 35.4412 28.5691 35.4633 28.591C35.5043 28.6335 35.4917 28.7172 35.4759 28.7926L35.3071 29.6266C35.3039 29.643 35.3166 29.6554 35.3355 29.6554H35.4223C35.4412 29.6554 35.4586 29.6417 35.4617 29.6266L35.6321 28.7885C35.6605 28.6473 35.7741 28.5554 35.9225 28.5554C35.9635 28.5554 35.995 28.5663 36.0156 28.5883C36.0455 28.6198 36.0534 28.6733 36.0408 28.7419L35.8609 29.6266C35.8578 29.643 35.8704 29.6554 35.8877 29.6554H35.9745C35.9935 29.6554 36.0108 29.6417 36.014 29.6266L36.0676 29.3564L36.1891 28.7611C36.2144 28.6335 36.2033 28.5458 36.1512 28.4923C36.1118 28.4511 36.0455 28.4292 35.9587 28.4292M30.9411 28.0492C30.7281 28.0492 30.4915 28.1452 30.3463 28.8557C30.2737 29.2123 30.2516 29.4771 30.3763 29.606C30.4268 29.6595 30.5025 29.6855 30.6003 29.6855C30.9979 29.6855 31.1147 29.2768 31.192 28.8941C31.1952 28.8804 31.1983 28.8653 31.2015 28.8489C31.2425 28.6541 31.3183 28.292 31.1636 28.1302C31.1116 28.0753 31.0374 28.0479 30.9411 28.0479M31.0248 28.879C30.8891 29.5484 30.7076 29.5484 30.6208 29.5484C30.5703 29.5484 30.5341 29.5347 30.5072 29.5086C30.4347 29.4332 30.4347 29.2494 30.5072 28.8928C30.6129 28.3688 30.7155 28.1823 30.897 28.1823C30.9569 28.1823 31.0011 28.1974 31.0327 28.2289C31.1273 28.3277 31.0863 28.5704 31.0248 28.8777M30.2848 28.0602C30.2769 28.052 30.2658 28.0465 30.2516 28.0465H30.1948C30.1554 28.0465 30.1285 28.1384 30.1096 28.1713C30.0575 28.2577 29.985 28.3002 29.8903 28.3208C29.8572 28.3277 29.8224 28.3332 29.783 28.3359H29.7672C29.7672 28.3359 29.7625 28.3359 29.7593 28.3359C29.7372 28.34 29.7167 28.3537 29.712 28.3743L29.7041 28.4141C29.7041 28.4251 29.7041 28.436 29.7136 28.4443C29.7215 28.4525 29.7341 28.458 29.7483 28.458C29.7925 28.458 29.9676 28.4497 30.056 28.436L29.854 29.4318L29.8177 29.6074C29.8146 29.6197 29.8177 29.6307 29.8272 29.6389C29.8351 29.6471 29.8477 29.6526 29.8619 29.6526H29.9297C29.9566 29.6526 29.9818 29.6348 29.9865 29.6115L30.2958 28.0918C30.2974 28.0794 30.2958 28.0684 30.2863 28.0602" fill="#064264"/>
<path d="M20.6829 21.5162C20.6576 21.4846 20.615 21.4668 20.5661 21.4668H20.3674C20.279 21.4668 20.1859 21.5231 20.1544 21.5957L18.8449 24.6805L18.7471 21.6177C18.7439 21.534 18.665 21.4668 18.5688 21.4668H18.37C18.3227 21.4668 18.2785 21.4833 18.247 21.5121C18.2154 21.5409 18.1981 21.5807 18.2012 21.6204L18.4016 25.2963C18.4063 25.3786 18.4868 25.4458 18.5814 25.4458H18.807C18.8954 25.4458 18.9885 25.3896 19.0216 25.3182L20.6924 21.6287C20.7113 21.5875 20.7066 21.5464 20.6829 21.5162ZM18.1933 20.1761C18.1649 20.146 18.1207 20.1295 18.0734 20.1295H17.9014C17.8084 20.1295 17.7232 20.1912 17.7058 20.2708L17.5938 20.8126C17.5859 20.8537 17.597 20.8935 17.6269 20.925C17.6553 20.9552 17.6995 20.9717 17.7468 20.9717H17.9188C18.0119 20.9717 18.0971 20.91 18.1129 20.829L18.2249 20.2872C18.2328 20.2461 18.2217 20.2063 18.1917 20.1761M17.7957 21.4668H17.6238C17.5307 21.4668 17.4455 21.5285 17.4281 21.6081L16.6693 25.2867C16.6614 25.3278 16.6724 25.3676 16.7008 25.3978C16.7292 25.428 16.7734 25.4444 16.8223 25.4444H16.9927C17.0858 25.4444 17.171 25.3827 17.1883 25.3032L17.9472 21.6245C17.9551 21.5834 17.944 21.5436 17.9141 21.5134C17.8857 21.4833 17.8415 21.4668 17.7942 21.4668M16.5352 21.5971C16.3979 21.4531 16.1865 21.379 15.9041 21.3777C15.4576 21.3777 15.1263 21.6465 14.9323 21.8605L14.9812 21.6245C14.9891 21.5834 14.978 21.5436 14.9496 21.5134C14.9212 21.4833 14.8771 21.4668 14.8281 21.4668H14.6988C14.6057 21.4668 14.5205 21.5285 14.5031 21.6081L13.7443 25.2867C13.7364 25.3278 13.7474 25.3676 13.7758 25.3978C13.8042 25.428 13.8484 25.4444 13.8957 25.4444H14.0661C14.1592 25.4444 14.2444 25.3827 14.2618 25.3032L14.7792 22.7945C14.8976 22.2253 15.2699 21.8495 15.7306 21.8399H15.7479C15.8868 21.8399 15.9877 21.8756 16.0571 21.951C16.1786 22.0813 16.1991 22.335 16.1171 22.6642L15.576 25.2867C15.5681 25.3278 15.5791 25.3676 15.6075 25.3978C15.6359 25.428 15.6801 25.4444 15.7274 25.4444H15.8994C15.9925 25.4444 16.0777 25.3827 16.0934 25.3032L16.6772 22.4722C16.7592 22.0758 16.7103 21.7809 16.5336 21.5957M13.2836 23.2965C13.4871 22.3103 13.9099 21.3612 14.5047 20.5506C14.5173 20.5328 14.5221 20.4998 14.5047 20.4697C14.4889 20.445 14.4527 20.4148 14.3675 20.4148C14.2302 20.4148 14.1687 20.4889 14.1624 20.4971C13.4635 21.4024 13.0264 22.3117 12.8261 23.2787C12.6273 24.2457 12.6888 25.1564 13.0138 26.0616C13.0264 26.0973 13.1006 26.1467 13.2063 26.1467C13.2994 26.1467 13.342 26.111 13.3546 26.0946C13.3704 26.0767 13.3767 26.0562 13.3704 26.037C13.1085 25.2277 13.0785 24.28 13.282 23.2951M38.102 20.5081C38.0956 20.493 38.0594 20.4162 37.9111 20.4162C37.829 20.4162 37.7864 20.4436 37.7659 20.4669C37.747 20.4889 37.7391 20.5163 37.7454 20.5369C38.0057 21.3461 38.0357 22.2939 37.8338 23.2773C37.6302 24.2621 37.209 25.2113 36.6111 26.0246C36.5984 26.0424 36.6016 26.0713 36.6158 26.0932C36.6379 26.1261 36.6852 26.1439 36.7531 26.1439C36.8761 26.1439 36.9408 26.0987 36.9581 26.074C37.6571 25.1701 38.0925 24.2607 38.2913 23.2951C38.4916 22.3268 38.4285 21.4161 38.102 20.5081ZM37.0355 21.6218C36.884 21.4627 36.6663 21.3804 36.3886 21.3763H36.3728C35.9374 21.3763 35.6613 21.6122 35.5004 21.8207L35.8175 20.2859C35.8254 20.2447 35.8143 20.205 35.7859 20.1748C35.7575 20.1446 35.7134 20.1281 35.666 20.1281H35.4941C35.401 20.1281 35.3158 20.1899 35.2984 20.2694L34.2635 25.2867C34.2556 25.3278 34.2666 25.3676 34.2966 25.3978C34.325 25.428 34.3692 25.4444 34.4181 25.4444H34.5475C34.639 25.4444 34.7257 25.3827 34.7415 25.3032L34.8015 25.0138C34.904 25.3361 35.1785 25.5322 35.5509 25.5322C36.3634 25.5322 36.8998 24.8546 37.1869 23.4597C37.3778 22.5312 37.3289 21.9304 37.037 21.6218M36.641 23.4419C36.346 24.8766 35.9279 25.07 35.5588 25.07C35.3947 25.07 35.2874 25.033 35.2085 24.9507C35.0129 24.7477 34.9987 24.2607 35.1643 23.4584C35.4594 22.0305 35.8759 21.8385 36.245 21.8385C36.4044 21.8385 36.5148 21.8769 36.5937 21.9578C36.7893 22.1622 36.8051 22.6464 36.641 23.4419ZM31.3842 21.5724C31.2596 21.4421 31.0734 21.3763 30.8321 21.3763C30.3351 21.3763 29.999 21.6863 29.8081 21.9373C29.7908 21.7741 29.7261 21.6396 29.6204 21.5423C29.5036 21.4339 29.3364 21.3777 29.1376 21.3777C28.6769 21.3777 28.3504 21.6465 28.1689 21.8509L28.2147 21.6245C28.2226 21.5834 28.2115 21.5436 28.1831 21.5134C28.1547 21.4833 28.1106 21.4668 28.0632 21.4668H27.9323C27.8392 21.4668 27.754 21.5285 27.7367 21.6081L26.9778 25.2867C26.9699 25.3278 26.981 25.3676 27.0093 25.3978C27.0393 25.428 27.0835 25.4444 27.1308 25.4444H27.3028C27.3959 25.4444 27.4811 25.3827 27.4984 25.3032L28.0159 22.7945C28.1295 22.2418 28.505 21.8399 28.9057 21.8399C29.0398 21.8399 29.1361 21.8742 29.2023 21.9441C29.278 22.0264 29.349 22.2006 29.2575 22.5682L28.6975 25.2853C28.6896 25.3265 28.7006 25.3663 28.729 25.3964C28.7574 25.4266 28.8016 25.4431 28.8505 25.4431H29.0209C29.114 25.4431 29.1992 25.3813 29.2165 25.3018L29.734 22.7931C29.8476 22.2404 30.2231 21.8385 30.6238 21.8385C30.7595 21.8385 30.8573 21.8728 30.922 21.9441C30.9977 22.0264 31.0687 22.2006 30.9756 22.5668L30.414 25.2853C30.4061 25.3265 30.4171 25.3663 30.4471 25.3964C30.4755 25.4266 30.5197 25.4431 30.567 25.4431H30.7374C30.8305 25.4431 30.9157 25.3813 30.933 25.3018L31.5246 22.4352C31.6067 22.0415 31.5609 21.7507 31.389 21.5724M22.7638 21.6369C22.5982 21.4641 22.3647 21.3777 22.0712 21.3777C21.2224 21.3777 20.6261 22.0923 20.3484 23.4433C20.1654 24.3334 20.2301 24.9479 20.544 25.273C20.7097 25.4458 20.9432 25.5322 21.2351 25.5322C22.0839 25.5322 22.6802 24.8162 22.9595 23.4597C23.1425 22.5751 23.0762 21.962 22.7638 21.6369ZM22.4136 23.4419C22.1943 24.5063 21.8125 25.07 21.3108 25.07C21.172 25.07 21.0647 25.0288 20.9826 24.9424C20.7681 24.7202 20.7381 24.221 20.8959 23.4584C21.1152 22.3981 21.4954 21.8385 21.9971 21.8385C22.1359 21.8385 22.2432 21.8797 22.3268 21.9661C22.5414 22.1883 22.5698 22.6848 22.4136 23.4419ZM33.8912 25.0261C33.8186 25.0261 33.8028 24.8917 33.8012 24.856C33.8012 24.8025 33.8091 24.7106 33.8202 24.6585L34.273 22.464C34.3534 22.0799 34.3045 21.7933 34.1294 21.6122C33.9795 21.4558 33.735 21.3763 33.4052 21.3763C32.6306 21.3763 32.1494 21.8083 31.9727 22.6601L31.9617 22.7163H32.3182C32.4066 22.7163 32.5012 22.6601 32.5328 22.5888L32.5359 22.5778C32.5359 22.5709 32.6621 21.8399 33.3185 21.8385C33.4794 21.8385 33.593 21.8728 33.6655 21.9455C33.7618 22.0415 33.7902 22.213 33.7523 22.4571C33.6703 22.9756 33.3421 23.0373 33.2333 23.0579C33.2191 23.0606 33.208 23.062 33.2017 23.0647L32.4949 23.2663C31.9664 23.4158 31.624 23.7999 31.5041 24.3787C31.4158 24.8108 31.4647 25.1276 31.6509 25.321C31.7865 25.4609 31.9885 25.5322 32.252 25.5322H32.2551C32.76 25.5322 33.0723 25.2702 33.2427 25.0604C33.2285 25.2003 33.2554 25.3004 33.3232 25.3704C33.4242 25.4746 33.5993 25.4883 33.7413 25.4883C33.8028 25.4883 33.8438 25.4774 33.847 25.476C33.9274 25.4527 34.0016 25.3759 34.0174 25.3032L34.041 25.1852C34.0489 25.1441 34.0379 25.1029 34.0079 25.0727C33.9795 25.0439 33.9369 25.0261 33.8912 25.0261ZM33.4526 23.9151C33.4147 24.1085 33.1875 25.07 32.4192 25.07C32.3072 25.07 32.2188 25.0357 32.1541 24.9699C32.0405 24.8519 32.0043 24.6379 32.0563 24.365C32.1352 23.9439 32.416 23.6792 32.8878 23.5763C32.902 23.5722 32.9146 23.5708 32.9162 23.5695C33.2617 23.4981 33.4605 23.4104 33.5709 23.3363L33.451 23.9151H33.4526ZM24.4851 20.1734C24.4567 20.1432 24.4125 20.1268 24.3652 20.1268H24.1948C24.1017 20.1268 24.0165 20.1885 23.9992 20.268L22.9642 25.2853C22.9547 25.3265 22.9674 25.3676 22.9958 25.3964C23.0257 25.4266 23.0683 25.4431 23.1172 25.4431H23.2892C23.3823 25.4431 23.4675 25.3813 23.4848 25.3018L24.5198 20.2845C24.5277 20.2434 24.5166 20.2036 24.4882 20.1734M27.1387 21.5121C27.1103 21.4819 27.0661 21.4654 27.0188 21.4654H26.8484C26.7553 21.4654 26.6702 21.5272 26.6528 21.6067L26.1353 24.1154C26.0186 24.6791 25.6399 25.0631 25.1903 25.0714H25.1761C25.0341 25.0714 24.93 25.033 24.859 24.9561C24.7848 24.8752 24.6807 24.6667 24.8101 24.1785C24.8132 24.1675 24.8148 24.1593 24.8164 24.1551L25.3386 21.6245C25.3465 21.5834 25.3354 21.5436 25.3055 21.5134C25.2771 21.4833 25.2329 21.4668 25.1856 21.4668H25.0136C24.9221 21.4668 24.8353 21.5285 24.8195 21.6081L24.2579 24.3362L24.2532 24.3499C24.1459 24.7628 24.1885 25.1029 24.3746 25.3045C24.5119 25.4554 24.7249 25.5322 25.0057 25.5336H25.0104C25.4301 25.5336 25.7803 25.2497 25.987 25.033L25.935 25.2867C25.9271 25.3278 25.9381 25.3676 25.9665 25.3978C25.9949 25.428 26.0391 25.4444 26.088 25.4444H26.2189C26.312 25.4444 26.3972 25.3827 26.4146 25.3032L27.1734 21.6245C27.1813 21.5834 27.1703 21.5436 27.1403 21.5134" fill="#064264"/>
<path d="M4.60688 10.9C2.48964 10.9 0.975076 11.8917 0.650075 13.4855L0.0679138 16.359C-0.255509 17.9541 0.858328 18.9458 2.97556 18.9458C5.0928 18.9458 6.60894 17.9541 6.93237 16.359L7.51453 13.4855C7.83795 11.8917 6.72411 10.9 4.60688 10.9ZM5.28843 13.5061L4.71416 16.3398C4.65894 16.6114 4.55639 17.1147 3.34789 17.1147C2.1394 17.1147 2.24195 16.61 2.29717 16.3398L2.87144 13.5061C2.92823 13.2345 3.02921 12.7297 4.2377 12.7297C5.4462 12.7297 5.34523 13.2345 5.29001 13.5061M14.7166 13.2304C14.7308 13.1604 14.7434 13.0891 14.7513 13.0178C14.8744 12.0645 14.5005 11.029 12.2917 11.029H9.12849C8.97861 11.029 8.83662 11.1346 8.8098 11.2635L7.31259 18.6413C7.28734 18.7702 7.38674 18.8759 7.53504 18.8759H9.21999C9.36987 18.8759 9.51028 18.7702 9.5371 18.6413L9.98201 16.4495H11.1921C13.1121 16.4495 13.9641 15.6622 14.3285 14.8269C14.4137 14.6294 14.4721 14.4305 14.5115 14.2385L14.7166 13.229V13.2304ZM12.4905 13.2414L12.4416 13.4869L12.2886 14.2412C12.2255 14.554 12.2144 14.6088 11.5313 14.6088H10.3559L10.5042 13.8791L10.7093 12.8738H11.8831C12.5662 12.8738 12.5568 12.9231 12.4905 13.2427M21.2056 11.5077C20.7528 11.1963 20.0949 11.0317 19.2493 11.0317H16.1791C16.0292 11.0317 15.8872 11.1373 15.8604 11.2663V11.2717L14.3632 18.6427C14.338 18.773 14.4374 18.8772 14.5857 18.8772H17.6558C19.6374 18.8772 20.9563 17.9761 21.2766 16.4015L21.8635 13.5061C21.8635 13.4992 21.865 13.4924 21.8666 13.4855C21.996 12.8258 21.8997 12.2854 21.5984 11.8807C21.4927 11.7395 21.3602 11.6133 21.204 11.5063M19.6263 13.5664L19.0647 16.3398C18.9684 16.8089 18.8832 17.0338 17.995 17.0338H16.9143L17.7584 12.871H18.8391C19.7289 12.871 19.7226 13.096 19.6263 13.5664ZM37.3799 10.8987C35.2642 10.8987 33.7481 11.8903 33.4231 13.4841L32.8409 16.3576C32.5175 17.9528 33.6313 18.9444 35.7486 18.9444C37.8658 18.9444 39.3819 17.9541 39.7054 16.3576L40.2875 13.4841C40.6109 11.8903 39.4971 10.8987 37.3799 10.8987ZM38.0614 13.5047L37.4872 16.3384C37.4319 16.6086 37.3294 17.1134 36.1193 17.1134C34.9092 17.1134 35.0134 16.6086 35.0686 16.3384L35.6429 13.5047C35.6996 13.2331 35.8006 12.7284 37.0091 12.7284C38.2176 12.7284 38.1166 13.2331 38.0614 13.5047ZM33.595 10.671L31.6324 11.28C31.4494 11.3362 31.3595 11.4007 31.2995 11.5063L28.9235 15.5827L28.4029 12.8052C28.3382 12.4582 28.3114 12.31 28.0732 12.3841L26.5081 12.8683C26.2305 12.9533 26.2115 13.0041 26.2336 13.1508L27.2181 18.7154C27.2339 18.81 27.3254 18.8759 27.4405 18.8759H29.288C29.4047 18.8759 29.5215 18.81 29.5783 18.7154L33.8632 10.9631C33.9469 10.8068 33.8869 10.6079 33.595 10.671ZM25.4921 11.029H23.8119C23.6652 11.029 23.5137 11.1222 23.4885 11.2512L21.9944 18.6345C21.9676 18.7648 22.0812 18.8759 22.2137 18.8759H23.9018C24.0485 18.8759 24.1889 18.7716 24.2158 18.6427L25.713 11.2498C25.7288 11.1702 25.6231 11.0276 25.4921 11.0276" fill="#064264"/>
<path d="M35.9915 6.88816L26.6059 10.6312C26.5207 10.6628 26.4387 10.7533 26.4229 10.8329L26.2557 11.6846C26.2399 11.7642 26.2983 11.8067 26.3851 11.7793L34.9092 8.82485C34.996 8.79742 35.1001 8.71649 35.1411 8.6438L36.0735 6.9636C36.1146 6.8909 36.0767 6.85798 35.9915 6.88953M6.82191 18.138L0.411826 20.7838C0.326632 20.8153 0.332943 20.8414 0.424448 20.8414H0.848842C0.940347 20.8414 1.00976 20.8304 1.09496 20.7989L6.60419 18.6948C6.68939 18.6633 6.79509 18.6523 6.84084 18.533L6.91499 18.2559C6.94812 18.1297 6.87871 18.1242 6.82191 18.138Z" fill="#F16423"/>
<path d="M34.7039 9.20632L26.4432 12.0455C26.3595 12.0784 26.2775 12.1703 26.2602 12.2499L26.2538 12.2801C26.2381 12.3596 26.2933 12.398 26.3785 12.3665L34.2952 9.93601C34.3804 9.90446 34.483 9.81942 34.524 9.7481L34.7843 9.27765C34.8238 9.20495 34.7891 9.1734 34.7039 9.20632ZM6.63549 18.957L1.78573 20.7826C1.70053 20.8141 1.70684 20.8402 1.79835 20.8402H2.09495C2.18803 20.8402 2.21643 20.8347 2.3032 20.8059L6.59289 19.2039C6.67967 19.1751 6.67809 19.1545 6.69702 19.0859L6.72069 18.9899C6.73804 18.9282 6.67178 18.9474 6.63549 18.9583" fill="#018EB4"/>
<path d="M39.8818 18.3107C39.8818 17.9473 40.2211 17.6798 40.6219 17.6798C41.0226 17.6798 41.3571 17.9473 41.3571 18.3107C41.3571 18.6742 41.0179 18.9458 40.6219 18.9458C40.2258 18.9458 39.8818 18.6783 39.8818 18.3107ZM40.6219 18.8402C40.9516 18.8402 41.212 18.6166 41.212 18.3107C41.212 18.0049 40.9516 17.784 40.6219 17.784C40.2921 17.784 40.0286 18.0104 40.0286 18.3107C40.0286 18.6111 40.2889 18.8402 40.6219 18.8402ZM40.4672 18.6783H40.341V17.9473H40.6613C40.8601 17.9473 40.9579 18.0104 40.9579 18.1544C40.9579 18.2847 40.8633 18.3423 40.7402 18.356L40.9784 18.6783H40.8364L40.614 18.3615H40.4672V18.6783ZM40.6187 18.2682C40.7276 18.2682 40.8238 18.2614 40.8238 18.1489C40.8238 18.0584 40.7291 18.0419 40.6408 18.0419H40.4672V18.2682H40.6187Z" fill="#064264"/>
<path d="M55.2682 14.2221H51.8983V11.2938H49.7195V14.2221H46.3496V16.1177H49.7195V19.046H51.8983V16.1177H55.2682V14.2221Z" fill="#008FB4"/>
<path d="M62.3044 15.7418V18.7319H61.1416V15.7185L58.2513 11.2402H59.5324L61.0107 13.5596C61.2458 13.9464 61.5471 14.4017 61.7427 14.7652H61.7696C61.9668 14.4017 62.2413 13.9354 62.4621 13.5706L63.9136 11.2402H65.1426L62.3044 15.7418ZM70.7639 18.7319V17.8335H67.4949V15.344H70.3332V14.458H67.4949V12.1386H70.3584L70.737 11.2416H66.3306V18.7332H70.7639V18.7319ZM78.3209 18.7319C76.9483 16.8103 76.0065 15.4455 75.6925 15.3097V15.2988C76.5555 15.0148 77.3396 14.3441 77.3396 13.2976C77.3396 12.1606 76.5161 11.2402 74.4225 11.2402H72.4614V18.7319H73.6258V15.6279H74.4887C74.8421 15.6965 75.5868 16.8103 76.961 18.7319H78.3209ZM74.4367 12.1372C75.6783 12.1372 76.1232 12.7284 76.1232 13.4115C76.1232 14.1617 75.4164 14.7872 74.4761 14.7872H73.6258V12.1386H74.4367V12.1372ZM85.2485 11.2402H84.1394L82.0458 15.9928C81.8533 16.4248 81.7082 16.8116 81.5646 17.1984H81.5409C81.3958 16.8007 81.2396 16.3796 81.0834 15.9818L79.146 11.2416H77.9912L81.1544 18.7675H81.8281L85.2469 11.2416L85.2485 11.2402ZM86.3181 12.2525C85.624 12.9451 85.2217 13.9121 85.2217 15.0382C85.2217 16.2205 85.6697 17.2327 86.4365 17.9144C87.1196 18.5165 88.0252 18.8471 89.0964 18.8471C90.1677 18.8471 91.1442 18.4822 91.8384 17.8348C92.5563 17.1532 92.9806 16.1642 92.9806 15.0148C92.9806 13.9573 92.6288 13.037 92.0041 12.354C91.3225 11.6147 90.2986 11.1826 89.098 11.1826C87.981 11.1826 87.0155 11.5804 86.3197 12.2511M89.098 12.092C90.8634 12.092 91.8526 13.3196 91.8526 15.0244C91.8526 16.8199 90.7687 17.9569 89.098 17.9569C87.4272 17.9569 86.3434 16.8199 86.3434 15.0244C86.3434 13.229 87.4257 12.092 89.098 12.092ZM99.1635 11.2389H98.0576L96.7513 13.5692C96.5509 13.934 96.3032 14.399 96.1281 14.7638H96.1044C95.9293 14.4004 95.6564 13.945 95.445 13.5582L94.1166 11.2389H92.9633L95.5633 15.7171V18.7305H96.6109V15.7404L99.1635 11.2389Z" fill="#F26322"/>
<path d="M61.1458 26.2316C60.3995 25.1713 59.9261 24.1604 59.9261 22.9233C59.9261 21.8205 60.3537 20.6259 61.1458 19.6644H61.6507C60.9123 20.7246 60.6251 21.778 60.6251 22.9233C60.6251 24.0685 60.9123 25.1507 61.6507 26.2316H61.1458Z" fill="#F26322"/>
<path d="M62.4753 20.519H61.8158V19.7839H62.4753V20.519ZM61.8158 21.176H62.4753V24.8313H61.8158V21.176Z" fill="#F26322"/>
<path d="M63.2289 21.1773H63.8884V21.6725H63.9042C64.122 21.2692 64.6348 21.0923 65.1854 21.0923C66.4209 21.0923 67.0347 21.9824 67.0347 23.0153C67.0347 24.0481 66.4288 24.9177 65.2012 24.9177C64.7894 24.9177 64.1993 24.7764 63.9042 24.3443H63.8884V26.2316H63.2289V21.176V21.1773ZM65.0923 21.6231C64.2072 21.6231 63.8648 22.3157 63.8648 23.0015C63.8648 23.723 64.2214 24.3868 65.1302 24.3868C66.0391 24.3868 66.3341 23.6873 66.3341 22.9727C66.3341 22.2581 65.946 21.6217 65.0908 21.6217L65.0923 21.6231Z" fill="#F26322"/>
<path d="M68.2141 20.519H67.5546V19.7839H68.2141V20.519ZM67.5546 21.176H68.2141V24.8313H67.5546V21.176Z" fill="#F26322"/>
<path d="M68.9847 19.7839H69.6443V24.8313H68.9847V19.7839Z" fill="#F26322"/>
<path d="M71.0735 20.519H70.4139V19.7839H71.0735V20.519ZM70.4139 21.176H71.0735V24.8313H70.4139V21.176Z" fill="#F26322"/>
<path d="M71.8046 21.1773H72.4262V21.715H72.442C72.7371 21.3049 73.1883 21.0923 73.739 21.0923C74.2282 21.0923 74.6794 21.2692 74.842 21.715C75.1133 21.3255 75.5883 21.0923 76.0995 21.0923C76.8995 21.0923 77.436 21.3968 77.436 22.1525V24.8326H76.7764V22.4364C76.7764 21.9838 76.6439 21.6231 76.0001 21.6231C75.3563 21.6231 74.9508 21.9907 74.9508 22.5558V24.8326H74.2913V22.4364C74.2913 21.9632 74.1288 21.6231 73.5371 21.6231C72.7529 21.6231 72.4657 22.2801 72.4657 22.5558V24.8326H71.8061V21.1773H71.8046Z" fill="#F26322"/>
<path d="M81.4577 24.8326H80.8361V24.2524H80.8203C80.541 24.705 80.0897 24.9176 79.5154 24.9176C78.4582 24.9176 78.1332 24.3663 78.1332 23.5817V21.1773H78.7927V23.6517C78.7927 24.0974 79.1036 24.3868 79.6085 24.3868C80.4085 24.3868 80.7966 23.8985 80.7966 23.2416V21.1773H81.4562V24.8326H81.4577Z" fill="#F26322"/>
<path d="M82.1576 21.1773H82.7793V21.715H82.7951C83.0901 21.3049 83.5414 21.0923 84.0921 21.0923C84.5812 21.0923 85.0325 21.2692 85.195 21.715C85.4664 21.3255 85.9413 21.0923 86.4525 21.0923C87.2525 21.0923 87.789 21.3968 87.789 22.1525V24.8326H87.1294V22.4364C87.1294 21.9838 86.9969 21.6231 86.3531 21.6231C85.7094 21.6231 85.3039 21.9907 85.3039 22.5558V24.8326H84.6443V22.4364C84.6443 21.9632 84.4818 21.6231 83.8917 21.6231C83.1075 21.6231 82.8203 22.2801 82.8203 22.5558V24.8326H82.1608V21.1773H82.1576Z" fill="#F26322"/>
<path d="M92.0471 24.8176C91.9303 24.8807 91.7836 24.9163 91.5737 24.9163C91.2313 24.9163 91.0152 24.7463 91.0152 24.3512C90.6507 24.7408 90.16 24.9163 89.6014 24.9163C88.8708 24.9163 88.2728 24.6187 88.2728 23.8904C88.2728 23.0633 88.9482 22.8864 89.6314 22.7657C90.3619 22.6381 90.9836 22.6806 90.9836 22.228C90.9836 21.7054 90.5102 21.6204 90.0905 21.6204C89.532 21.6204 89.1201 21.7754 89.0886 22.3131H88.429C88.4685 21.4078 89.2369 21.0896 90.13 21.0896C90.8526 21.0896 91.6368 21.2377 91.6368 22.0936V23.9741C91.6368 24.2566 91.6368 24.3842 91.8467 24.3842C91.9019 24.3842 91.9634 24.3773 92.0486 24.3485V24.8148L92.0471 24.8176ZM90.9757 22.944C90.7201 23.1141 90.2231 23.1209 89.7797 23.1909C89.3442 23.2622 88.9718 23.4035 88.9718 23.8479C88.9718 24.2443 89.3442 24.3855 89.7481 24.3855C90.6175 24.3855 90.9757 23.8904 90.9757 23.5585V22.9426V22.944Z" fill="#F26322"/>
<path d="M92.3871 19.7839H93.0466V21.6712H93.0624C93.2802 21.2679 93.793 21.091 94.3436 21.091C95.5791 21.091 96.1929 21.9812 96.1929 23.014C96.1929 24.0468 95.587 24.9164 94.3594 24.9164C93.9476 24.9164 93.3575 24.7751 93.0624 24.343H93.0466V24.8313H92.3871V19.7839ZM94.2521 21.6218C93.3669 21.6218 93.0245 22.3145 93.0245 23.0003C93.0245 23.7217 93.3811 24.3856 94.29 24.3856C95.1988 24.3856 95.4939 23.6861 95.4939 22.9715C95.4939 22.2569 95.1057 21.6204 94.2505 21.6204L94.2521 21.6218Z" fill="#F26322"/>
<path d="M96.0991 26.2316C96.8376 25.1713 97.1247 24.1179 97.1247 22.9726C97.1247 21.8274 96.8376 20.7452 96.0991 19.6644H96.604C97.3504 20.7246 97.8237 21.7355 97.8237 22.9726C97.8237 24.0754 97.3961 25.2701 96.604 26.2316H96.0991Z" fill="#F26322"/>
<path d="M109.872 6.83179L109.999 4.23811L109.525 3.97614C108.731 4.7648 104.5 8.42147 99.489 10.52C99.4716 10.5077 99.5962 10.6188 99.6167 10.6133C106.115 9.06749 109.872 6.83042 109.872 6.83042" fill="#DFDF00"/>
<g style="mix-blend-mode:multiply" opacity="0.43">
<path d="M109.872 6.83179L109.999 4.23811L109.525 3.97614C108.731 4.7648 104.5 8.42147 99.489 10.52C99.4716 10.5077 99.5962 10.6188 99.6167 10.6133C106.115 9.06749 109.872 6.83042 109.872 6.83042" fill="#51626F"/>
</g>
<path d="M99.4364 10.6202C101.436 4.39732 105.398 0.485544 105.398 0.485544L104.938 0L101.649 0.702255C101.649 0.702255 100.131 4.33423 99.2171 10.4899C99.2155 10.5037 99.2424 10.5503 99.2392 10.5654L99.3749 10.6257L99.4364 10.6202Z" fill="#D0103A"/>
<g style="mix-blend-mode:multiply" opacity="0.43">
<path d="M99.4364 10.6202C101.436 4.39732 105.398 0.485544 105.398 0.485544L104.938 0L101.649 0.702255C101.649 0.702255 100.131 4.33423 99.2171 10.4899C99.2155 10.5037 99.2424 10.5503 99.2392 10.5654L99.3749 10.6257L99.4364 10.6202Z" fill="#51626F"/>
</g>
<path d="M109.273 6.52059L109.523 3.97766C109.523 3.97766 105.229 8.02797 99.472 10.5202C99.4547 10.5092 99.5399 10.5709 99.5541 10.5572C106.081 8.70691 109.271 6.52059 109.271 6.52059" fill="#DFDF00"/>
<path d="M99.3524 10.5489C101.203 3.84869 104.936 0 104.936 0L101.465 0.599386C101.465 0.599386 100.029 4.29857 99.2151 10.4899L99.3508 10.5489H99.3524Z" fill="#D0103A"/>
<path d="M95.3696 9.6326C95.1724 9.93161 94.2825 9.81503 93.3815 9.372C92.479 8.92898 91.9047 8.32685 92.0987 8.02647C92.2928 7.72609 93.1843 7.84131 94.0868 8.2857C94.9894 8.72873 95.5653 9.33085 95.3712 9.6326" fill="#F26322"/>
<path d="M96.3744 7.64389C96.2261 7.8702 95.4087 7.7111 94.5441 7.28728C93.681 6.86346 93.0987 6.33676 93.2486 6.11045C93.3954 5.88277 94.2143 6.04462 95.0774 6.46844C95.942 6.89226 96.5227 7.41758 96.3759 7.64526" fill="#F26322"/>
<path d="M98.7941 7.46136C98.6773 7.64104 98.0304 7.52034 97.3503 7.18567C96.6719 6.85375 96.2174 6.43678 96.3342 6.25299C96.451 6.07194 97.0979 6.19538 97.7764 6.53005C98.4564 6.86198 98.9109 7.28031 98.7925 7.46136" fill="#F26322"/>
<path d="M102.24 13.3895C102.026 13.6789 102.559 14.3099 103.432 14.7968C104.304 15.2823 105.186 15.4428 105.401 15.1534C105.615 14.8626 105.08 14.233 104.208 13.7461C103.335 13.2592 102.453 13.0987 102.24 13.3895Z" fill="#F26322"/>
<path d="M103.793 11.6873C103.632 11.9068 104.178 12.4595 105.011 12.9273C105.848 13.3936 106.652 13.5925 106.815 13.3744C106.977 13.1563 106.431 12.6008 105.597 12.1358C104.762 11.6695 103.956 11.4706 103.793 11.6887" fill="#F26322"/>
<path d="M103.03 9.84792C102.901 10.0235 103.327 10.461 103.984 10.8272C104.64 11.1935 105.277 11.3471 105.407 11.1729C105.535 11.0001 105.109 10.5598 104.452 10.1936C103.796 9.82735 103.158 9.67236 103.03 9.84792Z" fill="#F26322"/>
<path d="M102.085 8.85486C102.03 8.93578 101.627 8.81645 101.189 8.5874C100.751 8.35697 100.441 8.1046 100.497 8.0223C100.554 7.94275 100.957 8.06208 101.394 8.2925C101.834 8.52156 102.143 8.77393 102.085 8.85486Z" fill="#F26322"/>
<path d="M97.288 17.9883C97.288 17.5151 97.714 17.2339 98.181 17.2339C98.6481 17.2339 99.0741 17.5151 99.0741 17.9883C99.0741 18.4615 98.6481 18.7426 98.181 18.7426C97.714 18.7426 97.288 18.4615 97.288 17.9883ZM98.181 17.3806C97.8118 17.3806 97.5168 17.6289 97.5168 17.9883C97.5168 18.3476 97.8118 18.5959 98.181 18.5959C98.5502 18.5959 98.8453 18.3476 98.8453 17.9883C98.8453 17.6289 98.5439 17.3806 98.181 17.3806ZM98.0343 18.4011H97.8292V17.574H98.1873C98.4351 17.574 98.5755 17.6344 98.5755 17.8237C98.5755 17.9759 98.4745 18.0349 98.3136 18.0431L98.5613 18.4011H98.353L98.1305 18.0541H98.0343V18.4011ZM98.0343 17.9156H98.2142C98.3262 17.9156 98.3688 17.8689 98.3688 17.8058C98.3688 17.7304 98.3025 17.7126 98.2047 17.7126H98.0343V17.9156Z" fill="#F26322"/>
<path d="M66.564 29.3863C66.564 29.3863 66.5604 29.3863 66.5604 29.3887C66.5616 29.3887 66.5628 29.3887 66.564 29.3887V29.3863Z" fill="#F26322"/>
<path d="M65.5951 29.0571L65.5824 29.0584H65.5951V29.0571Z" fill="#F26322"/>
<path d="M60.0824 27.5525L60.0981 29.6415H60.4825L60.4683 27.5388L60.0824 27.5525Z" fill="#F26322"/>
<path d="M62.031 28.4482C62.031 28.1533 61.8843 28.0107 61.5813 28.0107C61.4015 28.0107 61.2484 28.0847 61.1664 28.2082C61.1569 28.2192 61.1458 28.2288 61.138 28.2411L61.1238 28.0505L60.7782 28.0642L60.7924 29.6415L61.1585 29.6278V28.5785C61.1585 28.3783 61.2957 28.2864 61.4235 28.2864C61.5908 28.2864 61.6523 28.3591 61.6523 28.5552L61.6665 29.6415H62.0326V28.4482H62.031Z" fill="#F26322"/>
<path d="M62.265 27.5294L62.2808 27.8572H62.6462L62.6304 27.517L62.265 27.5294Z" fill="#F26322"/>
<path d="M62.2663 28.0642V29.7005C62.2663 29.8705 62.2142 29.8993 62.0991 29.8993L62.0028 29.9117L62.0154 30.1654C62.0675 30.1709 62.1211 30.175 62.1701 30.175C62.5077 30.175 62.6466 30.0461 62.6466 29.7279L62.6324 28.0491L62.2663 28.0628V28.0642Z" fill="#F26322"/>
<path d="M63.5619 28.0104C63.1169 28.0104 62.9008 28.2916 62.9008 28.869C62.9008 29.5891 63.251 29.681 63.5556 29.681C63.9327 29.681 64.1694 29.4711 64.1694 29.1187C64.1694 29.1132 64.1694 29.1091 64.1694 29.1036C64.1694 29.1036 64.1694 29.0953 64.1694 29.0898L63.8222 29.1036C63.8222 29.1598 63.8096 29.4396 63.5571 29.4396C63.3047 29.4396 63.2794 29.1913 63.2794 28.976L63.2652 28.8992L64.193 28.8855V28.7195C64.193 28.2148 64.01 28.009 63.5603 28.009L63.5619 28.0104ZM63.281 28.6729V28.64C63.281 28.4946 63.3173 28.2518 63.5587 28.2518C63.7686 28.2518 63.8143 28.4342 63.8143 28.5865L63.8285 28.6578L63.281 28.6715V28.6729Z" fill="#F26322"/>
<path d="M65.0359 28.2699C65.2332 28.2699 65.2616 28.4674 65.2773 28.5991L65.6434 28.5854C65.6434 28.4126 65.585 28.0107 65.0265 28.0107C64.43 28.0107 64.3622 28.488 64.3622 28.846C64.3622 29.204 64.4316 29.6827 65.0265 29.6827C65.4083 29.6827 65.5961 29.5043 65.6213 29.0984C65.6213 29.086 65.6245 29.0737 65.6245 29.0599C65.6245 29.0599 65.6245 29.0517 65.6245 29.0476L65.2773 29.0599C65.2773 29.1806 65.2584 29.2698 65.2205 29.3302C65.1795 29.3932 65.118 29.4248 65.0265 29.4248C64.7914 29.4248 64.7424 29.1944 64.7424 28.8474C64.7424 28.5003 64.7914 28.2713 65.0359 28.2713V28.2699ZM65.6292 28.573C65.6292 28.573 65.6292 28.5662 65.6292 28.5634C65.6292 28.5662 65.6292 28.5703 65.6292 28.573Z" fill="#F26322"/>
<path d="M66.5878 28.0503L66.3164 28.064L66.3006 27.6059L65.9345 27.6196L65.9503 28.0517L65.6947 28.0654L65.7105 28.3109L65.9361 28.2986V29.2696C65.9361 29.6002 66.0608 29.6605 66.3053 29.6605C66.4189 29.6605 66.5183 29.6509 66.6035 29.6208L66.5878 29.4164V29.3876C66.5878 29.3876 66.5878 29.3876 66.5862 29.3876V29.3753C66.5546 29.3807 66.512 29.3835 66.4615 29.3835C66.3511 29.3835 66.318 29.3478 66.318 29.2312L66.3022 28.3109L66.6035 28.2986L66.5878 28.053V28.0503ZM66.572 29.3862C66.572 29.3862 66.5688 29.389 66.5673 29.389C66.5673 29.3876 66.572 29.3876 66.572 29.3862Z" fill="#F26322"/>
<path d="M66.8114 28.0641L66.8272 29.6415H67.1926L67.1768 28.0504L66.8114 28.0641Z" fill="#F26322"/>
<path d="M66.8114 27.5294L66.8272 27.8572H67.1926L67.1768 27.517L66.8114 27.5294Z" fill="#F26322"/>
<path d="M68.091 28.0107C67.4946 28.0107 67.4252 28.488 67.4252 28.846C67.4252 29.4015 67.6492 29.6827 68.091 29.6827C68.5328 29.6827 68.76 29.4097 68.76 28.846C68.76 28.488 68.6906 28.0107 68.091 28.0107ZM68.091 29.4234C67.8496 29.4234 67.807 29.2369 67.807 28.846C67.807 28.5003 67.8559 28.2699 68.091 28.2699C68.3261 28.2699 68.3782 28.4907 68.3782 28.846C68.3782 29.2369 68.3356 29.4234 68.091 29.4234Z" fill="#F26322"/>
<path d="M69.7807 28.0107C69.6024 28.0107 69.4477 28.0847 69.3657 28.2082C69.3562 28.2192 69.3452 28.2288 69.3373 28.2411L69.3231 28.0505L68.976 28.0642L68.9902 29.6415L69.3562 29.6278V28.5785C69.3562 28.3783 69.4935 28.2864 69.6197 28.2864C69.787 28.2864 69.8485 28.3591 69.8485 28.5552L69.8643 29.6415H70.2304V28.4482C70.2304 28.1533 70.0836 28.0107 69.7807 28.0107Z" fill="#F26322"/>
<path d="M71.8102 28.2975L71.7944 28.0519L71.523 28.0657V27.9285C71.523 27.8325 71.5735 27.7941 71.6966 27.7941L71.8102 27.7804L71.7976 27.5266C71.7455 27.5211 71.6792 27.517 71.6035 27.517C71.28 27.517 71.1428 27.6377 71.1428 27.9189L71.1586 28.0519L70.8998 28.0657L70.9156 28.3112L71.1443 28.2988L71.1601 29.643H71.5262L71.5104 28.3112L71.8118 28.2988L71.8102 28.2975Z" fill="#F26322"/>
<path d="M72.4548 28.0107C71.8584 28.0107 71.7889 28.488 71.7889 28.846C71.7889 29.4015 72.013 29.6827 72.4548 29.6827C72.8966 29.6827 73.1238 29.4097 73.1238 28.846C73.1238 28.488 73.0544 28.0107 72.4548 28.0107ZM72.4548 29.4234C72.2134 29.4234 72.1708 29.2369 72.1708 28.846C72.1708 28.5003 72.2197 28.2699 72.4548 28.2699C72.6899 28.2699 72.742 28.4907 72.742 28.846C72.742 29.2369 72.6994 29.4234 72.4548 29.4234Z" fill="#F26322"/>
<path d="M100.22 28.0502L99.854 28.0639V28.1421C99.7861 28.0625 99.6978 28.009 99.5573 28.009C98.9609 28.009 98.8915 28.4863 98.8915 28.8443C98.8915 29.3998 99.1155 29.681 99.5573 29.681C99.7041 29.681 99.7893 29.6303 99.854 29.5521C99.854 29.7208 99.7956 29.8991 99.551 29.8936C99.338 29.8881 99.0082 29.8072 99.0082 29.8072L99.0288 30.0801C99.0808 30.0856 99.3143 30.1761 99.6236 30.1693C99.9976 30.1611 100.236 29.8922 100.236 29.5754L100.22 28.0502ZM99.5558 29.4231C99.3144 29.4231 99.2717 29.2366 99.2717 28.8457C99.2717 28.5001 99.3207 28.2696 99.5558 28.2696C99.7609 28.2696 99.835 28.2916 99.8603 28.6386V29.0569C99.8335 29.4094 99.764 29.4231 99.5558 29.4231Z" fill="#F26322"/>
<path d="M74.1255 28.0104C73.9646 28.0104 73.8415 28.0845 73.7674 28.2257C73.7532 28.2477 73.739 28.2696 73.7263 28.2943L73.7121 28.0502L73.3461 28.0639L73.3603 29.6412H73.7263V28.6921C73.7263 28.4095 73.9094 28.3506 74.0624 28.3506C74.124 28.3506 74.1871 28.3629 74.2044 28.367L74.2234 28.3711L74.2123 28.0214C74.1902 28.0159 74.165 28.009 74.124 28.009L74.1255 28.0104Z" fill="#F26322"/>
<path d="M74.9647 28.0641L74.9805 29.6415H75.3459L75.3301 28.0504L74.9647 28.0641Z" fill="#F26322"/>
<path d="M74.9647 27.5294L74.9805 27.8572H75.3459L75.3301 27.517L74.9647 27.5294Z" fill="#F26322"/>
<path d="M76.4589 28.0107C76.2806 28.0107 76.126 28.0847 76.0439 28.2082C76.0344 28.2192 76.0234 28.2288 76.0155 28.2411L76.0013 28.0505L75.6542 28.0642L75.6699 29.6415L76.036 29.6278V28.5785C76.036 28.3783 76.1733 28.2864 76.3011 28.2864C76.4683 28.2864 76.5299 28.3591 76.5299 28.5552L76.5457 29.6415H76.9117V28.4482C76.9117 28.1533 76.7634 28.0107 76.4605 28.0107H76.4589Z" fill="#F26322"/>
<path d="M98.2974 28.0104C98.1207 28.0104 97.9692 28.0845 97.8887 28.2079C97.8777 28.2257 97.8651 28.2436 97.8556 28.2614C97.802 28.0927 97.6647 28.009 97.4375 28.009C97.2608 28.009 97.1093 28.0831 97.0288 28.2065C97.0209 28.2175 97.0083 28.2271 97.0004 28.2395L96.9862 28.0488L96.6454 28.0625L96.6612 29.6399L97.0225 29.6261V28.5769C97.0225 28.3766 97.1566 28.2847 97.2828 28.2847C97.4469 28.2847 97.5085 28.3574 97.5085 28.5536L97.5243 29.6399H97.8856V28.5769C97.8856 28.3766 98.0197 28.2847 98.1459 28.2847C98.31 28.2847 98.3716 28.3574 98.3716 28.5536L98.3873 29.6399H98.7471V28.4466C98.7471 28.1517 98.6019 28.009 98.3037 28.009L98.2974 28.0104Z" fill="#F26322"/>
<path d="M102.851 28.0104C102.674 28.0104 102.522 28.0845 102.442 28.2079C102.431 28.2257 102.418 28.2436 102.409 28.2614C102.355 28.0927 102.218 28.009 101.991 28.009C101.814 28.009 101.662 28.0831 101.582 28.2065C101.574 28.2175 101.562 28.2271 101.554 28.2395L101.539 28.0488L101.199 28.0625L101.214 29.6399L101.576 29.6261V28.5769C101.576 28.3766 101.71 28.2847 101.836 28.2847C102 28.2847 102.062 28.3574 102.062 28.5536L102.077 29.6399H102.439V28.5769C102.439 28.3766 102.573 28.2847 102.699 28.2847C102.863 28.2847 102.925 28.3574 102.925 28.5536L102.941 29.6399H103.3V28.4466C103.3 28.1517 103.155 28.009 102.857 28.009L102.851 28.0104Z" fill="#F26322"/>
<path d="M77.9392 28.0503L77.6678 28.064L77.6536 27.6059L77.2876 27.6196L77.3033 28.0517L77.0477 28.0654L77.0635 28.3109L77.2891 28.2986V29.2696C77.2891 29.6002 77.4138 29.6605 77.6584 29.6605C77.772 29.6605 77.8698 29.6509 77.9566 29.6208L77.9408 29.4164V29.3876C77.9408 29.3876 77.9408 29.3876 77.9392 29.3876V29.3753C77.9077 29.3807 77.8651 29.3835 77.8146 29.3835C77.7041 29.3835 77.6694 29.3478 77.6694 29.2312L77.6552 28.3109L77.9566 28.2986L77.9408 28.053L77.9392 28.0503ZM77.925 29.3862C77.925 29.3862 77.9219 29.389 77.9203 29.389C77.9203 29.3876 77.925 29.3876 77.925 29.3862Z" fill="#F26322"/>
<path d="M78.9971 28.0104C78.8362 28.0104 78.7131 28.0845 78.6389 28.2257C78.6247 28.2477 78.6105 28.2696 78.5979 28.2943L78.5837 28.0502L78.2177 28.0639L78.2319 29.6412H78.5979V28.6921C78.5979 28.4095 78.7809 28.3506 78.934 28.3506C78.994 28.3506 79.0587 28.3629 79.076 28.367L79.0949 28.3711L79.0839 28.0214C79.0618 28.0159 79.0381 28.009 78.9955 28.009L78.9971 28.0104Z" fill="#F26322"/>
<path d="M80.4618 29.4001C80.4208 29.4001 80.386 29.3562 80.386 29.3027V28.4071C80.386 28.1547 80.1778 28.0107 79.8149 28.0107C79.3904 28.0107 79.1979 28.167 79.2011 28.525C79.2011 28.5305 79.2011 28.5346 79.2011 28.5387C79.2011 28.5387 79.2011 28.547 79.2011 28.5511L79.5482 28.5387C79.5482 28.3892 79.5782 28.2521 79.7991 28.2521C79.9569 28.2521 80.0247 28.3179 80.0247 28.4715C80.0247 28.6005 79.9521 28.6293 79.8306 28.6594L79.5561 28.7267C79.3115 28.798 79.1395 28.8762 79.1395 29.23C79.1395 29.5222 79.3068 29.6827 79.6097 29.6827C79.7896 29.6827 79.9174 29.6223 79.9995 29.4989C80.0121 29.4824 80.0279 29.4673 80.0389 29.4481C80.0515 29.5839 80.1604 29.6593 80.3482 29.6593C80.405 29.6593 80.4634 29.647 80.5359 29.6086V29.3836L80.5138 29.3932C80.5044 29.3987 80.4839 29.4001 80.4618 29.4001ZM80.0247 29.0641C80.0247 29.2959 79.9174 29.4234 79.7249 29.4234C79.575 29.4234 79.5214 29.3082 79.5214 29.2012C79.5214 29.1176 79.545 29.0078 79.6555 28.9598C79.6934 28.9434 79.7438 28.9296 79.7959 28.9132C79.878 28.8871 79.9647 28.8624 80.0247 28.8281V29.0641Z" fill="#F26322"/>
<path d="M81.313 28.8898L81.2247 29.2794L80.9091 28.0504H80.5131L81.0006 29.6415H81.4219L81.8905 28.0504L81.4819 28.0614L81.313 28.8898Z" fill="#F26322"/>
<path d="M82.646 28.0104C82.201 28.0104 81.9833 28.2916 81.9833 28.869C81.9833 29.5891 82.3336 29.681 82.6397 29.681C83.0168 29.681 83.255 29.4711 83.2535 29.1187C83.2535 29.1132 83.2535 29.1091 83.2535 29.1036C83.2535 29.1036 83.2535 29.0953 83.2535 29.0898L82.9063 29.1036C82.9063 29.1598 82.8937 29.4396 82.6412 29.4396C82.3888 29.4396 82.3635 29.1913 82.3635 28.976L82.3478 28.8992L83.2771 28.8855V28.7195C83.2771 28.2148 83.0925 28.009 82.6444 28.009L82.646 28.0104ZM82.3651 28.6729V28.64C82.3651 28.4946 82.4014 28.2518 82.6428 28.2518C82.8543 28.2518 82.8969 28.4342 82.8969 28.5865L82.9126 28.6578L82.3651 28.6715V28.6729Z" fill="#F26322"/>
<path d="M93.3877 28.0104C92.9427 28.0104 92.725 28.2916 92.725 28.869C92.725 29.5891 93.0753 29.681 93.3814 29.681C93.7585 29.681 93.9952 29.4711 93.9952 29.1187C93.9952 29.1132 93.9952 29.1091 93.9952 29.1036C93.9952 29.1036 93.9952 29.0953 93.9952 29.0898L93.648 29.1036C93.648 29.1598 93.6354 29.4396 93.3829 29.4396C93.1305 29.4396 93.1052 29.1913 93.1052 28.976L93.0895 28.8992L94.0188 28.8855V28.7195C94.0188 28.2148 93.8358 28.009 93.3861 28.009L93.3877 28.0104ZM93.1068 28.6729V28.64C93.1068 28.4946 93.1431 28.2518 93.3845 28.2518C93.596 28.2518 93.6386 28.4342 93.6386 28.5865L93.6543 28.6578L93.1068 28.6715V28.6729Z" fill="#F26322"/>
<path d="M84.3257 28.0107C84.1474 28.0107 83.9943 28.0834 83.9107 28.2068C83.9012 28.2178 83.8886 28.2288 83.8807 28.2411L83.8665 28.0505L83.5194 28.0642L83.5336 29.6415L83.8997 29.6278V28.5785C83.8997 28.3783 84.037 28.2864 84.1648 28.2864C84.332 28.2864 84.3935 28.3591 84.3935 28.5552L84.4093 29.6415H84.7754V28.4482C84.7754 28.1533 84.6271 28.0107 84.3257 28.0107Z" fill="#F26322"/>
<path d="M85.6662 28.0107C85.0698 28.0107 85.0004 28.488 85.0004 28.846C85.0004 29.4015 85.2244 29.6827 85.6662 29.6827C86.108 29.6827 86.3352 29.4097 86.3352 28.846C86.3352 28.488 86.2658 28.0107 85.6662 28.0107ZM85.6662 29.4234C85.4248 29.4234 85.3822 29.2369 85.3822 28.846C85.3822 28.5003 85.4311 28.2699 85.6662 28.2699C85.9013 28.2699 85.9534 28.4907 85.9534 28.846C85.9534 29.2369 85.9108 29.4234 85.6662 29.4234Z" fill="#F26322"/>
<path d="M87.4317 28.0641V29.1573C87.4317 29.3287 87.2961 29.4055 87.1604 29.4055C87.0041 29.4055 86.9379 29.3397 86.9379 29.1861L86.9221 28.0504L86.556 28.0641V29.1573C86.556 29.5194 86.6949 29.6826 87.0073 29.6826C87.1872 29.6826 87.3418 29.6085 87.4239 29.4837C87.4333 29.4728 87.4428 29.4632 87.4507 29.4508L87.4649 29.6415L87.812 29.6277L87.7962 28.0504L87.4302 28.0641H87.4317Z" fill="#F26322"/>
<path d="M88.8682 28.7294L88.6442 28.6608C88.458 28.6018 88.4075 28.5552 88.4075 28.4441C88.4075 28.2781 88.5558 28.2535 88.6426 28.2535C88.7862 28.2535 88.8588 28.3303 88.8588 28.4811L88.8745 28.5346L89.2217 28.5209V28.451C89.2217 28.2864 89.1491 28.0107 88.6615 28.0107C88.2655 28.0107 88.0477 28.1684 88.0477 28.4537C88.0477 28.702 88.155 28.8309 88.4312 28.9159L88.7183 29.0065C88.8382 29.0435 88.8998 29.1162 88.8998 29.2232C88.8998 29.3658 88.8051 29.4399 88.6284 29.4399C88.4517 29.4399 88.3696 29.3603 88.3696 29.1738L88.3538 29.1107L88.0272 29.1244V29.182C88.0272 29.5263 88.2087 29.6799 88.6173 29.6799C89.026 29.6799 89.2595 29.5016 89.2595 29.1902C89.2595 28.9447 89.1459 28.8117 88.8698 28.7267L88.8682 28.7294Z" fill="#F26322"/>
<path d="M90.7934 28.0641V29.1573C90.7934 29.3287 90.6578 29.4055 90.5221 29.4055C90.3658 29.4055 90.2996 29.3397 90.2996 29.1861L90.2854 28.0504L89.9193 28.0641V29.1573C89.9193 29.5194 90.0582 29.6826 90.3706 29.6826C90.5505 29.6826 90.7051 29.6085 90.7871 29.4837C90.7966 29.4728 90.8076 29.4632 90.814 29.4508L90.8282 29.6415L91.1737 29.6277L91.1595 28.0504L90.7934 28.0641Z" fill="#F26322"/>
<path d="M92.2044 28.7294L91.9803 28.6608C91.7941 28.6018 91.7436 28.5552 91.7436 28.4441C91.7436 28.2781 91.892 28.2535 91.9787 28.2535C92.1223 28.2535 92.1933 28.3303 92.1933 28.4811L92.2091 28.5346L92.5563 28.5209V28.451C92.5563 28.2864 92.4837 28.0107 91.9945 28.0107C91.5985 28.0107 91.3807 28.1684 91.3807 28.4537C91.3807 28.702 91.488 28.8309 91.7642 28.9159L92.0513 29.0065C92.1713 29.0435 92.2328 29.1162 92.2328 29.2232C92.2328 29.3658 92.1397 29.4399 91.9614 29.4399C91.7831 29.4399 91.7042 29.3603 91.7042 29.1738L91.6884 29.1107L91.3602 29.1244V29.182C91.3602 29.5263 91.5433 29.6799 91.9519 29.6799C92.3606 29.6799 92.5941 29.5016 92.5941 29.1902C92.5941 28.9447 92.4805 28.8117 92.2044 28.7267V28.7294Z" fill="#F26322"/>
<path d="M101.094 27.2096H101.383L100.6 29.6414H100.311L101.094 27.2096Z" fill="#F26322"/>
<path d="M104.674 29.3301H103.873L103.86 27.5388L103.475 27.5525L103.489 29.6415H103.742H103.876H104.677L104.674 29.3301Z" fill="#F26322"/>
<path d="M94.725 29.1161L95.0942 29.0736C95.1037 29.1642 95.1305 29.2341 95.1841 29.2862C95.2378 29.3383 95.2977 29.363 95.3624 29.363C95.4397 29.363 95.5044 29.3301 95.5597 29.2643C95.6149 29.1984 95.6417 29.0969 95.6417 28.9598C95.6417 28.8309 95.6149 28.7348 95.5597 28.6731C95.5044 28.6114 95.435 28.5799 95.3514 28.5799C95.2441 28.5799 95.1478 28.6306 95.0626 28.7307L94.7723 28.6841L94.9632 27.6115H95.9352L95.9462 27.9297H95.2346L95.1747 28.3316C95.2583 28.2877 95.3451 28.2658 95.4303 28.2658C95.5833 28.2658 95.7143 28.3179 95.82 28.4235C95.9557 28.5579 96.022 28.7348 96.022 28.9543C96.022 29.1353 95.9652 29.3013 95.85 29.4536C95.7348 29.6058 95.5707 29.6812 95.3577 29.6812C95.1857 29.6812 95.0405 29.6319 94.9254 29.5345C94.8102 29.4371 94.7486 29.2972 94.725 29.1161Z" fill="#F26322"/>
</svg>
