<svg width="191" height="37" viewBox="0 0 191 37" fill="none" xmlns="http://www.w3.org/2000/svg">
<g clip-path="url(#clip0_335_863)">
<path d="M33.2373 9.40876C33.2373 5.18813 36.4048 1.7294 40.9107 1.7294C43.6543 1.7294 45.3077 2.68478 46.737 4.0453L45.0594 5.97421C43.8662 4.86766 42.5944 4.12995 40.8926 4.12995C38.0642 4.12995 35.9808 6.464 35.9808 9.37248V9.4148C35.9808 12.3233 38.04 14.6755 40.8926 14.6755C42.7216 14.6755 43.8905 13.9559 45.1623 12.7647L46.8399 14.4638C45.2895 16.0783 43.5877 17.0942 40.8017 17.0942C36.4654 17.0942 33.2373 13.7201 33.2373 9.45713V9.40876Z" fill="white"/>
<path d="M48.1602 13.6112V13.5689C48.1602 11.1502 50.0498 9.95901 52.7934 9.95901C54.047 9.95901 54.9373 10.1525 55.8094 10.4246V10.1465C55.8094 8.55617 54.8344 7.70358 53.0235 7.70358C51.7698 7.70358 50.8371 7.98173 49.8136 8.405L49.1353 6.39143C50.3708 5.84118 51.5821 5.47838 53.3626 5.47838C55.0403 5.47838 56.2939 5.92584 57.0813 6.73005C57.911 7.53427 58.2925 8.72548 58.2925 10.1888V16.8281H55.7852V15.4253C55.0221 16.3383 53.8532 17.0579 52.1271 17.0579C50.0256 17.0579 48.1542 15.8485 48.1542 13.5991L48.1602 13.6112ZM55.8579 12.807V12.0451C55.1977 11.7912 54.3256 11.5977 53.3081 11.5977C51.6487 11.5977 50.6736 12.2991 50.6736 13.4661V13.5084C50.6736 14.5908 51.6305 15.2076 52.866 15.2076C54.5679 15.2076 55.8639 14.2341 55.8639 12.807H55.8579Z" fill="white"/>
<path d="M63.5313 5.62955V7.34682C64.252 6.30678 65.2937 5.39372 67.038 5.39372C69.5695 5.39372 71.0352 7.09286 71.0352 9.68086V16.8342H68.4612V10.4669C68.4612 8.72548 67.5891 7.72776 66.0568 7.72776C64.5246 7.72776 63.5252 8.7678 63.5252 10.5093V16.8342H60.9513V5.62955H63.5313Z" fill="white"/>
<path d="M73.0338 11.2953V11.253C73.0338 8.07243 75.4987 5.39372 78.8782 5.39372C80.9797 5.39372 82.3 6.1798 83.3659 7.32263L81.7489 9.03991C80.9616 8.2115 80.1318 7.63706 78.86 7.63706C76.9886 7.63706 75.6077 9.25154 75.6077 11.2046V11.247C75.6077 13.2424 76.9886 14.8327 78.969 14.8327C80.1803 14.8327 81.0706 14.2824 81.8821 13.454L83.4326 14.9839C82.3242 16.2174 81.0282 17.0821 78.8418 17.0821C75.5048 17.0821 73.0398 14.4699 73.0398 11.2893L73.0338 11.2953Z" fill="white"/>
<path d="M84.5954 11.2772V11.2349C84.5954 8.0301 86.8665 5.39977 90.0764 5.39977C93.6497 5.39977 95.4545 8.19941 95.4545 11.4284C95.4545 11.6642 95.4302 11.894 95.4121 12.1479H87.1633C87.4419 13.974 88.7379 14.9899 90.3913 14.9899C91.645 14.9899 92.5353 14.5243 93.4316 13.6536L94.9397 14.9899C93.8798 16.2658 92.4081 17.0881 90.3489 17.0881C87.0967 17.0881 84.5893 14.7299 84.5893 11.2712L84.5954 11.2772ZM92.9047 10.4488C92.7352 8.79199 91.754 7.49799 90.0582 7.49799C88.4836 7.49799 87.3813 8.70734 87.1451 10.4488H92.9047Z" fill="white"/>
<path d="M100.16 5.62955V8.15708C100.863 6.48214 102.159 5.33326 104.133 5.41791V8.1329H103.982C101.729 8.1329 100.154 9.59621 100.154 12.5652V16.8281H97.5803V5.62955H100.16Z" fill="white"/>
<path d="M112.449 4.40206H107.731V1.98336H119.801V4.40206H115.083V16.8402H112.449V4.40206Z" fill="white"/>
<path d="M124.398 1.34241V7.34682C125.119 6.30678 126.16 5.39372 127.905 5.39372C130.436 5.39372 131.902 7.09286 131.902 9.68086V16.8342H129.328V10.4669C129.328 8.72548 128.456 7.72776 126.923 7.72776C125.391 7.72776 124.392 8.7678 124.392 10.5093V16.8342H121.818V1.34241H124.398Z" fill="white"/>
<path d="M133.9 11.2772V11.2349C133.9 8.0301 136.172 5.39977 139.381 5.39977C142.949 5.39977 144.759 8.19941 144.759 11.4284C144.759 11.6642 144.735 11.894 144.717 12.1479H136.468C136.747 13.974 138.043 14.9899 139.696 14.9899C140.95 14.9899 141.84 14.5243 142.737 13.6536L144.245 14.9899C143.179 16.2658 141.713 17.0881 139.654 17.0881C136.402 17.0881 133.894 14.7299 133.894 11.2712L133.9 11.2772ZM142.21 10.4488C142.04 8.79199 141.059 7.49799 139.363 7.49799C137.789 7.49799 136.686 8.70734 136.45 10.4488H142.21Z" fill="white"/>
<path d="M149.459 5.62955V8.15708C150.162 6.48214 151.458 5.33326 153.432 5.41791V8.1329H153.281C151.028 8.1329 149.453 9.59621 149.453 12.5652V16.8281H146.879V5.62955H149.459Z" fill="white"/>
<path d="M154.304 13.6112V13.5689C154.304 11.1502 156.194 9.95901 158.937 9.95901C160.191 9.95901 161.081 10.1525 161.954 10.4246V10.1465C161.954 8.55617 160.972 7.70358 159.168 7.70358C157.914 7.70358 156.975 7.98173 155.958 8.405L155.279 6.39143C156.515 5.84118 157.726 5.47838 159.507 5.47838C161.184 5.47838 162.438 5.92584 163.225 6.73005C164.055 7.53427 164.437 8.72548 164.437 10.1888V16.8281H161.929V15.4253C161.166 16.3383 159.997 17.0579 158.271 17.0579C156.17 17.0579 154.298 15.8485 154.298 13.5991L154.304 13.6112ZM162.002 12.807V12.0451C161.342 11.7912 160.47 11.5977 159.452 11.5977C157.793 11.5977 156.818 12.2991 156.818 13.4661V13.5084C156.818 14.5908 157.775 15.2076 159.01 15.2076C160.712 15.2076 162.008 14.2341 162.008 12.807H162.002Z" fill="white"/>
<path d="M167.126 5.62954H169.7V7.49799C170.529 6.33097 171.698 5.39977 173.527 5.39977C176.162 5.39977 178.736 7.47985 178.736 11.2167V11.2591C178.736 14.9718 176.186 17.076 173.527 17.076C171.656 17.076 170.487 16.1448 169.7 15.1048V20.2385H167.126V5.62954ZM176.119 11.253V11.2107C176.119 9.04595 174.654 7.62497 172.909 7.62497C171.165 7.62497 169.639 9.07014 169.639 11.2107V11.253C169.639 13.3936 171.171 14.8387 172.909 14.8387C174.648 14.8387 176.119 13.4601 176.119 11.253Z" fill="white"/>
<path d="M188.317 5.62955H190.994L186.53 17.1546C185.64 19.4463 184.641 20.2929 182.83 20.2929C181.764 20.2929 180.958 20.0389 180.171 19.6157L181.043 17.7049C181.51 17.9588 182.024 18.1282 182.551 18.1282C183.272 18.1282 183.72 17.8077 184.144 16.8523L179.469 5.6235H182.23L185.398 13.9438L188.311 5.6235L188.317 5.62955Z" fill="white"/>
<path d="M38.2279 23.9936H39.5179L45.0837 36.2745H43.5999L42.1706 33.0516H35.5207L34.0732 36.2745H32.6621L38.2279 23.9936ZM41.6316 31.7999L38.8578 25.5959L36.0658 31.7999H41.6316Z" fill="white"/>
<path d="M47.0036 24.0782H51.2431C55.0828 24.0782 57.7355 26.7085 57.7355 30.1431V30.1794C57.7355 33.6139 55.0828 36.2745 51.2431 36.2745H47.0036V24.0782ZM48.3845 25.348V34.9986H51.2431C54.3318 34.9986 56.3002 32.9065 56.3002 30.2096V30.1733C56.3002 27.4765 54.3318 25.348 51.2431 25.348H48.3845Z" fill="white"/>
<path d="M58.5168 24.0782H60.0551L64.3975 34.5814L68.7581 24.0782H70.2419L64.9911 36.3591H63.7677L58.5168 24.0782Z" fill="white"/>
<path d="M72.2587 24.0782H73.6396V36.2745H72.2587V24.0782Z" fill="white"/>
<path d="M75.8017 34.4967L76.6556 33.4869C77.9275 34.6358 79.1509 35.2103 80.8406 35.2103C82.5303 35.2103 83.5599 34.3395 83.5599 33.1362V33.0999C83.5599 31.9692 82.9482 31.3222 80.3864 30.784C77.5762 30.1733 76.2862 29.2663 76.2862 27.2648V27.2286C76.2862 25.3117 77.9759 23.9029 80.2955 23.9029C82.0761 23.9029 83.3479 24.4108 84.5895 25.4024L83.784 26.4667C82.6515 25.5415 81.5189 25.1424 80.2592 25.1424C78.6724 25.1424 77.661 26.0132 77.661 27.1076V27.1439C77.661 28.2928 78.2909 28.9398 80.9738 29.5142C83.6931 30.1068 84.9529 31.0985 84.9529 32.9609V32.9972C84.9529 35.0893 83.2086 36.4438 80.78 36.4438C78.842 36.4438 77.2552 35.7968 75.7896 34.4907L75.8017 34.4967Z" fill="white"/>
<path d="M86.4246 30.2096V30.1733C86.4246 26.8113 88.9561 23.8666 92.6687 23.8666C96.3813 23.8666 98.8826 26.7751 98.8826 30.137V30.1733C98.8826 33.5353 96.351 36.4801 92.6384 36.4801C88.9259 36.4801 86.4246 33.5716 86.4246 30.2096ZM97.4532 30.2096V30.1733C97.4532 27.4039 95.4304 25.1364 92.6384 25.1364C89.8464 25.1364 87.8599 27.3676 87.8599 30.137V30.1733C87.8599 32.9427 89.8828 35.2103 92.6748 35.2103C95.4668 35.2103 97.4532 32.979 97.4532 30.2096Z" fill="white"/>
<path d="M101.166 24.0782H106.417C107.919 24.0782 109.118 24.5317 109.887 25.2997C110.481 25.8922 110.832 26.7448 110.832 27.7063V27.7425C110.832 29.7621 109.439 30.9473 107.519 31.298L111.268 36.2805H109.578L106.035 31.5399H102.547V36.2805H101.166V24.0782ZM106.296 30.3003C108.125 30.3003 109.439 29.357 109.439 27.7909V27.7546C109.439 26.255 108.288 25.348 106.314 25.348H102.547V30.2943H106.302L106.296 30.3003Z" fill="white"/>
<path d="M16.7457 4.80111C18.072 4.80111 19.1501 3.72479 19.1501 2.40056C19.1501 1.07632 18.072 0 16.7457 0C15.4193 0 14.3413 1.07632 14.3413 2.40056C14.3413 3.72479 15.4193 4.80111 16.7457 4.80111Z" fill="white"/>
<path d="M23.3411 16.5016C23.0019 14.5122 19.9253 12.8251 13.0331 9.58408C13.5964 9.0036 14.1536 8.42916 14.7168 7.86681C15.2377 7.34679 15.2377 6.50025 14.7168 5.98023C14.196 5.46021 13.3481 5.46021 12.8272 5.98023C12.809 5.99837 11.8582 6.9477 10.4955 8.38683C7.2069 6.83282 3.14913 4.81321 2.66462 3.85177C2.53138 3.22896 1.98025 2.79359 1.35644 2.79359C1.28376 2.79359 1.20503 2.79964 1.13235 2.81173C0.39953 2.94476 -0.08498 3.63409 0.0361476 4.3597C0.345023 6.16768 2.92504 7.73378 8.5817 10.4427C7.86099 11.2288 7.10394 12.0693 6.35295 12.934C0.393474 19.7607 -0.181882 22.0041 0.0361476 23.292C0.369248 25.2391 3.33082 26.9019 9.92621 30.016C9.60522 30.3244 7.07972 32.864 6.74662 33.1724C6.21365 33.6803 6.18943 34.5269 6.69816 35.059C7.2069 35.5911 8.05479 35.6153 8.58775 35.1074C9.08438 34.6357 11.8764 31.8482 12.5123 31.2254C15.8554 32.8036 20.2099 34.9381 20.7126 35.9358C20.8459 36.5586 21.397 36.994 22.0208 36.994C22.0935 36.994 22.1722 36.9879 22.2449 36.9758C22.9717 36.8549 23.4622 36.1595 23.335 35.4339C23.0201 33.5957 20.3614 32.0114 14.5169 29.2178C18.7443 24.9065 23.7893 19.1198 23.335 16.4955L23.3411 16.5016ZM11.949 28.0206C8.56958 26.4424 3.28842 23.9451 2.67067 22.8204C2.70701 21.4115 6.58915 16.5076 11.1012 11.6339C11.1012 11.6339 11.1133 11.6339 11.1193 11.64C14.4746 13.2121 20.0646 15.8243 20.7005 16.9853C20.6642 18.1946 17.2787 22.6329 11.949 28.0206Z" fill="white"/>
</g>
<defs>
<clipPath id="clip0_335_863">
<rect width="191" height="37" fill="white"/>
</clipPath>
</defs>
</svg>
