<svg width="129" height="37" viewBox="0 0 129 37" fill="none" xmlns="http://www.w3.org/2000/svg">
<path d="M3.17907 34.3882C3.16982 34.3781 3.15502 34.3714 3.13836 34.3714H3.05509C3.02364 34.3714 2.99403 34.3933 2.98848 34.4218L2.62395 36.3038C2.62025 36.3189 2.62395 36.3324 2.63505 36.3425C2.6443 36.3526 2.6591 36.3593 2.67576 36.3593H2.75903C2.79048 36.3593 2.82009 36.3374 2.82564 36.3088L3.19017 34.4269C3.19387 34.4134 3.19017 34.3983 3.17907 34.3882ZM4.60019 34.3882C4.59094 34.3781 4.57613 34.3714 4.55948 34.3714H4.47621C4.44475 34.3714 4.41515 34.3933 4.4096 34.4218L4.10243 36.0061L3.72679 34.4202C3.72124 34.3916 3.69164 34.3697 3.65833 34.3697H3.5325C3.50104 34.3697 3.47144 34.3916 3.46588 34.4202L3.0995 36.3021C3.09765 36.3173 3.0995 36.3307 3.11061 36.3408C3.11986 36.3509 3.13466 36.3576 3.15131 36.3576H3.23458C3.26604 36.3576 3.29565 36.3358 3.3012 36.3072L3.60837 34.7263L3.9914 36.3072C3.99695 36.3358 4.02841 36.3576 4.05987 36.3576H4.18014C4.2116 36.3576 4.24121 36.3358 4.24676 36.3072L4.61129 34.4252C4.61314 34.4118 4.61129 34.3966 4.60019 34.3865M6.45801 35.2274H5.88808C5.88808 35.2274 5.87512 35.2258 5.87142 35.2224C5.86772 35.2173 5.86587 35.2123 5.86772 35.2056L5.98985 34.5783C5.9917 34.5631 6.00835 34.5513 6.02501 34.5513H6.66155C6.69301 34.5513 6.72261 34.5295 6.72817 34.5009L6.74297 34.4269C6.74667 34.4134 6.74297 34.3983 6.73187 34.3882C6.72261 34.3781 6.70781 34.3714 6.69116 34.3714H5.88438C5.85292 34.3714 5.82331 34.3933 5.81776 34.4218L5.45138 36.3038C5.44953 36.3189 5.45138 36.3324 5.46248 36.3425C5.47173 36.3526 5.48654 36.3593 5.50319 36.3593H6.32292C6.35438 36.3593 6.38399 36.3374 6.38954 36.3088L6.40434 36.2348C6.40804 36.2214 6.40434 36.2063 6.39324 36.1962C6.38399 36.1861 6.36919 36.1793 6.35253 36.1793H5.70304C5.70304 36.1793 5.69008 36.1777 5.68638 36.1743C5.68268 36.1693 5.68083 36.1642 5.68268 36.1592L5.82331 35.4377C5.82701 35.4225 5.84182 35.4108 5.85847 35.4108H6.4284C6.45986 35.4108 6.48946 35.3889 6.49501 35.3603L6.50982 35.2863C6.51167 35.2728 6.50982 35.2577 6.49871 35.2476C6.48946 35.2375 6.47466 35.2308 6.45801 35.2308M34.0403 35.2308H33.4704C33.4704 35.2308 33.4574 35.2291 33.4537 35.2258C33.45 35.2207 33.4482 35.2157 33.45 35.2089L33.5721 34.5816C33.574 34.5665 33.5906 34.5547 33.6073 34.5547H34.2438C34.2753 34.5547 34.3049 34.5328 34.3104 34.5043L34.3252 34.4303C34.3271 34.4168 34.3252 34.4017 34.3141 34.3916C34.3049 34.3815 34.2901 34.3748 34.2734 34.3748H33.4667C33.4352 34.3748 33.4056 34.3966 33.4 34.4252L33.0355 36.3072C33.0337 36.3223 33.0355 36.3358 33.0466 36.3458C33.0559 36.3559 33.0707 36.3627 33.0873 36.3627H33.9071C33.9385 36.3627 33.9681 36.3408 33.9737 36.3122L33.9885 36.2382C33.9903 36.2248 33.9885 36.2096 33.9774 36.1995C33.9663 36.1894 33.9533 36.1827 33.9367 36.1827H33.2872C33.2872 36.1827 33.2742 36.181 33.2705 36.1777C33.2668 36.1726 33.265 36.1676 33.265 36.1625L33.4056 35.441C33.4093 35.4259 33.4241 35.4141 33.4407 35.4141H34.0107C34.0421 35.4141 34.0717 35.3923 34.0773 35.3637L34.0921 35.2897C34.0958 35.2762 34.0921 35.2611 34.081 35.251C34.0699 35.2409 34.0551 35.2342 34.0403 35.2342M7.47203 34.3293C6.94466 34.3293 6.77443 34.8911 6.69116 35.3132C6.62824 35.6344 6.54312 36.0751 6.74112 36.2903C6.81514 36.3711 6.92616 36.4114 7.06679 36.4114C7.47388 36.4114 7.71629 36.0482 7.77735 35.6883L7.78105 35.6714H7.63487C7.60896 35.6714 7.58121 35.6883 7.5701 35.7101C7.51089 35.954 7.38321 36.2315 7.1149 36.2315C7.02423 36.2315 6.95762 36.2063 6.90951 36.1541C6.76147 35.9927 6.83549 35.6143 6.8799 35.3872L6.891 35.3283C6.94281 35.0626 7.04829 34.5076 7.43687 34.5076C7.52014 34.5076 7.58306 34.5312 7.62932 34.5766C7.71259 34.6623 7.71814 34.8103 7.70518 34.9298C7.71259 34.9516 7.73479 34.9684 7.76255 34.9684H7.90318V34.9567C7.94574 34.7464 7.90873 34.5682 7.80511 34.4555C7.72739 34.3714 7.61451 34.3277 7.47203 34.3277M9.12445 34.5043L9.13926 34.4303C9.14296 34.4168 9.13926 34.4017 9.12815 34.3916C9.1189 34.3815 9.1041 34.3748 9.08744 34.3748H8.11043C8.07897 34.3748 8.04936 34.3966 8.04381 34.4252L8.02901 34.4992C8.02531 34.5143 8.02901 34.5278 8.04011 34.5379C8.04936 34.548 8.06416 34.5547 8.08082 34.5547H8.44165C8.44165 34.5547 8.4546 34.5581 8.4583 34.5614C8.462 34.5648 8.46385 34.5715 8.462 34.5766L8.12523 36.3072C8.12338 36.3223 8.12523 36.3358 8.13633 36.3458C8.14558 36.3559 8.16039 36.3627 8.17704 36.3627H8.26216C8.29362 36.3627 8.32322 36.3408 8.32877 36.3122L8.66555 34.5816C8.6674 34.5665 8.68405 34.5547 8.70071 34.5547H9.06154C9.093 34.5547 9.1226 34.5328 9.12815 34.5043M9.44087 34.3748H9.35575C9.3243 34.3748 9.29469 34.3966 9.28914 34.4252L8.92461 36.3072C8.92091 36.3223 8.92461 36.3358 8.93571 36.3458C8.94496 36.3559 8.95976 36.3627 8.97642 36.3627H9.05969C9.09114 36.3627 9.12075 36.3408 9.1263 36.3122L9.49083 34.4303C9.49268 34.4168 9.49083 34.4017 9.47973 34.3916C9.47048 34.3815 9.45568 34.3748 9.43902 34.3748M10.6862 34.4521C10.6103 34.3697 10.4956 34.3277 10.3494 34.3277C9.82021 34.3277 9.64997 34.8894 9.5667 35.3115C9.50749 35.6143 9.41867 36.0717 9.61851 36.2887C9.69253 36.3694 9.80355 36.4098 9.94419 36.4098C10.5437 36.4098 10.6695 35.7606 10.7362 35.4124C10.7972 35.0963 10.8823 34.664 10.6844 34.4521M10.5419 35.3637L10.5363 35.399C10.479 35.6899 10.3772 36.2315 9.9886 36.2315C9.89793 36.2315 9.83131 36.2063 9.7832 36.1541C9.63517 35.9927 9.70918 35.6143 9.75359 35.3872L9.75914 35.3569C9.81281 35.0828 9.92383 34.5093 10.3106 34.5093C10.3975 34.5093 10.4623 34.5345 10.5104 34.5867C10.6621 34.7515 10.5863 35.1518 10.5437 35.3653M12.235 34.3764H12.1517C12.1203 34.3764 12.0907 34.3983 12.0851 34.4269L11.7779 36.0112L11.4023 34.4252C11.3968 34.3966 11.3653 34.3748 11.3338 34.3748H11.208C11.1766 34.3748 11.147 34.3966 11.1414 34.4252L10.7769 36.3072C10.7732 36.3223 10.7769 36.3358 10.788 36.3458C10.7972 36.3559 10.812 36.3627 10.8287 36.3627H10.912C10.9434 36.3627 10.973 36.3408 10.9786 36.3122L11.2857 34.7313L11.6669 36.3122C11.6743 36.3408 11.7039 36.3627 11.7354 36.3627H11.8575C11.889 36.3627 11.9186 36.3408 11.9241 36.3122L12.2887 34.4303C12.2924 34.4168 12.2887 34.4017 12.2776 34.3916C12.2683 34.3815 12.2535 34.3748 12.2368 34.3748M5.56055 34.4303C5.56425 34.4151 5.56055 34.4017 5.54945 34.3916C5.5402 34.3815 5.5254 34.3748 5.50874 34.3748H5.42547C5.39402 34.3748 5.36441 34.3966 5.35886 34.4252L5.20898 35.2005L5.07019 35.9187C5.03874 36.0835 4.99433 36.2315 4.80744 36.2315C4.74822 36.2315 4.70381 36.2163 4.67606 36.1861C4.62609 36.1323 4.6298 36.033 4.6446 35.9338C4.65015 35.8951 4.65755 35.8581 4.66495 35.8228L4.66865 35.8043C4.66865 35.7942 4.66865 35.7875 4.66125 35.7808C4.652 35.7707 4.6335 35.7639 4.61314 35.7639H4.52987C4.49842 35.7639 4.46881 35.7858 4.46326 35.8144L4.44475 35.9119C4.44475 35.9187 4.44475 35.9254 4.44105 35.9338C4.41515 36.1087 4.44105 36.2416 4.51507 36.3223C4.57243 36.3828 4.65385 36.4131 4.76303 36.4131C5.04244 36.4131 5.20898 36.2567 5.27004 35.9355L5.48839 34.8103L5.5624 34.4336L5.56055 34.4303ZM13.6857 35.2325H13.1158C13.1158 35.2325 13.1028 35.2308 13.0991 35.2274C13.0954 35.2224 13.0936 35.2173 13.0954 35.2106L13.2176 34.5833C13.2194 34.5682 13.2361 34.5564 13.2527 34.5564H13.9022C13.9337 34.5564 13.9633 34.5345 13.9688 34.5059L13.9836 34.4319C13.9873 34.4185 13.9836 34.4033 13.9725 34.3933C13.9633 34.3832 13.9485 34.3764 13.9318 34.3764H13.1121C13.0806 34.3764 13.051 34.3983 13.0455 34.4269L12.6809 36.3088C12.6772 36.324 12.6809 36.3374 12.6921 36.3475C12.7013 36.3576 12.7161 36.3643 12.7328 36.3643H12.8179C12.8493 36.3643 12.8789 36.3425 12.8845 36.3139L13.0547 35.4393C13.0566 35.4242 13.0732 35.4124 13.0899 35.4124H13.6598C13.6913 35.4124 13.7209 35.3906 13.7264 35.362L13.7412 35.288C13.7449 35.2745 13.7412 35.2594 13.7301 35.2493C13.7209 35.2392 13.7061 35.2325 13.6894 35.2325M15.0254 34.4521C14.9496 34.3697 14.8348 34.3277 14.6868 34.3277C14.1576 34.3277 13.9855 34.8894 13.9041 35.3115C13.8467 35.6143 13.756 36.0717 13.9559 36.2887C14.0299 36.3694 14.1409 36.4098 14.2816 36.4098C14.8811 36.4098 15.0069 35.7606 15.0735 35.4124C15.1346 35.0963 15.2197 34.664 15.0236 34.4521M14.8811 35.3637L14.8755 35.3973C14.82 35.6883 14.7164 36.2298 14.3278 36.2298C14.2371 36.2298 14.1705 36.2046 14.1224 36.1524C13.9744 35.991 14.0484 35.6126 14.0928 35.3872L14.0984 35.3569C14.152 35.0828 14.2631 34.5093 14.6498 34.5093C14.7368 34.5093 14.8015 34.5345 14.8496 34.5867C15.0032 34.7532 14.9255 35.1518 14.8829 35.3653M15.8766 34.3764H15.5398C15.5084 34.3764 15.4788 34.3983 15.4732 34.4269L15.464 34.479L15.4547 34.5261L15.1087 36.3088C15.1068 36.324 15.1087 36.3374 15.1198 36.3475C15.129 36.3576 15.1439 36.3643 15.1605 36.3643H15.2456C15.2771 36.3643 15.3067 36.3425 15.3122 36.3139L15.4011 35.8548L15.4769 35.4679C15.4806 35.4528 15.4954 35.441 15.5121 35.441H15.6453C15.773 35.441 15.9044 35.4461 15.9691 35.5133C16.0098 35.5554 16.0246 35.6176 16.0135 35.7051C16.0098 35.7353 16.0043 35.7757 15.9969 35.8194C15.9691 35.9893 15.934 36.2214 15.9673 36.3526L15.971 36.3643H16.1264C16.1579 36.3643 16.1856 36.3492 16.1893 36.329V36.3206L16.1819 36.3156C16.1172 36.2769 16.1634 36.0145 16.1838 35.9018C16.1875 35.8749 16.1912 35.8531 16.1949 35.8379C16.2337 35.626 16.2504 35.4309 16.0524 35.3553C16.0524 35.3553 16.0561 35.3553 16.058 35.3519C16.0802 35.3452 16.1024 35.3351 16.1209 35.325C16.1246 35.325 16.1264 35.3216 16.1301 35.3199C16.1394 35.3149 16.1486 35.3065 16.1579 35.3014C16.1671 35.2947 16.1764 35.2897 16.1856 35.2829L16.193 35.2762C16.2097 35.2628 16.2263 35.2459 16.2411 35.2291C16.243 35.2258 16.2448 35.2241 16.2467 35.2224C16.2615 35.2056 16.2763 35.1871 16.2893 35.1686C16.2893 35.1669 16.293 35.1635 16.293 35.1618C16.3059 35.1417 16.3189 35.1232 16.3281 35.103C16.3281 35.1013 16.33 35.0979 16.3318 35.0963C16.3429 35.0761 16.3522 35.0542 16.3614 35.0323C16.3614 35.0323 16.3614 35.029 16.3614 35.0273C16.3707 35.0054 16.3781 34.9836 16.3836 34.9617C16.3836 34.9617 16.3836 34.96 16.3836 34.9583C16.3892 34.9365 16.3947 34.9146 16.4003 34.8928C16.4336 34.7195 16.4114 34.5934 16.3337 34.5076C16.2504 34.4168 16.1042 34.3748 15.8748 34.3748M16.1967 34.9012C16.1523 35.1265 16.0098 35.2089 15.9155 35.2409C15.9099 35.2409 15.9044 35.2443 15.8988 35.2459C15.8988 35.2459 15.8988 35.2459 15.897 35.2459C15.8729 35.2527 15.8507 35.256 15.8322 35.2577C15.8081 35.2577 15.7711 35.2594 15.7489 35.2594H15.5361C15.5361 35.2594 15.5232 35.2577 15.5195 35.2527C15.5158 35.2493 15.5139 35.2426 15.5158 35.2375L15.575 34.9298L15.6435 34.5816C15.6472 34.5665 15.662 34.5547 15.6786 34.5547H15.8822C16.0283 34.5547 16.1135 34.5783 16.1616 34.6304C16.2097 34.6825 16.2208 34.77 16.1967 34.9028M17.4883 34.3933C17.4791 34.3832 17.4643 34.3764 17.4476 34.3764H17.3625C17.331 34.3764 17.3014 34.3983 17.2959 34.4269L16.9314 36.3088C16.9295 36.324 16.9314 36.3374 16.9425 36.3475C16.9517 36.3576 16.9665 36.3643 16.9832 36.3643H17.0664C17.0979 36.3643 17.1275 36.3425 17.133 36.3139L17.4976 34.4319C17.5013 34.4185 17.4976 34.4033 17.4865 34.3933M18.8595 34.3764H18.7762C18.7448 34.3764 18.7152 34.3983 18.7096 34.4269L18.4024 36.0128L18.0268 34.4269C18.0194 34.3983 17.9898 34.3764 17.9583 34.3764H17.8325C17.801 34.3764 17.7714 34.3983 17.7659 34.4269L17.4014 36.3088C17.3977 36.324 17.4014 36.3374 17.4125 36.3475C17.4217 36.3576 17.4365 36.3643 17.4532 36.3643H17.5383C17.5697 36.3643 17.5994 36.3425 17.6049 36.3139L17.9121 34.733L18.2933 36.3139C18.2988 36.3425 18.3284 36.3643 18.3617 36.3643H18.482C18.5135 36.3643 18.5431 36.3425 18.5486 36.3139L18.9131 34.4319C18.915 34.4185 18.9131 34.4033 18.902 34.3933C18.8928 34.3832 18.878 34.3764 18.8613 34.3764M20.1104 34.5059L20.1252 34.4319C20.127 34.4185 20.1252 34.4033 20.1141 34.3933C20.1048 34.3832 20.09 34.3764 20.0734 34.3764H19.0963C19.0649 34.3764 19.0353 34.3983 19.0297 34.4269L19.0149 34.5009C19.0112 34.516 19.0149 34.5295 19.026 34.5396C19.0353 34.5497 19.0501 34.5564 19.0667 34.5564H19.4276C19.4276 34.5564 19.4405 34.5598 19.4442 34.5631C19.4479 34.5665 19.4498 34.5732 19.4479 34.5783L19.1111 36.3088C19.1074 36.324 19.1111 36.3374 19.1222 36.3475C19.1315 36.3576 19.1463 36.3643 19.1629 36.3643H19.2462C19.2777 36.3643 19.3073 36.3425 19.3128 36.3139L19.6496 34.5833C19.6533 34.5682 19.6681 34.5564 19.6848 34.5564H20.0456C20.0771 34.5564 20.1067 34.5345 20.1122 34.5059M22.0681 34.3764H21.9571C21.9275 34.3764 21.8942 34.3966 21.8831 34.4218L21.0078 36.3088C21.0023 36.3223 21.0023 36.3374 21.0097 36.3475C21.0171 36.3576 21.0319 36.3643 21.0485 36.3643H21.1281C21.1577 36.3643 21.191 36.3442 21.2021 36.3189L21.4464 35.7875C21.4538 35.7723 21.4741 35.7589 21.4926 35.7589H22.0052C22.0218 35.7589 22.0348 35.7707 22.0348 35.7858L22.0681 36.3105C22.0681 36.3391 22.0977 36.3627 22.1292 36.3627H22.2161C22.2328 36.3627 22.2476 36.3576 22.2568 36.3458C22.2679 36.3358 22.2735 36.3223 22.2716 36.3072L22.1292 34.4252C22.1273 34.3966 22.0996 34.3731 22.0663 34.3731M22.0144 35.5705C22.0144 35.5705 22.0033 35.5773 21.9959 35.5773H21.5574C21.5574 35.5773 21.5463 35.5756 21.5444 35.5722C21.5444 35.5688 21.5444 35.5655 21.5444 35.5604L21.9589 34.6539L22.02 35.5537C22.02 35.5537 22.02 35.5672 22.0144 35.5705ZM23.6854 34.3899C23.678 34.3798 23.6632 34.3731 23.6465 34.3731H23.5669C23.5373 34.3731 23.504 34.3933 23.4929 34.4185L22.7417 36.0717L22.6417 34.4252C22.6417 34.3966 22.6121 34.3731 22.5807 34.3731H22.4881C22.4715 34.3731 22.4567 34.3781 22.4456 34.3899C22.4363 34.4 22.4308 34.4134 22.4308 34.4286L22.5733 36.3088C22.5751 36.3374 22.6029 36.361 22.6362 36.361H22.7417C22.7713 36.361 22.8046 36.3408 22.8157 36.3156L23.6854 34.4286C23.6928 34.4151 23.6909 34.4 23.6854 34.3899ZM24.4403 35.2308H23.8704C23.8704 35.2308 23.8575 35.2291 23.8538 35.2258C23.8501 35.2207 23.8482 35.2157 23.8501 35.2089L23.9722 34.5816C23.9759 34.5665 23.9907 34.5547 24.0073 34.5547H24.6439C24.6753 34.5547 24.7049 34.5328 24.7105 34.5043L24.7253 34.4303C24.7271 34.4168 24.7253 34.4017 24.7142 34.3916C24.7049 34.3815 24.6901 34.3748 24.6735 34.3748H23.8667C23.8352 34.3748 23.8056 34.3966 23.8001 34.4252L23.4356 36.3072C23.4337 36.3223 23.4356 36.3358 23.4467 36.3458C23.4559 36.3559 23.4707 36.3627 23.4874 36.3627H24.3071C24.3386 36.3627 24.3682 36.3408 24.3737 36.3122L24.3885 36.2382C24.3922 36.2231 24.3885 36.2096 24.3774 36.1995C24.3682 36.1894 24.3534 36.1827 24.3367 36.1827H23.6872C23.6872 36.1827 23.6743 36.181 23.6706 36.1777C23.6669 36.1726 23.665 36.1676 23.6669 36.1625L23.8075 35.441C23.8112 35.4259 23.8278 35.4141 23.8426 35.4141H24.4144C24.4459 35.4141 24.4736 35.3923 24.481 35.3637L24.4958 35.2897C24.4995 35.2762 24.4958 35.2611 24.4847 35.251C24.4755 35.2409 24.4607 35.2342 24.444 35.2342M26.0742 34.3933C26.065 34.3832 26.0502 34.3764 26.0335 34.3764H25.9503C25.9188 34.3764 25.8892 34.3983 25.8837 34.4269L25.5765 36.0128L25.2009 34.4269C25.1935 34.3983 25.1638 34.3764 25.1324 34.3764H25.0066C24.9751 34.3764 24.9455 34.3983 24.9399 34.4269L24.5736 36.3088C24.5717 36.324 24.5736 36.3374 24.5847 36.3475C24.5939 36.3576 24.6087 36.3643 24.6254 36.3643H24.7105C24.7419 36.3643 24.7716 36.3425 24.7771 36.3139L25.0843 34.733L25.4655 36.3139C25.4729 36.3425 25.5025 36.3643 25.5339 36.3643H25.6542C25.6857 36.3643 25.7153 36.3425 25.7208 36.3139L26.0872 34.4319C26.0891 34.4185 26.0872 34.4033 26.0761 34.3933M26.9125 34.3293C26.3833 34.3293 26.213 34.8911 26.1298 35.3132C26.0705 35.6159 25.9817 36.0734 26.1816 36.2903C26.2556 36.3711 26.3666 36.4114 26.5091 36.4114C27.1086 36.4114 27.2326 35.7623 27.3011 35.4141C27.3621 35.0979 27.4454 34.6657 27.2493 34.4538C27.1734 34.3714 27.0605 34.3293 26.9106 34.3293M27.1068 35.3653L27.1012 35.4007C27.0457 35.6916 26.9421 36.2332 26.5535 36.2332C26.4647 36.2332 26.3962 36.2079 26.3481 36.1558C26.1982 35.9943 26.2741 35.6159 26.3167 35.3906L26.3222 35.3603C26.3759 35.0862 26.4869 34.5127 26.8736 34.5127C26.9606 34.5127 27.0254 34.5379 27.0716 34.59C27.2252 34.7548 27.1475 35.1551 27.1049 35.3687M20.8801 35.33C20.8801 35.33 20.8857 35.3267 20.8894 35.325C20.8986 35.3199 20.9079 35.3115 20.9171 35.3065C20.9264 35.2998 20.9356 35.2947 20.9449 35.288C20.9468 35.2863 20.9505 35.2829 20.9523 35.2813C20.9708 35.2678 20.9856 35.251 21.0023 35.2342C21.0041 35.2308 21.006 35.2291 21.0078 35.2274C21.0226 35.2106 21.0374 35.1921 21.0504 35.1736C21.0504 35.1719 21.0541 35.1686 21.0541 35.1669C21.067 35.1467 21.0781 35.1282 21.0892 35.108C21.0892 35.1063 21.0911 35.103 21.0929 35.1013C21.104 35.0811 21.1133 35.0593 21.1225 35.0374C21.1225 35.0374 21.1225 35.034 21.1225 35.0323C21.1318 35.0105 21.1392 34.9886 21.1447 34.9668C21.1447 34.9668 21.1447 34.9651 21.1447 34.9634C21.1503 34.9415 21.1558 34.9197 21.1614 34.8978C21.1947 34.7246 21.1744 34.5984 21.0948 34.5127C21.0115 34.4218 20.8653 34.3798 20.6359 34.3798H20.2973C20.2658 34.3798 20.2362 34.4017 20.2306 34.4303L20.2195 34.4824L20.2103 34.5295L19.8643 36.3122C19.8624 36.3273 19.8643 36.3408 19.8754 36.3509C19.8846 36.361 19.8994 36.3677 19.9161 36.3677H19.9993C20.0308 36.3677 20.0604 36.3458 20.066 36.3173L20.1548 35.8581L20.2306 35.4713C20.2325 35.4562 20.2491 35.4444 20.2658 35.4444H20.399C20.5267 35.4444 20.6581 35.4494 20.7228 35.5167C20.7636 35.5588 20.7784 35.621 20.7673 35.7084C20.7636 35.7387 20.758 35.7791 20.7506 35.8228C20.7247 35.9927 20.6877 36.2248 20.721 36.3559L20.7247 36.3677H20.8801C20.9116 36.3677 20.9393 36.3526 20.943 36.3324V36.324L20.9356 36.3189C20.8709 36.2803 20.9171 36.0179 20.9375 35.9052C20.943 35.8783 20.9467 35.8564 20.9486 35.8413C20.9875 35.6294 21.0041 35.4343 20.8061 35.3586C20.8061 35.3586 20.8098 35.3586 20.8117 35.3553C20.8339 35.3485 20.8561 35.3384 20.8746 35.3283M20.6729 35.2443C20.6729 35.2443 20.6618 35.2476 20.6562 35.2493C20.6562 35.2493 20.6562 35.2493 20.6544 35.2493C20.6303 35.256 20.6081 35.2594 20.5896 35.2611C20.5656 35.2611 20.5304 35.2628 20.5064 35.2628H20.2936C20.2936 35.2628 20.2806 35.2611 20.2769 35.256C20.2732 35.2527 20.2713 35.2459 20.2732 35.2409L20.3324 34.9331L20.4009 34.585C20.4046 34.5698 20.4194 34.5581 20.436 34.5581H20.6396C20.7858 34.5581 20.8709 34.5816 20.919 34.6338C20.9671 34.6859 20.9782 34.7733 20.9523 34.9062C20.9079 35.1316 20.7654 35.214 20.6729 35.2459M28.7814 34.3966C28.7722 34.3865 28.7574 34.3798 28.7407 34.3798H28.6574C28.626 34.3798 28.5964 34.4017 28.5908 34.4303L28.3262 35.7976C28.2818 36.0246 28.1967 36.2348 27.8784 36.2348C27.7655 36.2348 27.6915 36.2113 27.6471 36.1642C27.5916 36.1037 27.5823 35.9994 27.6175 35.8178L27.8858 34.4353C27.8895 34.4218 27.8858 34.4067 27.8747 34.3966C27.8654 34.3865 27.8506 34.3798 27.834 34.3798H27.7507C27.7193 34.3798 27.6897 34.4017 27.6841 34.4303L27.4121 35.8346C27.3714 36.0448 27.3954 36.1945 27.4843 36.292C27.5601 36.3744 27.6841 36.4148 27.8543 36.4148C28.2374 36.4148 28.4483 36.213 28.5353 35.7606L28.7925 34.4353C28.7962 34.4218 28.7925 34.4067 28.7814 34.3966ZM29.5345 34.3327C29.2144 34.3327 28.9664 34.5497 28.9017 34.886C28.8425 35.1938 28.9887 35.3199 29.2607 35.4377C29.2829 35.4461 29.3051 35.4562 29.3254 35.4646C29.5123 35.5403 29.6604 35.5991 29.6104 35.8531C29.566 36.0868 29.3865 36.2365 29.1533 36.2365C29.0571 36.2365 28.985 36.2096 28.9368 36.1592C28.8721 36.0885 28.8536 35.9725 28.8813 35.8228C28.8721 35.8026 28.8517 35.7875 28.8258 35.7875H28.6889L28.6852 35.7993C28.6408 36.0028 28.6722 36.1743 28.7703 36.2836C28.8499 36.3711 28.972 36.4182 29.1256 36.4182C29.4772 36.4182 29.7473 36.1962 29.8139 35.8548C29.8843 35.4898 29.6752 35.3956 29.4087 35.2745L29.3069 35.2291L29.2681 35.2123C29.1052 35.1366 29.0682 35.0626 29.1034 34.8827C29.1478 34.6556 29.2995 34.5143 29.5012 34.5143C29.5919 34.5143 29.6659 34.5413 29.7103 34.5934C29.764 34.6539 29.7788 34.7448 29.7547 34.8524C29.7658 34.8709 29.788 34.8827 29.8121 34.8827H29.9472V34.8709C29.986 34.7044 29.9583 34.5598 29.8694 34.4622C29.7936 34.3781 29.677 34.3327 29.5327 34.3327M31.8623 34.3966C31.8512 34.3865 31.8364 34.3798 31.8216 34.3798H31.7365C31.7051 34.3798 31.6755 34.4017 31.6699 34.4303L31.4053 35.7976C31.3609 36.0246 31.2758 36.2348 30.9575 36.2348C30.8465 36.2348 30.7706 36.2113 30.7262 36.1642C30.6707 36.1037 30.6614 35.9994 30.6966 35.8178L30.9649 34.4353C30.9686 34.4218 30.9649 34.4067 30.9538 34.3966C30.9445 34.3865 30.9297 34.3798 30.9131 34.3798H30.828C30.7965 34.3798 30.7688 34.4017 30.7613 34.4303L30.4893 35.8346C30.4486 36.0448 30.4727 36.1945 30.5615 36.292C30.6374 36.3744 30.7613 36.4148 30.9316 36.4148C31.3146 36.4148 31.5256 36.213 31.6125 35.7606L31.8697 34.4353C31.8734 34.4218 31.8697 34.4067 31.8605 34.3966M32.5174 35.2728L32.4156 35.2274L32.3768 35.2106C32.2158 35.1349 32.1788 35.0609 32.2121 34.881C32.2565 34.6539 32.4082 34.5127 32.6099 34.5127C32.7024 34.5127 32.7727 34.5396 32.819 34.5917C32.8708 34.6523 32.8875 34.7431 32.8634 34.8507C32.8745 34.8692 32.8967 34.881 32.9208 34.881H33.0559V34.8692C33.0947 34.7027 33.067 34.5581 32.9781 34.4605C32.9004 34.3764 32.7857 34.331 32.6414 34.331C32.3212 34.331 32.0733 34.548 32.0085 34.8843C31.9493 35.1921 32.0955 35.3183 32.3675 35.436C32.3897 35.4444 32.4119 35.4545 32.4323 35.4629C32.6192 35.5386 32.7653 35.5974 32.7172 35.8514C32.6728 36.0852 32.4933 36.2348 32.2583 36.2348C32.1621 36.2348 32.0899 36.2079 32.0418 36.1575C31.9771 36.0868 31.9586 35.9708 31.9863 35.8211C31.9771 35.8009 31.9549 35.7858 31.9308 35.7858H31.7939L31.7902 35.7976C31.7476 36.0011 31.7772 36.1726 31.8753 36.2819C31.9549 36.3694 32.077 36.4165 32.2306 36.4165C32.5822 36.4165 32.8523 36.1945 32.9189 35.8531C32.9892 35.4881 32.7802 35.3939 32.5155 35.2728" fill="#064264"/>
<path d="M38.649 34.9314C38.6028 34.8809 38.525 34.854 38.4233 34.854C38.2771 34.854 38.1476 34.9078 38.0513 35.0088C37.9884 34.8658 37.8922 34.854 37.7719 34.854C37.6517 34.854 37.5332 34.9062 37.4481 34.9936C37.45 34.9802 37.4537 34.9684 37.4537 34.9583L37.4592 34.9264C37.4629 34.9079 37.4481 34.891 37.4259 34.891H37.3241C37.3019 34.891 37.2816 34.9079 37.2779 34.9264L37.0059 36.3239C37.0022 36.3441 37.017 36.3593 37.0392 36.3593H37.1409C37.1631 36.3593 37.1835 36.3424 37.1872 36.3239L37.3611 35.4259L37.3963 35.2493C37.4204 35.1282 37.5943 35.0138 37.7109 35.0138C37.7701 35.0138 37.8126 35.0273 37.8385 35.0542C37.8867 35.1063 37.8719 35.2089 37.8552 35.3014L37.6572 36.3239C37.6535 36.3441 37.6683 36.3593 37.6887 36.3593H37.7904C37.8108 36.3593 37.833 36.3424 37.8367 36.3239L38.0365 35.2964C38.0698 35.1231 38.2031 35.0104 38.377 35.0104C38.4251 35.0104 38.4621 35.0239 38.4862 35.0508C38.5213 35.0895 38.5306 35.1551 38.5158 35.2392L38.3048 36.3239C38.3011 36.3441 38.316 36.3593 38.3382 36.3593H38.4381C38.4603 36.3593 38.4806 36.3424 38.4843 36.3239L38.5491 35.9926L38.6916 35.2627C38.723 35.1063 38.7064 34.9987 38.6472 34.9331M39.8314 34.928C39.8351 34.9095 39.8203 34.8927 39.7981 34.8927H39.6964C39.6742 34.8927 39.6538 34.9079 39.6501 34.928L39.6353 35.0037C39.5761 34.9011 39.4873 34.8574 39.3485 34.8574C38.9321 34.8574 38.8285 35.3872 38.7804 35.6411C38.7286 35.9052 38.699 36.1709 38.8267 36.3088C38.8822 36.3677 38.9617 36.3979 39.0654 36.3979C39.1912 36.3979 39.2985 36.3576 39.3873 36.2752C39.3836 36.2853 39.3818 36.2954 39.3799 36.3054C39.3374 36.4972 39.2948 36.6973 39.0228 36.6973C38.9506 36.6939 38.8914 36.6721 38.8563 36.6351C38.8396 36.6166 38.8285 36.5947 38.8248 36.5695C38.8248 36.5611 38.8248 36.5493 38.8248 36.5392C38.8285 36.519 38.8137 36.5039 38.7915 36.5039H38.686C38.6638 36.5039 38.6435 36.519 38.6398 36.5392C38.6398 36.5493 38.6398 36.5594 38.6398 36.5695C38.6398 36.6452 38.6601 36.7091 38.7064 36.7579C38.7675 36.8218 38.8711 36.8571 38.9951 36.8571C39.3096 36.8571 39.4891 36.6872 39.5613 36.3206L39.8296 34.9364V34.9297L39.8314 34.928ZM39.5187 35.6092C39.515 35.6277 39.5113 35.6445 39.5095 35.6613C39.4762 35.8329 39.3984 36.2365 39.1283 36.2399C39.0691 36.2399 39.0228 36.223 38.9895 36.186C38.8803 36.0683 38.9358 35.7824 38.9636 35.6462C39.045 35.2274 39.1745 35.0155 39.3503 35.0155C39.4207 35.0155 39.4706 35.034 39.5058 35.0727C39.6075 35.1837 39.5576 35.4292 39.5206 35.6092M40.8677 34.373H40.7715C40.7492 34.373 40.7252 34.3882 40.7159 34.4067L39.6742 36.5543C39.6668 36.5728 39.6483 36.6048 39.689 36.6048H39.7815C39.8037 36.6048 39.8277 36.5897 39.837 36.5712L40.8806 34.4235C40.8899 34.405 40.9065 34.373 40.8658 34.373M43.3805 36.1827H42.7292C42.707 36.1827 42.6922 36.1658 42.6959 36.1473L43.0308 34.4235C43.0345 34.4033 43.0234 34.373 43.0012 34.373H42.8828C42.8606 34.373 42.8402 34.3882 42.8365 34.4084L42.4683 36.3088C42.4646 36.329 42.4757 36.3593 42.4979 36.3593H43.3472C43.3694 36.3593 43.3898 36.3424 43.3935 36.3239L43.4138 36.218C43.4175 36.1978 43.4027 36.1827 43.3805 36.1827ZM42.163 34.8574C42.0168 34.8574 41.8854 34.9112 41.791 35.0121C41.7281 34.8692 41.6319 34.8574 41.5116 34.8574C41.3913 34.8574 41.2729 34.9095 41.1878 34.997C41.1896 34.9835 41.1933 34.9718 41.1952 34.9617L41.2007 34.9297C41.2044 34.9112 41.1896 34.8944 41.1674 34.8944H41.0657C41.0435 34.8944 41.0231 34.9112 41.0194 34.9297L40.7474 36.3273C40.7437 36.3475 40.7585 36.3626 40.7807 36.3626H40.8825C40.9047 36.3626 40.925 36.3458 40.9287 36.3273L41.1027 35.4292L41.136 35.2526C41.16 35.1315 41.334 35.0172 41.4506 35.0172C41.5098 35.0172 41.5523 35.0306 41.5782 35.0575C41.6263 35.1097 41.6115 35.2123 41.593 35.3048L41.395 36.3273C41.3913 36.3475 41.4061 36.3626 41.4283 36.3626H41.5301C41.5523 36.3626 41.5727 36.3458 41.5764 36.3273L41.7762 35.2997C41.8095 35.1265 41.9428 35.0138 42.1167 35.0138C42.1648 35.0138 42.2018 35.0273 42.2259 35.0542C42.261 35.0929 42.2703 35.1584 42.2555 35.2425L42.0445 36.3273C42.0408 36.3475 42.0556 36.3626 42.076 36.3626H42.1778C42.2 36.3626 42.2203 36.3458 42.224 36.3273L42.2869 35.996L42.4294 35.2661C42.459 35.1097 42.4461 35.002 42.385 34.9364C42.3388 34.886 42.261 34.8591 42.1593 34.8591M36.2749 34.3932C36.0251 34.3932 35.7476 34.5109 35.5773 35.3821C35.4922 35.8194 35.4663 36.144 35.6125 36.3021C35.6717 36.3677 35.7605 36.3996 35.8753 36.3996C36.3416 36.3996 36.4785 35.8984 36.5692 35.4292C36.5729 35.4124 36.5766 35.3939 36.5803 35.3737C36.6284 35.1349 36.7172 34.6909 36.5359 34.4924C36.4748 34.4252 36.3878 34.3915 36.2749 34.3915M36.373 35.4107C36.2139 36.2314 36.0011 36.2314 35.8993 36.2314C35.8401 36.2314 35.7975 36.2146 35.7661 36.1827C35.681 36.0902 35.681 35.8648 35.7661 35.4275C35.8901 34.7851 36.0103 34.5564 36.2231 34.5564C36.2934 34.5564 36.3453 34.5749 36.3823 34.6135C36.4933 34.7346 36.4452 35.0323 36.373 35.409M35.5052 34.4067C35.4959 34.3966 35.483 34.3899 35.4663 34.3899H35.3997C35.3534 34.3899 35.322 34.5025 35.2998 34.5429C35.2387 34.6489 35.1536 34.701 35.0426 34.7262C35.0037 34.7346 34.963 34.7414 34.9167 34.7447H34.8982C34.8982 34.7447 34.8927 34.7447 34.889 34.7447C34.8631 34.7498 34.839 34.7666 34.8335 34.7918L34.8242 34.8406C34.8242 34.854 34.8242 34.8675 34.8353 34.8776C34.8446 34.8877 34.8594 34.8944 34.876 34.8944C34.9278 34.8944 35.1332 34.8843 35.2369 34.8675L35 36.0885L34.9574 36.3038C34.9537 36.3189 34.9574 36.3324 34.9686 36.3424C34.9778 36.3525 34.9926 36.3593 35.0093 36.3593H35.0888C35.1203 36.3593 35.1499 36.3374 35.1554 36.3088L35.5181 34.4454C35.52 34.4302 35.5181 34.4168 35.507 34.4067" fill="#064264"/>
<path d="M24.2439 26.3827C24.2143 26.344 24.1643 26.3222 24.107 26.3222H23.8738C23.7702 26.3222 23.661 26.3911 23.624 26.4803L22.0882 30.2627L21.9734 26.5072C21.9697 26.4046 21.8772 26.3222 21.7643 26.3222H21.5312C21.4757 26.3222 21.4239 26.3424 21.3869 26.3777C21.3499 26.413 21.3295 26.4618 21.3332 26.5105L21.5682 31.0178C21.5738 31.1187 21.6681 31.2011 21.7791 31.2011H22.0438C22.1474 31.2011 22.2566 31.1322 22.2954 31.0447L24.255 26.5206C24.2772 26.4702 24.2717 26.4197 24.2439 26.3827ZM21.3239 24.7396C21.2906 24.7026 21.2388 24.6824 21.1833 24.6824H20.9816C20.8724 24.6824 20.7725 24.7581 20.7522 24.8556L20.6208 25.52C20.6115 25.5704 20.6245 25.6192 20.6596 25.6579C20.693 25.6949 20.7448 25.715 20.8003 25.715H21.002C21.1111 25.715 21.2111 25.6394 21.2296 25.5401L21.361 24.8758C21.3702 24.8254 21.3573 24.7766 21.3221 24.7396M20.8576 26.3222H20.6559C20.5468 26.3222 20.4468 26.3979 20.4265 26.4954L19.5364 31.006C19.5272 31.0565 19.5401 31.1053 19.5735 31.1423C19.6068 31.1793 19.6586 31.1995 19.7159 31.1995H19.9158C20.025 31.1995 20.1249 31.1238 20.1452 31.0262L21.0353 26.5156C21.0445 26.4651 21.0316 26.4164 20.9964 26.3794C20.9631 26.3424 20.9113 26.3222 20.8558 26.3222M19.3792 26.482C19.2182 26.3054 18.9702 26.2145 18.639 26.2129C18.1153 26.2129 17.7267 26.5425 17.4991 26.8049L17.5565 26.5156C17.5658 26.4651 17.5528 26.4164 17.5195 26.3794C17.4862 26.3424 17.4344 26.3222 17.377 26.3222H17.2253C17.1161 26.3222 17.0162 26.3979 16.9958 26.4954L16.1058 31.006C16.0965 31.0565 16.1095 31.1053 16.1428 31.1423C16.1761 31.1793 16.2279 31.1995 16.2834 31.1995H16.4833C16.5924 31.1995 16.6924 31.1238 16.7127 31.0262L17.3196 27.9502C17.4584 27.2522 17.8951 26.7914 18.4354 26.7796H18.4558C18.6186 26.7796 18.7371 26.8234 18.8185 26.9159C18.961 27.0756 18.985 27.3868 18.8888 27.7904L18.2541 31.006C18.2449 31.0565 18.2578 31.1053 18.2911 31.1423C18.3244 31.1793 18.3762 31.1995 18.4317 31.1995H18.6334C18.7426 31.1995 18.8425 31.1238 18.861 31.0262L19.5457 27.555C19.6419 27.0689 19.5846 26.7073 19.3773 26.4803M15.5655 28.5657C15.8042 27.3565 16.3001 26.1927 16.9977 25.1987C17.0125 25.1769 17.018 25.1365 16.9977 25.0995C16.9792 25.0692 16.9366 25.0322 16.8367 25.0322C16.6757 25.0322 16.6035 25.123 16.5961 25.1331C15.7764 26.2431 15.2638 27.3582 15.0288 28.5439C14.7957 29.7295 14.8678 30.8463 15.249 31.9563C15.2638 32 15.3508 32.0605 15.4748 32.0605C15.584 32.0605 15.6339 32.0168 15.6487 31.9966C15.6672 31.9748 15.6746 31.9495 15.6672 31.926C15.3601 30.9337 15.3249 29.7716 15.5636 28.564M44.6743 25.1466C44.6669 25.1281 44.6244 25.0339 44.4504 25.0339C44.3542 25.0339 44.3042 25.0675 44.2802 25.0961C44.258 25.123 44.2487 25.1567 44.2561 25.1819C44.5614 26.1742 44.5966 27.3363 44.3598 28.5422C44.121 29.7497 43.627 30.9135 42.9257 31.9109C42.9109 31.9327 42.9146 31.968 42.9312 31.995C42.9571 32.0353 43.0127 32.0572 43.0922 32.0572C43.2366 32.0572 43.3124 32.0017 43.3328 31.9714C44.1525 30.8631 44.6632 29.748 44.8964 28.564C45.1314 27.3767 45.0574 26.26 44.6743 25.1466ZM43.4234 26.5122C43.2458 26.3171 42.9904 26.2162 42.6648 26.2112H42.6463C42.1356 26.2112 41.8117 26.5005 41.623 26.7561L41.9949 24.8741C42.0042 24.8237 41.9912 24.7749 41.9579 24.7379C41.9246 24.7009 41.8728 24.6807 41.8173 24.6807H41.6156C41.5064 24.6807 41.4065 24.7564 41.3861 24.854L40.1723 31.006C40.163 31.0565 40.176 31.1053 40.2111 31.1423C40.2444 31.1793 40.2962 31.1995 40.3536 31.1995H40.5053C40.6127 31.1995 40.7144 31.1238 40.7329 31.0262L40.8033 30.6714C40.9235 31.0666 41.2455 31.3071 41.6822 31.3071C42.6352 31.3071 43.2643 30.4763 43.6011 28.7659C43.825 27.6273 43.7676 26.8906 43.4253 26.5122M42.9608 28.744C42.6148 30.5032 42.1245 30.7403 41.6915 30.7403C41.499 30.7403 41.3732 30.6949 41.2807 30.594C41.0512 30.3451 41.0346 29.748 41.2289 28.7642C41.5749 27.0134 42.0634 26.778 42.4964 26.778C42.6833 26.778 42.8128 26.825 42.9053 26.9243C43.1348 27.1749 43.1533 27.7685 42.9608 28.744ZM36.7953 26.4517C36.6491 26.2919 36.4307 26.2112 36.1476 26.2112C35.5647 26.2112 35.1706 26.5913 34.9467 26.899C34.9263 26.6989 34.8505 26.5341 34.7265 26.4147C34.5896 26.2818 34.3934 26.2129 34.1603 26.2129C33.6199 26.2129 33.2369 26.5425 33.0241 26.7931L33.0778 26.5156C33.087 26.4651 33.0741 26.4164 33.0408 26.3794C33.0075 26.3424 32.9557 26.3222 32.9001 26.3222H32.7466C32.6374 26.3222 32.5375 26.3979 32.5171 26.4954L31.6271 31.006C31.6178 31.0565 31.6308 31.1053 31.6641 31.1423C31.6992 31.1793 31.751 31.1995 31.8065 31.1995H32.0082C32.1174 31.1995 32.2173 31.1238 32.2377 31.0262L32.8446 27.9502C32.9779 27.2724 33.4183 26.7796 33.8883 26.7796C34.0455 26.7796 34.1584 26.8217 34.2361 26.9075C34.325 27.0084 34.4082 27.222 34.3009 27.6727L33.644 31.0044C33.6348 31.0548 33.6477 31.1036 33.681 31.1406C33.7143 31.1776 33.7661 31.1978 33.8235 31.1978H34.0233C34.1325 31.1978 34.2324 31.1221 34.2528 31.0245L34.8597 27.9485C34.993 27.2707 35.4334 26.778 35.9034 26.778C36.0625 26.778 36.1772 26.82 36.2531 26.9075C36.3419 27.0084 36.4252 27.222 36.316 27.671L35.6573 31.0044C35.648 31.0548 35.661 31.1036 35.6961 31.1406C35.7294 31.1776 35.7812 31.1978 35.8367 31.1978H36.0366C36.1458 31.1978 36.2457 31.1221 36.266 31.0245L36.9599 27.5095C37.0562 27.0269 37.0025 26.6703 36.8008 26.4517M26.6846 26.5307C26.4903 26.3188 26.2164 26.2129 25.8723 26.2129C24.8767 26.2129 24.1773 27.0891 23.8516 28.7457C23.637 29.8372 23.7128 30.5906 24.0811 30.9892C24.2754 31.2011 24.5492 31.3071 24.8915 31.3071C25.8871 31.3071 26.5865 30.4292 26.914 28.7659C27.1287 27.6811 27.051 26.9293 26.6846 26.5307ZM26.2738 28.744C26.0166 30.0491 25.5688 30.7403 24.9804 30.7403C24.8175 30.7403 24.6917 30.6899 24.5955 30.5839C24.3438 30.3115 24.3087 29.6993 24.4937 28.7642C24.7509 27.4641 25.1969 26.778 25.7853 26.778C25.9481 26.778 26.074 26.8284 26.172 26.9344C26.4237 27.2068 26.457 27.8156 26.2738 28.744ZM39.7356 30.6865C39.6504 30.6865 39.6319 30.5217 39.6301 30.478C39.6301 30.4124 39.6393 30.2997 39.6523 30.2358L40.1834 27.5449C40.2777 27.074 40.2204 26.7225 40.015 26.5005C39.8392 26.3087 39.5524 26.2112 39.1656 26.2112C38.2571 26.2112 37.6927 26.741 37.4855 27.7854L37.4725 27.8543H37.8907C37.9943 27.8543 38.1054 27.7854 38.1424 27.6979L38.1461 27.6845C38.1461 27.676 38.2941 26.7796 39.0639 26.778C39.2526 26.778 39.3858 26.82 39.471 26.9091C39.5838 27.0269 39.6171 27.2371 39.5727 27.5365C39.4765 28.1722 39.0916 28.2479 38.9639 28.2731C38.9473 28.2765 38.9343 28.2781 38.9269 28.2815L38.098 28.5287C37.4781 28.712 37.0765 29.183 36.9359 29.8927C36.8323 30.4225 36.8896 30.811 37.108 31.0481C37.2671 31.2196 37.504 31.3071 37.813 31.3071H37.8167C38.4088 31.3071 38.7752 30.9859 38.975 30.7285C38.9584 30.9001 38.9898 31.0229 39.0694 31.1086C39.1878 31.2365 39.3932 31.2533 39.5598 31.2533C39.6319 31.2533 39.6801 31.2398 39.6838 31.2381C39.7781 31.2095 39.8651 31.1154 39.8836 31.0262L39.9114 30.8816C39.9206 30.8311 39.9077 30.7807 39.8725 30.7437C39.8392 30.7084 39.7892 30.6865 39.7356 30.6865ZM39.2212 29.3242C39.1767 29.5614 38.9103 30.7403 38.0091 30.7403C37.8778 30.7403 37.7741 30.6983 37.6983 30.6175C37.565 30.4729 37.5225 30.2105 37.5835 29.8759C37.6761 29.3595 38.0054 29.035 38.5587 28.9088C38.5754 28.9038 38.5902 28.9021 38.592 28.9004C38.9973 28.813 39.2304 28.7053 39.3599 28.6145L39.2193 29.3242H39.2212ZM28.7034 24.7362C28.6701 24.6992 28.6183 24.679 28.5628 24.679H28.3629C28.2537 24.679 28.1538 24.7547 28.1335 24.8523L26.9196 31.0044C26.9085 31.0548 26.9233 31.1053 26.9566 31.1406C26.9918 31.1776 27.0417 31.1978 27.0991 31.1978H27.3008C27.41 31.1978 27.5099 31.1221 27.5302 31.0245L28.7441 24.8725C28.7534 24.822 28.7404 24.7732 28.7071 24.7362M31.8158 26.3777C31.7825 26.3407 31.7307 26.3205 31.6752 26.3205H31.4753C31.3661 26.3205 31.2662 26.3962 31.2459 26.4937L30.6389 29.5698C30.502 30.261 30.0579 30.7319 29.5305 30.742H29.5139C29.3473 30.742 29.2252 30.6949 29.1419 30.6007C29.055 30.5015 28.9328 30.2459 29.0846 29.6471C29.0883 29.6337 29.0901 29.6236 29.092 29.6185L29.7045 26.5156C29.7137 26.4651 29.7008 26.4164 29.6656 26.3794C29.6323 26.3424 29.5805 26.3222 29.525 26.3222H29.3233C29.216 26.3222 29.1142 26.3979 29.0957 26.4954L28.4369 29.8405L28.4314 29.8574C28.3056 30.3636 28.3555 30.7807 28.5739 31.0279C28.7349 31.2129 28.9847 31.3071 29.314 31.3088H29.3196C29.8118 31.3088 30.2226 30.9606 30.465 30.6949L30.4039 31.006C30.3947 31.0565 30.4076 31.1053 30.4409 31.1423C30.4742 31.1793 30.5261 31.1995 30.5834 31.1995H30.737C30.8462 31.1995 30.9461 31.1238 30.9665 31.0262L31.8565 26.5156C31.8658 26.4651 31.8528 26.4164 31.8176 26.3794" fill="#064264"/>
<path d="M5.38841 13.3654C2.90515 13.3654 1.12875 14.5813 0.747567 16.5356L0.0647645 20.059C-0.31457 22.015 0.991822 23.2309 3.47508 23.2309C5.95834 23.2309 7.73658 22.015 8.11592 20.059L8.79872 16.5356C9.17806 14.5813 7.87166 13.3654 5.38841 13.3654ZM6.18779 16.5608L5.51424 20.0355C5.44947 20.3685 5.32919 20.9857 3.91178 20.9857C2.49436 20.9857 2.61464 20.3668 2.6794 20.0355L3.35295 16.5608C3.41957 16.2278 3.53799 15.6089 4.95541 15.6089C6.37283 15.6089 6.2544 16.2278 6.18964 16.5608M17.2459 16.2228C17.2625 16.137 17.2773 16.0496 17.2866 15.9621C17.4309 14.7932 16.9924 13.5235 14.4018 13.5235H10.6917C10.5159 13.5235 10.3494 13.653 10.3179 13.8111L8.56187 22.8576C8.53226 23.0156 8.64884 23.1451 8.82278 23.1451H10.799C10.9748 23.1451 11.1395 23.0156 11.171 22.8576L11.6928 20.17H13.112C15.364 20.17 16.3632 19.2046 16.7907 18.1804C16.8906 17.9382 16.959 17.6944 17.0053 17.4589L17.2459 16.2211V16.2228ZM14.6349 16.2362L14.5776 16.5373L14.3981 17.4623C14.3241 17.8457 14.3111 17.913 13.5099 17.913H12.1313L12.3053 17.0183L12.5458 15.7855H13.9225C14.7237 15.7855 14.7126 15.8461 14.6349 16.2379M24.8566 14.1104C24.3256 13.7287 23.5539 13.5268 22.5621 13.5268H18.9612C18.7854 13.5268 18.6189 13.6563 18.5874 13.8144V13.8212L16.8314 22.8592C16.8018 23.019 16.9183 23.1468 17.0923 23.1468H20.6932C23.0173 23.1468 24.5643 22.0419 24.9399 20.1111L25.6282 16.5608C25.6282 16.5524 25.6301 16.544 25.6319 16.5356C25.7837 15.7266 25.6708 15.064 25.3174 14.5679C25.1934 14.3947 25.038 14.2399 24.8548 14.1087M23.0044 16.6348L22.3456 20.0355C22.2327 20.6106 22.1328 20.8865 21.091 20.8865H19.8235L20.8135 15.7822H22.081C23.1246 15.7822 23.1172 16.058 23.0044 16.6348ZM43.8271 13.3637C41.3457 13.3637 39.5674 14.5797 39.1862 16.5339L38.5034 20.0573C38.1241 22.0133 39.4305 23.2292 41.9137 23.2292C44.397 23.2292 46.1752 22.015 46.5546 20.0573L47.2374 16.5339C47.6167 14.5797 46.3103 13.3637 43.8271 13.3637ZM44.6264 16.5591L43.9529 20.0338C43.8881 20.3651 43.7679 20.984 42.3486 20.984C40.9293 20.984 41.0514 20.3651 41.1162 20.0338L41.7898 16.5591C41.8564 16.2261 41.9748 15.6072 43.3922 15.6072C44.8096 15.6072 44.6912 16.2261 44.6264 16.5591ZM39.3879 13.0845L37.086 13.8312C36.8714 13.9002 36.7659 13.9792 36.6956 14.1087L33.9088 19.1071L33.2982 15.7014C33.2223 15.2759 33.1909 15.0943 32.9115 15.1851L31.0759 15.7788C30.7502 15.8831 30.728 15.9453 30.7539 16.1252L31.9085 22.9484C31.9271 23.0644 32.0344 23.1451 32.1695 23.1451H34.3363C34.4732 23.1451 34.6102 23.0644 34.6768 22.9484L39.7025 13.4427C39.8006 13.251 39.7303 13.0072 39.3879 13.0845ZM29.8842 13.5235H27.9135C27.7414 13.5235 27.5638 13.6378 27.5342 13.7959L25.7818 22.8491C25.7504 23.0089 25.8836 23.1451 26.039 23.1451H28.019C28.1911 23.1451 28.3558 23.0173 28.3872 22.8592L30.1433 13.7942C30.1618 13.6967 30.0378 13.5218 29.8842 13.5218" fill="#064264"/>
<path d="M42.1986 8.44608L31.1904 13.0358C31.0905 13.0744 30.9943 13.1854 30.9758 13.283L30.7796 14.3274C30.7611 14.4249 30.8296 14.4771 30.9314 14.4434L40.9292 10.8208C41.0309 10.7872 41.1531 10.6879 41.2012 10.5988L42.2948 8.53858C42.3429 8.44945 42.2985 8.40908 42.1986 8.44777M7.98624 22.2404L0.468 25.4846C0.368077 25.5233 0.375479 25.5552 0.482803 25.5552H0.980565C1.08789 25.5552 1.16931 25.5418 1.26923 25.5031L7.73088 22.9232C7.8308 22.8845 7.95478 22.871 8.00844 22.7247L8.09541 22.385C8.13427 22.2303 8.05285 22.2235 7.98624 22.2404Z" fill="#F16423"/>
<path d="M40.6887 11.2885L30.9999 14.7699C30.9019 14.8102 30.8056 14.9229 30.7853 15.0205L30.7779 15.0575C30.7594 15.155 30.8242 15.2021 30.9241 15.1634L40.2095 12.1832C40.3094 12.1446 40.4297 12.0403 40.4778 11.9528L40.7831 11.376C40.8293 11.2868 40.7886 11.2481 40.6887 11.2885ZM7.76799 23.2445L2.07982 25.483C1.97989 25.5217 1.9873 25.5537 2.09462 25.5537H2.4425C2.55167 25.5537 2.58498 25.547 2.68675 25.5116L7.71803 23.5473C7.8198 23.512 7.81795 23.4867 7.84016 23.4026L7.86791 23.2849C7.88827 23.2092 7.81055 23.2328 7.76799 23.2462" fill="#018EB4"/>
<path d="M46.7617 22.4523C46.7617 22.0066 47.1596 21.6786 47.6296 21.6786C48.0996 21.6786 48.4919 22.0066 48.4919 22.4523C48.4919 22.898 48.094 23.231 47.6296 23.231C47.1651 23.231 46.7617 22.903 46.7617 22.4523ZM47.6296 23.1015C48.0163 23.1015 48.3216 22.8273 48.3216 22.4523C48.3216 22.0772 48.0163 21.8065 47.6296 21.8065C47.2428 21.8065 46.9338 22.084 46.9338 22.4523C46.9338 22.8206 47.2391 23.1015 47.6296 23.1015ZM47.4482 22.903H47.3002V22.0066H47.6758C47.909 22.0066 48.0237 22.084 48.0237 22.2606C48.0237 22.4203 47.9127 22.491 47.7683 22.5078L48.0478 22.903H47.8812L47.6203 22.5145H47.4482V22.903ZM47.6259 22.4002C47.7535 22.4002 47.8664 22.3917 47.8664 22.2538C47.8664 22.1428 47.7554 22.1226 47.6518 22.1226H47.4482V22.4002H47.6259Z" fill="#064264"/>
<path d="M64.8071 17.4389H60.8546V13.8482H58.2992V17.4389H54.3467V19.7631H58.2992V23.3538H60.8546V19.7631H64.8071V17.4389Z" fill="#008FB4"/>
<path d="M73.0601 19.3022V22.9685H71.6964V19.2736L68.3064 13.7824H69.8089L71.5428 16.6264C71.8185 17.1007 72.1719 17.659 72.4014 18.1047H72.4328C72.6641 17.659 72.9861 17.0872 73.2451 16.6399L74.9475 13.7824H76.389L73.0601 19.3022ZM82.982 22.9685V21.8669H79.148V18.8144H82.4769V17.728H79.148V14.884H82.5065L82.9506 13.7841H77.7824V22.9702H82.982V22.9685ZM91.8455 22.9685C90.2357 20.6123 89.131 18.9389 88.7627 18.7724V18.7589C89.7749 18.4108 90.6946 17.5884 90.6946 16.3052C90.6946 14.9109 89.7286 13.7824 87.2731 13.7824H84.9731V22.9685H86.3387V19.1626H87.3509C87.7654 19.2467 88.6387 20.6123 90.2505 22.9685H91.8455ZM87.2898 14.8824C88.7461 14.8824 89.2679 15.6072 89.2679 16.4448C89.2679 17.3647 88.4389 18.1316 87.3361 18.1316H86.3387V14.884H87.2898V14.8824ZM99.9707 13.7824H98.6698L96.2143 19.6099C95.9886 20.1397 95.8183 20.614 95.65 21.0883H95.6222C95.452 20.6005 95.2688 20.0842 95.0856 19.5965L92.8133 13.7841H91.4588L95.1689 23.0123H95.959L99.9688 13.7841L99.9707 13.7824ZM101.225 15.0236C100.411 15.8729 99.9392 17.0586 99.9392 18.4394C99.9392 19.8891 100.465 21.1303 101.364 21.9662C102.165 22.7045 103.227 23.1098 104.484 23.1098C105.74 23.1098 106.886 22.6624 107.7 21.8686C108.542 21.0328 109.04 19.8202 109.04 18.4108C109.04 17.1141 108.627 15.9856 107.894 15.1481C107.095 14.2416 105.894 13.7118 104.486 13.7118C103.176 13.7118 102.043 14.1995 101.227 15.0219M104.486 14.8269C106.556 14.8269 107.717 16.3321 107.717 18.4226C107.717 20.6241 106.445 22.0183 104.486 22.0183C102.526 22.0183 101.255 20.6241 101.255 18.4226C101.255 16.2211 102.524 14.8269 104.486 14.8269ZM116.291 13.7808H114.994L113.462 16.6382C113.227 17.0855 112.937 17.6557 112.731 18.103H112.703C112.498 17.6573 112.178 17.099 111.93 16.6247L110.372 13.7808H109.019L112.069 19.2719V22.9668H113.297V19.3005L116.291 13.7808Z" fill="#F26322"/>
<path d="M71.7023 32.1646C70.8271 30.8646 70.272 29.6251 70.272 28.1081C70.272 26.7559 70.7734 25.291 71.7023 24.1121H72.2945C71.4285 25.4121 71.0917 26.7038 71.0917 28.1081C71.0917 29.5124 71.4285 30.8394 72.2945 32.1646H71.7023Z" fill="#F26322"/>
<path d="M73.2603 25.16H72.4868V24.2585H73.2603V25.16ZM72.4868 25.9656H73.2603V30.4476H72.4868V25.9656Z" fill="#F26322"/>
<path d="M74.145 25.9672H74.9185V26.5743H74.937C75.1924 26.0799 75.7937 25.8629 76.4395 25.8629C77.8884 25.8629 78.6082 26.9544 78.6082 28.2208C78.6082 29.4872 77.8977 30.5535 76.458 30.5535C75.9751 30.5535 75.283 30.3803 74.937 29.8505H74.9185V32.1647H74.145V25.9655V25.9672ZM76.3304 26.5138C75.2923 26.5138 74.8907 27.3631 74.8907 28.204C74.8907 29.0886 75.3089 29.9026 76.3748 29.9026C77.4406 29.9026 77.7866 29.0449 77.7866 28.1687C77.7866 27.2924 77.3314 26.5121 76.3285 26.5121L76.3304 26.5138Z" fill="#F26322"/>
<path d="M79.9922 25.16H79.2188V24.2585H79.9922V25.16ZM79.2188 25.9656H79.9922V30.4476H79.2188V25.9656Z" fill="#F26322"/>
<path d="M80.895 24.2585H81.6685V30.4476H80.895V24.2585Z" fill="#F26322"/>
<path d="M83.345 25.16H82.5715V24.2585H83.345V25.16ZM82.5715 25.9656H83.345V30.4476H82.5715V25.9656Z" fill="#F26322"/>
<path d="M84.2017 25.9672H84.9307V26.6264H84.9492C85.2953 26.1236 85.8245 25.8629 86.4703 25.8629C87.0439 25.8629 87.5731 26.0799 87.7637 26.6264C88.082 26.1488 88.639 25.8629 89.2385 25.8629C90.1766 25.8629 90.8058 26.2363 90.8058 27.1629V30.4492H90.0323V27.5111C90.0323 26.9561 89.8769 26.5138 89.1219 26.5138C88.3669 26.5138 87.8914 26.9645 87.8914 27.6574V30.4492H87.1179V27.5111C87.1179 26.9309 86.9273 26.5138 86.2334 26.5138C85.3138 26.5138 84.977 27.3194 84.977 27.6574V30.4492H84.2035V25.9672H84.2017Z" fill="#F26322"/>
<path d="M95.5243 30.4492H94.7952V29.7378H94.7767C94.4492 30.2928 93.92 30.5535 93.2465 30.5535C92.0067 30.5535 91.6255 29.8774 91.6255 28.9154V25.9672H92.399V29.0012C92.399 29.5478 92.7635 29.9026 93.3556 29.9026C94.2938 29.9026 94.749 29.3039 94.749 28.4983V25.9672H95.5225V30.4492H95.5243Z" fill="#F26322"/>
<path d="M96.3464 25.9672H97.0755V26.6264H97.094C97.44 26.1236 97.9693 25.8629 98.615 25.8629C99.1887 25.8629 99.7179 26.0799 99.9085 26.6264C100.227 26.1488 100.784 25.8629 101.383 25.8629C102.321 25.8629 102.951 26.2363 102.951 27.1629V30.4492H102.177V27.5111C102.177 26.9561 102.022 26.5138 101.267 26.5138C100.512 26.5138 100.036 26.9645 100.036 27.6574V30.4492H99.2627V27.5111C99.2627 26.9309 99.0721 26.5138 98.38 26.5138C97.4604 26.5138 97.1236 27.3194 97.1236 27.6574V30.4492H96.3501V25.9672H96.3464Z" fill="#F26322"/>
<path d="M107.943 30.4308C107.806 30.5081 107.634 30.5519 107.388 30.5519C106.986 30.5519 106.733 30.3433 106.733 29.859C106.305 30.3366 105.73 30.5519 105.075 30.5519C104.218 30.5519 103.517 30.1869 103.517 29.2939C103.517 28.2797 104.309 28.0628 105.11 27.9148C105.967 27.7584 106.696 27.8105 106.696 27.2555C106.696 26.6147 106.141 26.5105 105.649 26.5105C104.993 26.5105 104.511 26.7005 104.474 27.3598H103.7C103.746 26.2498 104.647 25.8596 105.695 25.8596C106.542 25.8596 107.462 26.0412 107.462 27.0907V29.3965C107.462 29.7429 107.462 29.8993 107.708 29.8993C107.773 29.8993 107.845 29.8909 107.945 29.8556V30.4274L107.943 30.4308ZM106.687 28.1334C106.387 28.342 105.804 28.3504 105.284 28.4361C104.773 28.5236 104.337 28.6968 104.337 29.2417C104.337 29.7278 104.773 29.901 105.247 29.901C106.267 29.901 106.687 29.2939 106.687 28.8869V28.1317V28.1334Z" fill="#F26322"/>
<path d="M108.344 24.2585H109.117V26.5727H109.136C109.391 26.0783 109.993 25.8613 110.639 25.8613C112.087 25.8613 112.807 26.9528 112.807 28.2192C112.807 29.4856 112.097 30.5519 110.657 30.5519C110.174 30.5519 109.482 30.3787 109.136 29.8489H109.117V30.4476H108.344V24.2585ZM110.531 26.5122C109.493 26.5122 109.092 27.3615 109.092 28.2024C109.092 29.087 109.51 29.901 110.576 29.901C111.641 29.901 111.987 29.0433 111.987 28.1671C111.987 27.2908 111.532 26.5105 110.529 26.5105L110.531 26.5122Z" fill="#F26322"/>
<path d="M112.698 32.1646C113.564 30.8645 113.901 29.5729 113.901 28.1686C113.901 26.7643 113.564 25.4373 112.698 24.112H113.291C114.166 25.4121 114.721 26.6516 114.721 28.1686C114.721 29.5208 114.22 30.9856 113.291 32.1646H112.698Z" fill="#F26322"/>
<path d="M128.85 8.37709L129 5.19678L128.443 4.87555C127.512 5.84259 122.549 10.3263 116.672 12.8995C116.652 12.8844 116.798 13.0206 116.822 13.0139C124.444 11.1185 128.85 8.37541 128.85 8.37541" fill="#DFDF00"/>
<g style="mix-blend-mode:multiply" opacity="0.43">
<path d="M128.85 8.37709L129 5.19678L128.443 4.87555C127.512 5.84259 122.549 10.3263 116.672 12.8995C116.652 12.8844 116.798 13.0206 116.822 13.0139C124.444 11.1185 128.85 8.37541 128.85 8.37541" fill="#51626F"/>
</g>
<path d="M116.612 13.0223C118.956 5.39191 123.603 0.595363 123.603 0.595363L123.064 0L119.206 0.861091C119.206 0.861091 117.426 5.31454 116.355 12.8625C116.353 12.8794 116.384 12.9365 116.38 12.955L116.54 13.029L116.612 13.0223Z" fill="#D0103A"/>
<g style="mix-blend-mode:multiply" opacity="0.43">
<path d="M116.612 13.0223C118.956 5.39191 123.603 0.595363 123.603 0.595363L123.064 0L119.206 0.861091C119.206 0.861091 117.426 5.31454 116.355 12.8625C116.353 12.8794 116.384 12.9365 116.38 12.955L116.54 13.029L116.612 13.0223Z" fill="#51626F"/>
</g>
<path d="M128.148 7.99539L128.443 4.8773C128.443 4.8773 123.406 9.84371 116.654 12.8996C116.633 12.8861 116.733 12.9618 116.75 12.945C124.405 10.6762 128.147 7.99539 128.147 7.99539" fill="#DFDF00"/>
<path d="M116.514 12.9349C118.684 4.71918 123.062 0 123.062 0L118.991 0.734954C118.991 0.734954 117.307 5.27082 116.353 12.8625L116.512 12.9349H116.514Z" fill="#D0103A"/>
<path d="M111.843 11.8114C111.611 12.178 110.568 12.035 109.511 11.4918C108.453 10.9486 107.779 10.2103 108.007 9.84196C108.234 9.47364 109.28 9.61491 110.338 10.1598C111.397 10.703 112.072 11.4414 111.844 11.8114" fill="#F26322"/>
<path d="M113.019 9.37275C112.846 9.65025 111.887 9.45516 110.873 8.93548C109.861 8.4158 109.178 7.76998 109.354 7.49248C109.526 7.2133 110.486 7.41175 111.498 7.93143C112.512 8.45111 113.193 9.09525 113.021 9.37443" fill="#F26322"/>
<path d="M115.859 9.14911C115.722 9.36943 114.963 9.22143 114.166 8.81107C113.37 8.40407 112.837 7.8928 112.974 7.66743C113.111 7.44543 113.87 7.5968 114.665 8.00716C115.463 8.41416 115.996 8.92711 115.857 9.14911" fill="#F26322"/>
<path d="M119.901 16.4178C119.649 16.7727 120.275 17.5463 121.298 18.1434C122.321 18.7388 123.356 18.9355 123.607 18.5807C123.859 18.2241 123.232 17.4522 122.208 16.8551C121.185 16.2581 120.151 16.0613 119.901 16.4178Z" fill="#F26322"/>
<path d="M121.722 14.3308C121.533 14.5999 122.173 15.2777 123.15 15.8512C124.131 16.423 125.075 16.6668 125.266 16.3994C125.456 16.132 124.816 15.4509 123.837 14.8807C122.858 14.3089 121.913 14.0651 121.722 14.3325" fill="#F26322"/>
<path d="M120.827 12.0754C120.675 12.2907 121.175 12.8272 121.945 13.2762C122.714 13.7253 123.462 13.9136 123.614 13.7001C123.764 13.4881 123.264 12.9483 122.494 12.4992C121.724 12.0502 120.977 11.8601 120.827 12.0754Z" fill="#F26322"/>
<path d="M119.718 10.8578C119.653 10.957 119.181 10.8107 118.666 10.5298C118.154 10.2473 117.789 9.93783 117.856 9.83692C117.923 9.73937 118.394 9.88569 118.907 10.1682C119.423 10.4491 119.786 10.7586 119.718 10.8578Z" fill="#F26322"/>
<path d="M114.091 22.057C114.091 21.4767 114.59 21.132 115.138 21.132C115.686 21.132 116.185 21.4767 116.185 22.057C116.185 22.6372 115.686 22.982 115.138 22.982C114.59 22.982 114.091 22.6372 114.091 22.057ZM115.138 21.3119C114.705 21.3119 114.359 21.6163 114.359 22.057C114.359 22.4976 114.705 22.802 115.138 22.802C115.571 22.802 115.917 22.4976 115.917 22.057C115.917 21.6163 115.564 21.3119 115.138 21.3119ZM114.966 22.5632H114.726V21.5491H115.146C115.436 21.5491 115.601 21.6231 115.601 21.8552C115.601 22.0418 115.482 22.1142 115.294 22.1242L115.584 22.5632H115.34L115.079 22.1377H114.966V22.5632ZM114.966 21.9678H115.177C115.308 21.9678 115.358 21.9107 115.358 21.8333C115.358 21.7408 115.281 21.7189 115.166 21.7189H114.966V21.9678Z" fill="#F26322"/>
<path d="M78.0572 36.0329C78.0572 36.0329 78.0522 36.0329 78.0522 36.0362C78.0539 36.0362 78.0556 36.0362 78.0572 36.0362V36.0329Z" fill="#F26322"/>
<path d="M76.921 35.6293L76.9048 35.631H76.921V35.6293Z" fill="#F26322"/>
<path d="M70.4546 33.7844L70.4731 36.3458H70.9246L70.9079 33.7676L70.4546 33.7844Z" fill="#F26322"/>
<path d="M72.7397 34.8825C72.7397 34.5209 72.5676 34.346 72.2124 34.346C72.0014 34.346 71.8219 34.4368 71.7257 34.5882C71.7146 34.6016 71.7017 34.6134 71.6924 34.6285L71.6757 34.3948L71.2705 34.4116L71.2872 36.3457L71.7165 36.3289V35.0423C71.7165 34.7967 71.8774 34.684 72.0273 34.684C72.2235 34.684 72.2956 34.7732 72.2956 35.0137L72.3123 36.3457H72.7416V34.8825H72.7397Z" fill="#F26322"/>
<path d="M73.0151 33.7558L73.0336 34.1578H73.4629L73.4444 33.7407L73.0151 33.7558Z" fill="#F26322"/>
<path d="M73.0151 34.4117V36.4181C73.0151 36.6267 72.954 36.662 72.8189 36.662L72.7061 36.6771L72.7209 36.9883C72.7819 36.995 72.8448 37 72.9022 37C73.2982 37 73.461 36.8419 73.461 36.4518L73.4444 34.3932L73.0151 34.41V34.4117Z" fill="#F26322"/>
<path d="M74.5346 34.346C74.0128 34.346 73.7593 34.6908 73.7593 35.3988C73.7593 36.2818 74.1701 36.3945 74.5272 36.3945C74.9695 36.3945 75.247 36.1371 75.247 35.7049C75.247 35.6982 75.247 35.6931 75.247 35.6864C75.247 35.6864 75.247 35.6763 75.247 35.6696L74.8399 35.6864C74.8399 35.7554 74.8251 36.0985 74.5291 36.0985C74.233 36.0985 74.2034 35.794 74.2034 35.53L74.1867 35.4358L75.2748 35.419V35.2155C75.2748 34.5966 75.0601 34.3443 74.5328 34.3443L74.5346 34.346ZM74.2052 35.1583V35.118C74.2052 34.9397 74.2478 34.642 74.5309 34.642C74.777 34.642 74.8307 34.8657 74.8307 35.0524L74.8473 35.1398L74.2052 35.1566V35.1583Z" fill="#F26322"/>
<path d="M76.2647 34.6639C76.496 34.6639 76.5293 34.906 76.5478 35.0675L76.9771 35.0507C76.9771 34.8388 76.9087 34.346 76.2536 34.346C75.5542 34.346 75.4746 34.9313 75.4746 35.3702C75.4746 35.8092 75.556 36.3961 76.2536 36.3961C76.7014 36.3961 76.9216 36.1775 76.9512 35.6797C76.9512 35.6645 76.9549 35.6494 76.9549 35.6326C76.9549 35.6326 76.9549 35.6225 76.9549 35.6174L76.5478 35.6326C76.5478 35.7806 76.5256 35.8899 76.4812 35.9639C76.4331 36.0413 76.361 36.0799 76.2536 36.0799C75.9779 36.0799 75.9206 35.7974 75.9206 35.3719C75.9206 34.9464 75.9779 34.6655 76.2647 34.6655V34.6639ZM76.9605 35.0355C76.9605 35.0355 76.9605 35.0271 76.9605 35.0238C76.9605 35.0271 76.9605 35.0322 76.9605 35.0355Z" fill="#F26322"/>
<path d="M78.084 34.3948L77.7657 34.4116L77.7472 33.8499L77.3179 33.8667L77.3364 34.3965L77.0366 34.4133L77.0551 34.7143L77.3197 34.6992V35.8899C77.3197 36.2952 77.4659 36.3692 77.7527 36.3692C77.886 36.3692 78.0025 36.3575 78.1025 36.3205L78.084 36.0699V36.0346C78.084 36.0346 78.084 36.0346 78.0821 36.0346V36.0194C78.0451 36.0262 77.9951 36.0295 77.9359 36.0295C77.8064 36.0295 77.7675 35.9858 77.7675 35.8428L77.749 34.7143L78.1025 34.6992L78.084 34.3982V34.3948ZM78.0655 36.0329C78.0655 36.0329 78.0618 36.0362 78.0599 36.0362C78.0599 36.0346 78.0655 36.0346 78.0655 36.0329Z" fill="#F26322"/>
<path d="M78.3462 34.4117L78.3647 36.3457H78.794L78.7755 34.3948L78.3462 34.4117Z" fill="#F26322"/>
<path d="M78.3462 33.7558L78.3647 34.1578H78.794L78.7755 33.7407L78.3462 33.7558Z" fill="#F26322"/>
<path d="M79.8468 34.346C79.1473 34.346 79.0659 34.9313 79.0659 35.3702C79.0659 36.0514 79.3287 36.3961 79.8468 36.3961C80.3649 36.3961 80.6314 36.0614 80.6314 35.3702C80.6314 34.9313 80.55 34.346 79.8468 34.346ZM79.8468 36.0783C79.5637 36.0783 79.5137 35.8495 79.5137 35.3702C79.5137 34.9464 79.5711 34.6639 79.8468 34.6639C80.1225 34.6639 80.1836 34.9346 80.1836 35.3702C80.1836 35.8495 80.1336 36.0783 79.8468 36.0783Z" fill="#F26322"/>
<path d="M81.829 34.346C81.6199 34.346 81.4385 34.4368 81.3423 34.5882C81.3312 34.6016 81.3183 34.6134 81.309 34.6285L81.2923 34.3948L80.8853 34.4116L80.9019 36.3457L81.3312 36.3289V35.0423C81.3312 34.7967 81.4922 34.684 81.6402 34.684C81.8364 34.684 81.9085 34.7732 81.9085 35.0137L81.927 36.3457H82.3563V34.8825C82.3563 34.5209 82.1842 34.346 81.829 34.346Z" fill="#F26322"/>
<path d="M84.209 34.6976L84.1905 34.3966L83.8723 34.4134V34.2452C83.8723 34.1275 83.9315 34.0804 84.0758 34.0804L84.209 34.0636L84.1942 33.7525C84.1332 33.7457 84.0555 33.7407 83.9666 33.7407C83.5873 33.7407 83.4263 33.8887 83.4263 34.2334L83.4448 34.3966L83.1414 34.4134L83.1599 34.7144L83.4282 34.6993L83.4467 36.3475H83.876L83.8575 34.7144L84.2109 34.6993L84.209 34.6976Z" fill="#F26322"/>
<path d="M84.9654 34.346C84.266 34.346 84.1846 34.9313 84.1846 35.3702C84.1846 36.0514 84.4473 36.3961 84.9654 36.3961C85.4836 36.3961 85.75 36.0614 85.75 35.3702C85.75 34.9313 85.6686 34.346 84.9654 34.346ZM84.9654 36.0783C84.6823 36.0783 84.6324 35.8495 84.6324 35.3702C84.6324 34.9464 84.6897 34.6639 84.9654 34.6639C85.2412 34.6639 85.3022 34.9346 85.3022 35.3702C85.3022 35.8495 85.2523 36.0783 84.9654 36.0783Z" fill="#F26322"/>
<path d="M117.531 34.3948L117.101 34.4116V34.5075C117.022 34.4099 116.918 34.3443 116.754 34.3443C116.054 34.3443 115.973 34.9296 115.973 35.3685C115.973 36.0497 116.235 36.3945 116.754 36.3945C116.926 36.3945 117.026 36.3322 117.101 36.2364C117.101 36.4432 117.033 36.6619 116.746 36.6551C116.496 36.6484 116.11 36.5492 116.11 36.5492L116.134 36.8839C116.195 36.8906 116.469 37.0016 116.831 36.9932C117.27 36.9831 117.549 36.6535 117.549 36.265L117.531 34.3948ZM116.752 36.0783C116.469 36.0783 116.419 35.8495 116.419 35.3702C116.419 34.9464 116.476 34.6639 116.752 34.6639C116.992 34.6639 117.079 34.6908 117.109 35.1163V35.6292C117.077 36.0615 116.996 36.0783 116.752 36.0783Z" fill="#F26322"/>
<path d="M86.9251 34.346C86.7363 34.346 86.592 34.4368 86.505 34.61C86.4884 34.637 86.4717 34.6639 86.4569 34.6941L86.4403 34.3948L86.011 34.4116L86.0276 36.3457H86.4569V35.1819C86.4569 34.8354 86.6716 34.7631 86.8511 34.7631C86.9232 34.7631 86.9973 34.7782 87.0176 34.7833L87.0398 34.7883L87.0269 34.3595C87.001 34.3527 86.9714 34.3443 86.9232 34.3443L86.9251 34.346Z" fill="#F26322"/>
<path d="M87.9092 34.4117L87.9277 36.3457H88.357L88.3385 34.3948L87.9092 34.4117Z" fill="#F26322"/>
<path d="M87.9092 33.7558L87.9277 34.1578H88.357L88.3385 33.7407L87.9092 33.7558Z" fill="#F26322"/>
<path d="M89.6617 34.346C89.4526 34.346 89.2713 34.4368 89.1751 34.5882C89.164 34.6016 89.151 34.6134 89.1418 34.6285L89.1251 34.3948L88.718 34.4116L88.7365 36.3457L89.1658 36.3289V35.0423C89.1658 34.7967 89.3268 34.684 89.4767 34.684C89.6728 34.684 89.745 34.7732 89.745 35.0137L89.7635 36.3457H90.1928V34.8825C90.1928 34.5209 90.0189 34.346 89.6636 34.346H89.6617Z" fill="#F26322"/>
<path d="M115.275 34.346C115.068 34.346 114.89 34.4368 114.796 34.5882C114.783 34.61 114.768 34.6319 114.757 34.6538C114.694 34.4469 114.533 34.3443 114.267 34.3443C114.06 34.3443 113.882 34.4351 113.788 34.5865C113.778 34.6 113.763 34.6117 113.754 34.6269L113.738 34.3931L113.338 34.4099L113.356 36.344L113.78 36.3272V35.0406C113.78 34.795 113.937 34.6824 114.085 34.6824C114.278 34.6824 114.35 34.7715 114.35 35.012L114.369 36.344H114.792V35.0406C114.792 34.795 114.95 34.6824 115.098 34.6824C115.29 34.6824 115.362 34.7715 115.362 35.012L115.381 36.344H115.803V34.8808C115.803 34.5192 115.632 34.3443 115.283 34.3443L115.275 34.346Z" fill="#F26322"/>
<path d="M120.616 34.346C120.408 34.346 120.231 34.4368 120.136 34.5882C120.123 34.61 120.109 34.6319 120.097 34.6538C120.035 34.4469 119.874 34.3443 119.607 34.3443C119.4 34.3443 119.222 34.4351 119.128 34.5865C119.119 34.6 119.104 34.6117 119.095 34.6269L119.078 34.3931L118.678 34.4099L118.697 36.344L119.12 36.3272V35.0406C119.12 34.795 119.278 34.6824 119.426 34.6824C119.618 34.6824 119.69 34.7715 119.69 35.012L119.709 36.344H120.133V35.0406C120.133 34.795 120.29 34.6824 120.438 34.6824C120.63 34.6824 120.703 34.7715 120.703 35.012L120.721 36.344H121.143V34.8808C121.143 34.5192 120.973 34.3443 120.623 34.3443L120.616 34.346Z" fill="#F26322"/>
<path d="M91.3978 34.3948L91.0795 34.4116L91.0629 33.8499L90.6336 33.8667L90.6521 34.3965L90.3523 34.4133L90.3708 34.7143L90.6354 34.6992V35.8899C90.6354 36.2952 90.7816 36.3692 91.0684 36.3692C91.2016 36.3692 91.3164 36.3575 91.4181 36.3205L91.3996 36.0699V36.0346C91.3996 36.0346 91.3996 36.0346 91.3978 36.0346V36.0194C91.3608 36.0262 91.3108 36.0295 91.2516 36.0295C91.1221 36.0295 91.0814 35.9858 91.0814 35.8428L91.0647 34.7143L91.4181 34.6992L91.3996 34.3982L91.3978 34.3948ZM91.3811 36.0329C91.3811 36.0329 91.3774 36.0362 91.3756 36.0362C91.3756 36.0346 91.3811 36.0346 91.3811 36.0329Z" fill="#F26322"/>
<path d="M92.6397 34.346C92.4509 34.346 92.3066 34.4368 92.2196 34.61C92.203 34.637 92.1863 34.6639 92.1715 34.6941L92.1549 34.3948L91.7256 34.4116L91.7422 36.3457H92.1715V35.1819C92.1715 34.8354 92.3862 34.7631 92.5657 34.7631C92.636 34.7631 92.7119 34.7782 92.7322 34.7833L92.7544 34.7883L92.7415 34.3595C92.7156 34.3527 92.6878 34.3443 92.6378 34.3443L92.6397 34.346Z" fill="#F26322"/>
<path d="M94.3566 36.0497C94.3084 36.0497 94.2677 35.9959 94.2677 35.9303V34.832C94.2677 34.5226 94.0235 34.346 93.5979 34.346C93.1001 34.346 92.8744 34.5377 92.8781 34.9767C92.8781 34.9834 92.8781 34.9884 92.8781 34.9935C92.8781 34.9935 92.8781 35.0036 92.8781 35.0086L93.2852 34.9935C93.2852 34.8102 93.3203 34.642 93.5794 34.642C93.7644 34.642 93.844 34.7227 93.844 34.9111C93.844 35.0692 93.7589 35.1045 93.6164 35.1415L93.2944 35.2239C93.0076 35.3114 92.8059 35.4072 92.8059 35.8411C92.8059 36.1994 93.002 36.3961 93.3573 36.3961C93.5683 36.3961 93.7182 36.3221 93.8144 36.1708C93.8292 36.1506 93.8477 36.1321 93.8606 36.1085C93.8754 36.275 94.0031 36.3675 94.2233 36.3675C94.2899 36.3675 94.3584 36.3524 94.4435 36.3053V36.0295L94.4176 36.0413C94.4065 36.048 94.3825 36.0497 94.3566 36.0497ZM93.844 35.6376C93.844 35.9219 93.7182 36.0783 93.4924 36.0783C93.3166 36.0783 93.2537 35.937 93.2537 35.8058C93.2537 35.7032 93.2815 35.5687 93.411 35.5098C93.4554 35.4896 93.5146 35.4728 93.5757 35.4526C93.6719 35.4207 93.7737 35.3904 93.844 35.3484V35.6376Z" fill="#F26322"/>
<path d="M95.3554 35.4241L95.2518 35.9017L94.8817 34.3948H94.4172L94.989 36.3457H95.4831L96.0326 34.3948L95.5534 34.4083L95.3554 35.4241Z" fill="#F26322"/>
<path d="M96.9183 34.346C96.3965 34.346 96.1411 34.6908 96.1411 35.3988C96.1411 36.2818 96.5519 36.3945 96.9109 36.3945C97.3531 36.3945 97.6325 36.1371 97.6307 35.7049C97.6307 35.6982 97.6307 35.6931 97.6307 35.6864C97.6307 35.6864 97.6307 35.6763 97.6307 35.6696L97.2236 35.6864C97.2236 35.7554 97.2088 36.0985 96.9127 36.0985C96.6167 36.0985 96.5871 35.794 96.5871 35.53L96.5686 35.4358L97.6585 35.419V35.2155C97.6585 34.5966 97.442 34.3443 96.9164 34.3443L96.9183 34.346ZM96.5889 35.1583V35.118C96.5889 34.9397 96.6315 34.642 96.9146 34.642C97.1625 34.642 97.2125 34.8657 97.2125 35.0524L97.231 35.1398L96.5889 35.1566V35.1583Z" fill="#F26322"/>
<path d="M109.517 34.346C108.995 34.346 108.74 34.6908 108.74 35.3988C108.74 36.2818 109.151 36.3945 109.51 36.3945C109.952 36.3945 110.229 36.1371 110.229 35.7049C110.229 35.6982 110.229 35.6931 110.229 35.6864C110.229 35.6864 110.229 35.6763 110.229 35.6696L109.822 35.6864C109.822 35.7554 109.807 36.0985 109.511 36.0985C109.215 36.0985 109.186 35.794 109.186 35.53L109.167 35.4358L110.257 35.419V35.2155C110.257 34.5966 110.042 34.3443 109.515 34.3443L109.517 34.346ZM109.188 35.1583V35.118C109.188 34.9397 109.23 34.642 109.513 34.642C109.761 34.642 109.811 34.8657 109.811 35.0524L109.83 35.1398L109.188 35.1566V35.1583Z" fill="#F26322"/>
<path d="M98.8897 34.346C98.6806 34.346 98.5011 34.4351 98.403 34.5865C98.3919 34.5999 98.3771 34.6134 98.3678 34.6285L98.3512 34.3948L97.9441 34.4116L97.9608 36.3457L98.39 36.3289V35.0423C98.39 34.7967 98.551 34.684 98.7009 34.684C98.8971 34.684 98.9692 34.7732 98.9692 35.0137L98.9877 36.3457H99.417V34.8825C99.417 34.5209 99.2431 34.346 98.8897 34.346Z" fill="#F26322"/>
<path d="M100.461 34.346C99.7616 34.346 99.6802 34.9313 99.6802 35.3702C99.6802 36.0514 99.9429 36.3961 100.461 36.3961C100.979 36.3961 101.246 36.0614 101.246 35.3702C101.246 34.9313 101.164 34.346 100.461 34.346ZM100.461 36.0783C100.178 36.0783 100.128 35.8495 100.128 35.3702C100.128 34.9464 100.185 34.6639 100.461 34.6639C100.737 34.6639 100.798 34.9346 100.798 35.3702C100.798 35.8495 100.748 36.0783 100.461 36.0783Z" fill="#F26322"/>
<path d="M102.532 34.4117V35.7521C102.532 35.9623 102.372 36.0565 102.213 36.0565C102.03 36.0565 101.952 35.9757 101.952 35.7874L101.934 34.3948L101.505 34.4117V35.7521C101.505 36.1961 101.667 36.3962 102.034 36.3962C102.245 36.3962 102.426 36.3054 102.522 36.1523C102.533 36.1389 102.545 36.1271 102.554 36.112L102.57 36.3457L102.978 36.3289L102.959 34.3948L102.53 34.4117H102.532Z" fill="#F26322"/>
<path d="M104.217 35.2273L103.954 35.1432C103.736 35.0709 103.677 35.0137 103.677 34.8774C103.677 34.6739 103.851 34.6437 103.952 34.6437C104.121 34.6437 104.206 34.7379 104.206 34.9229L104.224 34.9884L104.631 34.9716V34.8859C104.631 34.684 104.546 34.346 103.975 34.346C103.51 34.346 103.255 34.5394 103.255 34.8892C103.255 35.1936 103.381 35.3517 103.704 35.456L104.041 35.567C104.182 35.6124 104.254 35.7015 104.254 35.8327C104.254 36.0076 104.143 36.0984 103.936 36.0984C103.728 36.0984 103.632 36.0009 103.632 35.7722L103.614 35.6948L103.231 35.7116V35.7823C103.231 36.2044 103.444 36.3928 103.923 36.3928C104.402 36.3928 104.676 36.1741 104.676 35.7924C104.676 35.4913 104.543 35.3282 104.219 35.2239L104.217 35.2273Z" fill="#F26322"/>
<path d="M106.474 34.4117V35.7521C106.474 35.9623 106.315 36.0565 106.156 36.0565C105.973 36.0565 105.895 35.9757 105.895 35.7874L105.879 34.3948L105.449 34.4117V35.7521C105.449 36.1961 105.612 36.3962 105.978 36.3962C106.189 36.3962 106.371 36.3054 106.467 36.1523C106.478 36.1389 106.491 36.1271 106.498 36.112L106.515 36.3457L106.92 36.3289L106.904 34.3948L106.474 34.4117Z" fill="#F26322"/>
<path d="M108.129 35.2273L107.866 35.1432C107.648 35.0709 107.588 35.0137 107.588 34.8774C107.588 34.6739 107.762 34.6437 107.864 34.6437C108.032 34.6437 108.116 34.7379 108.116 34.9229L108.134 34.9884L108.541 34.9716V34.8859C108.541 34.684 108.456 34.346 107.883 34.346C107.418 34.346 107.163 34.5394 107.163 34.8892C107.163 35.1936 107.289 35.3517 107.612 35.456L107.949 35.567C108.09 35.6124 108.162 35.7015 108.162 35.8327C108.162 36.0076 108.053 36.0984 107.844 36.0984C107.635 36.0984 107.542 36.0009 107.542 35.7722L107.524 35.6948L107.139 35.7116V35.7823C107.139 36.2044 107.353 36.3928 107.833 36.3928C108.312 36.3928 108.586 36.1741 108.586 35.7924C108.586 35.4913 108.452 35.3282 108.129 35.2239V35.2273Z" fill="#F26322"/>
<path d="M118.556 33.3639H118.894L117.977 36.3458H117.638L118.556 33.3639Z" fill="#F26322"/>
<path d="M122.754 35.964H121.814L121.8 33.7676L121.348 33.7844L121.365 36.3458H121.661H121.818H122.758L122.754 35.964Z" fill="#F26322"/>
<path d="M111.086 35.7016L111.519 35.6494C111.53 35.7604 111.561 35.8462 111.624 35.9101C111.687 35.974 111.758 36.0043 111.834 36.0043C111.924 36.0043 112 35.9639 112.065 35.8832C112.13 35.8025 112.161 35.678 112.161 35.5098C112.161 35.3517 112.13 35.234 112.065 35.1583C112 35.0826 111.919 35.044 111.821 35.044C111.695 35.044 111.582 35.1062 111.482 35.229L111.141 35.1718L111.365 33.8566H112.505L112.518 34.2468H111.684L111.613 34.7396C111.711 34.6857 111.813 34.6588 111.913 34.6588C112.093 34.6588 112.246 34.7227 112.37 34.8522C112.529 35.0171 112.607 35.234 112.607 35.5031C112.607 35.7251 112.54 35.9286 112.405 36.1153C112.27 36.302 112.078 36.3945 111.828 36.3945C111.626 36.3945 111.456 36.3339 111.321 36.2145C111.186 36.0951 111.114 35.9236 111.086 35.7016Z" fill="#F26322"/>
</svg>
